%TF.GenerationSoftware,KiCad,Pcbnew,10.0.2*%
%TF.CreationDate,2026-05-13T22:37:29+02:00*%
%TF.ProjectId,ESP32_Drone,45535033-325f-4447-926f-6e652e6b6963,rev?*%
%TF.SameCoordinates,Original*%
%TF.FileFunction,Copper,L1,Top*%
%TF.FilePolarity,Positive*%
%FSLAX46Y46*%
G04 Gerber Fmt 4.6, Leading zero omitted, Abs format (unit mm)*
G04 Created by KiCad (PCBNEW 10.0.2) date 2026-05-13 22:37:29*
%MOMM*%
%LPD*%
G01*
G04 APERTURE LIST*
G04 Aperture macros list*
%AMRoundRect*
0 Rectangle with rounded corners*
0 $1 Rounding radius*
0 $2 $3 $4 $5 $6 $7 $8 $9 X,Y pos of 4 corners*
0 Add a 4 corners polygon primitive as box body*
4,1,4,$2,$3,$4,$5,$6,$7,$8,$9,$2,$3,0*
0 Add four circle primitives for the rounded corners*
1,1,$1+$1,$2,$3*
1,1,$1+$1,$4,$5*
1,1,$1+$1,$6,$7*
1,1,$1+$1,$8,$9*
0 Add four rect primitives between the rounded corners*
20,1,$1+$1,$2,$3,$4,$5,0*
20,1,$1+$1,$4,$5,$6,$7,0*
20,1,$1+$1,$6,$7,$8,$9,0*
20,1,$1+$1,$8,$9,$2,$3,0*%
G04 Aperture macros list end*
%TA.AperFunction,SMDPad,CuDef*%
%ADD10R,0.900000X0.900000*%
%TD*%
%TA.AperFunction,HeatsinkPad*%
%ADD11C,0.600000*%
%TD*%
%TA.AperFunction,HeatsinkPad*%
%ADD12R,3.800000X3.800000*%
%TD*%
%TA.AperFunction,SMDPad,CuDef*%
%ADD13R,1.500000X0.900000*%
%TD*%
%TA.AperFunction,SMDPad,CuDef*%
%ADD14R,0.900000X1.500000*%
%TD*%
%TA.AperFunction,SMDPad,CuDef*%
%ADD15RoundRect,0.250000X0.250000X0.475000X-0.250000X0.475000X-0.250000X-0.475000X0.250000X-0.475000X0*%
%TD*%
%TA.AperFunction,SMDPad,CuDef*%
%ADD16RoundRect,0.250000X-0.475000X0.250000X-0.475000X-0.250000X0.475000X-0.250000X0.475000X0.250000X0*%
%TD*%
%TA.AperFunction,SMDPad,CuDef*%
%ADD17RoundRect,0.250000X0.475000X-0.250000X0.475000X0.250000X-0.475000X0.250000X-0.475000X-0.250000X0*%
%TD*%
%TA.AperFunction,SMDPad,CuDef*%
%ADD18RoundRect,0.250000X0.650000X-1.000000X0.650000X1.000000X-0.650000X1.000000X-0.650000X-1.000000X0*%
%TD*%
%TA.AperFunction,SMDPad,CuDef*%
%ADD19RoundRect,0.062500X0.337500X0.062500X-0.337500X0.062500X-0.337500X-0.062500X0.337500X-0.062500X0*%
%TD*%
%TA.AperFunction,SMDPad,CuDef*%
%ADD20RoundRect,0.062500X0.062500X0.337500X-0.062500X0.337500X-0.062500X-0.337500X0.062500X-0.337500X0*%
%TD*%
%TA.AperFunction,HeatsinkPad*%
%ADD21R,3.350000X3.350000*%
%TD*%
%TA.AperFunction,SMDPad,CuDef*%
%ADD22RoundRect,0.200000X-0.275000X0.200000X-0.275000X-0.200000X0.275000X-0.200000X0.275000X0.200000X0*%
%TD*%
%TA.AperFunction,SMDPad,CuDef*%
%ADD23RoundRect,0.200000X0.200000X0.275000X-0.200000X0.275000X-0.200000X-0.275000X0.200000X-0.275000X0*%
%TD*%
%TA.AperFunction,SMDPad,CuDef*%
%ADD24RoundRect,0.200000X-0.200000X-0.275000X0.200000X-0.275000X0.200000X0.275000X-0.200000X0.275000X0*%
%TD*%
%TA.AperFunction,SMDPad,CuDef*%
%ADD25RoundRect,0.200000X0.275000X-0.200000X0.275000X0.200000X-0.275000X0.200000X-0.275000X-0.200000X0*%
%TD*%
%TA.AperFunction,SMDPad,CuDef*%
%ADD26RoundRect,0.218750X-0.218750X-0.256250X0.218750X-0.256250X0.218750X0.256250X-0.218750X0.256250X0*%
%TD*%
%TA.AperFunction,SMDPad,CuDef*%
%ADD27RoundRect,0.150000X-0.587500X-0.150000X0.587500X-0.150000X0.587500X0.150000X-0.587500X0.150000X0*%
%TD*%
%TA.AperFunction,SMDPad,CuDef*%
%ADD28RoundRect,0.250000X-1.000000X-0.650000X1.000000X-0.650000X1.000000X0.650000X-1.000000X0.650000X0*%
%TD*%
%TA.AperFunction,ComponentPad*%
%ADD29RoundRect,0.250000X0.675000X-0.675000X0.675000X0.675000X-0.675000X0.675000X-0.675000X-0.675000X0*%
%TD*%
%TA.AperFunction,ComponentPad*%
%ADD30C,1.850000*%
%TD*%
%TA.AperFunction,SMDPad,CuDef*%
%ADD31RoundRect,0.250000X-0.250000X-0.475000X0.250000X-0.475000X0.250000X0.475000X-0.250000X0.475000X0*%
%TD*%
%TA.AperFunction,ComponentPad*%
%ADD32RoundRect,0.250000X-0.675000X-0.675000X0.675000X-0.675000X0.675000X0.675000X-0.675000X0.675000X0*%
%TD*%
%TA.AperFunction,SMDPad,CuDef*%
%ADD33RoundRect,0.150000X-0.150000X0.587500X-0.150000X-0.587500X0.150000X-0.587500X0.150000X0.587500X0*%
%TD*%
%TA.AperFunction,SMDPad,CuDef*%
%ADD34RoundRect,0.150000X0.150000X-0.825000X0.150000X0.825000X-0.150000X0.825000X-0.150000X-0.825000X0*%
%TD*%
%TA.AperFunction,HeatsinkPad*%
%ADD35C,0.500000*%
%TD*%
%TA.AperFunction,HeatsinkPad*%
%ADD36R,3.300000X2.410000*%
%TD*%
%TA.AperFunction,ComponentPad*%
%ADD37RoundRect,0.250000X0.625000X-0.350000X0.625000X0.350000X-0.625000X0.350000X-0.625000X-0.350000X0*%
%TD*%
%TA.AperFunction,ComponentPad*%
%ADD38O,1.750000X1.200000*%
%TD*%
%TA.AperFunction,SMDPad,CuDef*%
%ADD39RoundRect,0.075000X0.350000X0.075000X-0.350000X0.075000X-0.350000X-0.075000X0.350000X-0.075000X0*%
%TD*%
%TA.AperFunction,SMDPad,CuDef*%
%ADD40RoundRect,0.075000X-0.075000X0.350000X-0.075000X-0.350000X0.075000X-0.350000X0.075000X0.350000X0*%
%TD*%
%TA.AperFunction,SMDPad,CuDef*%
%ADD41RoundRect,0.150000X0.150000X-0.587500X0.150000X0.587500X-0.150000X0.587500X-0.150000X-0.587500X0*%
%TD*%
%TA.AperFunction,SMDPad,CuDef*%
%ADD42RoundRect,0.150000X-0.150000X0.512500X-0.150000X-0.512500X0.150000X-0.512500X0.150000X0.512500X0*%
%TD*%
%TA.AperFunction,SMDPad,CuDef*%
%ADD43RoundRect,0.150000X0.587500X0.150000X-0.587500X0.150000X-0.587500X-0.150000X0.587500X-0.150000X0*%
%TD*%
%TA.AperFunction,SMDPad,CuDef*%
%ADD44RoundRect,0.250000X-1.000000X-0.900000X1.000000X-0.900000X1.000000X0.900000X-1.000000X0.900000X0*%
%TD*%
%TA.AperFunction,SMDPad,CuDef*%
%ADD45RoundRect,0.250000X1.000000X-0.375000X1.000000X0.375000X-1.000000X0.375000X-1.000000X-0.375000X0*%
%TD*%
%TA.AperFunction,SMDPad,CuDef*%
%ADD46RoundRect,0.150000X0.150000X0.575000X-0.150000X0.575000X-0.150000X-0.575000X0.150000X-0.575000X0*%
%TD*%
%TA.AperFunction,SMDPad,CuDef*%
%ADD47RoundRect,0.075000X0.075000X0.650000X-0.075000X0.650000X-0.075000X-0.650000X0.075000X-0.650000X0*%
%TD*%
%TA.AperFunction,ComponentPad*%
%ADD48O,1.000000X2.100000*%
%TD*%
%TA.AperFunction,ComponentPad*%
%ADD49O,1.000000X1.600000*%
%TD*%
%TA.AperFunction,ViaPad*%
%ADD50C,1.000000*%
%TD*%
%TA.AperFunction,ViaPad*%
%ADD51C,0.600000*%
%TD*%
%TA.AperFunction,Conductor*%
%ADD52C,0.250000*%
%TD*%
%TA.AperFunction,Conductor*%
%ADD53C,1.500000*%
%TD*%
%TA.AperFunction,Conductor*%
%ADD54C,0.600000*%
%TD*%
%TA.AperFunction,Conductor*%
%ADD55C,1.000000*%
%TD*%
%TA.AperFunction,Conductor*%
%ADD56C,0.700000*%
%TD*%
%TA.AperFunction,Conductor*%
%ADD57C,0.200000*%
%TD*%
G04 APERTURE END LIST*
D10*
%TO.P,U4,39,GND_39*%
%TO.N,GND*%
X243100000Y-134280000D03*
D11*
X243100000Y-134980000D03*
D10*
X243100000Y-135680000D03*
D11*
X243100000Y-136380000D03*
D10*
X243100000Y-137080000D03*
D11*
X243800000Y-134280000D03*
X243800000Y-135680000D03*
X243800000Y-137080000D03*
D10*
X244500000Y-134280000D03*
D12*
X244500000Y-135680000D03*
D10*
X244500000Y-135680000D03*
X244500000Y-137080000D03*
D11*
X244525000Y-134980000D03*
X244525000Y-136380000D03*
X245200000Y-134280000D03*
X245200000Y-135680000D03*
X245200000Y-137080000D03*
D10*
X245900000Y-134280000D03*
D11*
X245900000Y-134980000D03*
D10*
X245900000Y-135680000D03*
D11*
X245900000Y-136380000D03*
D10*
X245900000Y-137080000D03*
D13*
%TO.P,U4,38,GND_38*%
X234250000Y-143400000D03*
%TO.P,U4,37,IO23_37*%
%TO.N,unconnected-(U4-IO23-Pad37)*%
X234250000Y-142130000D03*
%TO.P,U4,36,IO22_36*%
%TO.N,/SCL*%
X234250000Y-140860000D03*
%TO.P,U4,35,TXD0/IO1_35*%
%TO.N,/ESP32_TX*%
X234250000Y-139590000D03*
%TO.P,U4,34,RXD0/IO3_34*%
%TO.N,/ESP32_RX*%
X234250000Y-138320000D03*
%TO.P,U4,33,IO21_33*%
%TO.N,/SDA*%
X234250000Y-137050000D03*
%TO.P,U4,32,NC_32*%
%TO.N,unconnected-(U4-NC-Pad32)*%
X234250000Y-135780000D03*
%TO.P,U4,31,IO19_31*%
%TO.N,unconnected-(U4-IO19-Pad31)*%
X234250000Y-134510000D03*
%TO.P,U4,30,IO18_30*%
%TO.N,unconnected-(U4-IO18-Pad30)*%
X234250000Y-133240000D03*
%TO.P,U4,29,IO5_29*%
%TO.N,unconnected-(U4-IO5-Pad29)*%
X234250000Y-131970000D03*
%TO.P,U4,28,IO17_28*%
%TO.N,/MPU_INT*%
X234250000Y-130700000D03*
%TO.P,U4,27,IO16_27*%
%TO.N,unconnected-(U4-IO16-Pad27)*%
X234250000Y-129430000D03*
%TO.P,U4,26,IO4_26*%
%TO.N,unconnected-(U4-IO4-Pad26)*%
X234250000Y-128160000D03*
%TO.P,U4,25,IO0_25*%
%TO.N,/ESP32_IO0*%
X234250000Y-126890000D03*
D14*
%TO.P,U4,24,IO2_24*%
%TO.N,Net-(U4-IO2)*%
X237280000Y-125640000D03*
%TO.P,U4,23,IO15_23*%
%TO.N,/PWM4*%
X238550000Y-125640000D03*
%TO.P,U4,22,SDI/SD1_22*%
%TO.N,unconnected-(U4-SDI{slash}SD1-Pad22)*%
X239820000Y-125640000D03*
%TO.P,U4,21,SDO/SD0_21*%
%TO.N,unconnected-(U4-SDO{slash}SD0-Pad21)*%
X241090000Y-125640000D03*
%TO.P,U4,20,SCK/CLK_20*%
%TO.N,unconnected-(U4-SCK{slash}CLK-Pad20)*%
X242360000Y-125640000D03*
%TO.P,U4,19,SCS/CMD_19*%
%TO.N,unconnected-(U4-SCS{slash}CMD-Pad19)*%
X243630000Y-125640000D03*
%TO.P,U4,18,SWP/SD3_18*%
%TO.N,unconnected-(U4-SWP{slash}SD3-Pad18)*%
X244900000Y-125640000D03*
%TO.P,U4,17,SHD/SD2_17*%
%TO.N,unconnected-(U4-SHD{slash}SD2-Pad17)*%
X246170000Y-125640000D03*
%TO.P,U4,16,IO13_16*%
%TO.N,/PWM2*%
X247440000Y-125640000D03*
%TO.P,U4,15,GND_15*%
%TO.N,GND*%
X248710000Y-125640000D03*
D13*
%TO.P,U4,14,IO12_14*%
%TO.N,/PWM1*%
X251750000Y-126890000D03*
%TO.P,U4,13,IO14_13*%
%TO.N,/PWM3*%
X251750000Y-128160000D03*
%TO.P,U4,12,IO27_12*%
%TO.N,unconnected-(U4-IO27-Pad12)*%
X251750000Y-129430000D03*
%TO.P,U4,11,IO26_11*%
%TO.N,unconnected-(U4-IO26-Pad11)*%
X251750000Y-130700000D03*
%TO.P,U4,10,IO25_10*%
%TO.N,unconnected-(U4-IO25-Pad10)*%
X251750000Y-131970000D03*
%TO.P,U4,9,IO33_9*%
%TO.N,unconnected-(U4-IO33-Pad9)*%
X251750000Y-133240000D03*
%TO.P,U4,8,IO32_8*%
%TO.N,/ADC_BAT*%
X251750000Y-134510000D03*
%TO.P,U4,7,IO35_7*%
%TO.N,unconnected-(U4-IO35-Pad7)*%
X251750000Y-135780000D03*
%TO.P,U4,6,IO34_6*%
%TO.N,unconnected-(U4-IO34-Pad6)*%
X251750000Y-137050000D03*
%TO.P,U4,5,SENSOR_VN_5*%
%TO.N,unconnected-(U4-SENSOR_VN-Pad5)*%
X251750000Y-138320000D03*
%TO.P,U4,4,SENSOR_VP_4*%
%TO.N,unconnected-(U4-SENSOR_VP-Pad4)*%
X251750000Y-139590000D03*
%TO.P,U4,3,EN_3*%
%TO.N,/ESP32_EN*%
X251750000Y-140860000D03*
%TO.P,U4,2,VDD_2*%
%TO.N,+3.3V*%
X251750000Y-142130000D03*
%TO.P,U4,1,GND_1*%
%TO.N,GND*%
X251750000Y-143400000D03*
%TD*%
D15*
%TO.P,C6,2*%
%TO.N,GND*%
X241000000Y-113800000D03*
%TO.P,C6,1*%
%TO.N,Net-(U3-REGOUT)*%
X242900000Y-113800000D03*
%TD*%
D16*
%TO.P,C10,1*%
%TO.N,+3.3V*%
X256500000Y-141000000D03*
%TO.P,C10,2*%
%TO.N,GND*%
X256500000Y-142900000D03*
%TD*%
D17*
%TO.P,C4,1*%
%TO.N,Net-(U2-VDD)*%
X236000000Y-107950000D03*
%TO.P,C4,2*%
%TO.N,GND*%
X236000000Y-106050000D03*
%TD*%
D18*
%TO.P,D9,1,K_1*%
%TO.N,+BATT*%
X224000000Y-138000000D03*
%TO.P,D9,2,A_2*%
%TO.N,Net-(D9-A)*%
X224000000Y-134000000D03*
%TD*%
D19*
%TO.P,U2,1,~{DCD}_1*%
%TO.N,unconnected-(U2-~{DCD}-Pad1)*%
X234400000Y-113500000D03*
%TO.P,U2,2,~{RI}/CLK_2*%
%TO.N,unconnected-(U2-~{RI}{slash}CLK-Pad2)*%
X234400000Y-113000000D03*
%TO.P,U2,3,GND_3*%
%TO.N,GND*%
X234400000Y-112500000D03*
%TO.P,U2,4,D+_4*%
%TO.N,/USB_DP*%
X234400000Y-112000000D03*
%TO.P,U2,5,D-_5*%
%TO.N,/USB_DN*%
X234400000Y-111500000D03*
%TO.P,U2,6,VDD_6*%
%TO.N,Net-(U2-VDD)*%
X234400000Y-111000000D03*
%TO.P,U2,7,VREGIN_7*%
%TO.N,VBUS*%
X234400000Y-110500000D03*
D20*
%TO.P,U2,8,VBUS_8*%
%TO.N,Net-(U2-VBUS)*%
X233450000Y-109550000D03*
%TO.P,U2,9,~{RST}_9*%
%TO.N,Net-(U2-~{RST})*%
X232950000Y-109550000D03*
%TO.P,U2,10,NC_10*%
%TO.N,unconnected-(U2-NC-Pad10)*%
X232450000Y-109550000D03*
%TO.P,U2,11,~{SUSPEND}_11*%
%TO.N,unconnected-(U2-~{SUSPEND}-Pad11)*%
X231950000Y-109550000D03*
%TO.P,U2,12,SUSPEND_12*%
%TO.N,unconnected-(U2-SUSPEND-Pad12)*%
X231450000Y-109550000D03*
%TO.P,U2,13,CHREN_13*%
%TO.N,unconnected-(U2-CHREN-Pad13)*%
X230950000Y-109550000D03*
%TO.P,U2,14,CHR1_14*%
%TO.N,unconnected-(U2-CHR1-Pad14)*%
X230450000Y-109550000D03*
D19*
%TO.P,U2,15,CHR0_15*%
%TO.N,unconnected-(U2-CHR0-Pad15)*%
X229500000Y-110500000D03*
%TO.P,U2,16,~{WAKEUP}/GPIO.3_16*%
%TO.N,unconnected-(U2-~{WAKEUP}{slash}GPIO.3-Pad16)*%
X229500000Y-111000000D03*
%TO.P,U2,17,RS485/GPIO.2_17*%
%TO.N,unconnected-(U2-RS485{slash}GPIO.2-Pad17)*%
X229500000Y-111500000D03*
%TO.P,U2,18,~{RXT}/GPIO.1_18*%
%TO.N,unconnected-(U2-~{RXT}{slash}GPIO.1-Pad18)*%
X229500000Y-112000000D03*
%TO.P,U2,19,~{TXT}/GPIO.0_19*%
%TO.N,unconnected-(U2-~{TXT}{slash}GPIO.0-Pad19)*%
X229500000Y-112500000D03*
%TO.P,U2,20,GPIO.6_20*%
%TO.N,unconnected-(U2-GPIO.6-Pad20)*%
X229500000Y-113000000D03*
%TO.P,U2,21,GPIO.5_21*%
%TO.N,unconnected-(U2-GPIO.5-Pad21)*%
X229500000Y-113500000D03*
D20*
%TO.P,U2,22,GPIO.4_22*%
%TO.N,unconnected-(U2-GPIO.4-Pad22)*%
X230450000Y-114450000D03*
%TO.P,U2,23,~{CTS}_23*%
%TO.N,unconnected-(U2-~{CTS}-Pad23)*%
X230950000Y-114450000D03*
%TO.P,U2,24,~{RTS}_24*%
%TO.N,/RTS*%
X231450000Y-114450000D03*
%TO.P,U2,25,RXD_25*%
%TO.N,Net-(U2-RXD)*%
X231950000Y-114450000D03*
%TO.P,U2,26,TXD_26*%
%TO.N,Net-(U2-TXD)*%
X232450000Y-114450000D03*
%TO.P,U2,27,~{DSR}_27*%
%TO.N,unconnected-(U2-~{DSR}-Pad27)*%
X232950000Y-114450000D03*
%TO.P,U2,28,~{DTR}_28*%
%TO.N,/DTR*%
X233450000Y-114450000D03*
D21*
%TO.P,U2,29,GND_29*%
%TO.N,GND*%
X231950000Y-112000000D03*
%TD*%
D22*
%TO.P,R11,1*%
%TO.N,Net-(U2-RXD)*%
X231000000Y-117175000D03*
%TO.P,R11,2*%
%TO.N,/ESP32_TX*%
X231000000Y-118825000D03*
%TD*%
%TO.P,R31,1*%
%TO.N,Net-(J1-CC2)*%
X238500000Y-104850000D03*
%TO.P,R31,2*%
%TO.N,GND*%
X238500000Y-106500000D03*
%TD*%
D15*
%TO.P,C12,1*%
%TO.N,+BATT*%
X258450000Y-124500000D03*
%TO.P,C12,2*%
%TO.N,GND*%
X256550000Y-124500000D03*
%TD*%
D23*
%TO.P,R4,1*%
%TO.N,+BATT*%
X255825000Y-134000000D03*
%TO.P,R4,2*%
%TO.N,/ADC_BAT*%
X254175000Y-134000000D03*
%TD*%
D24*
%TO.P,R8,1*%
%TO.N,VBUS*%
X225675000Y-107000000D03*
%TO.P,R8,2*%
%TO.N,Net-(U2-VBUS)*%
X227325000Y-107000000D03*
%TD*%
D23*
%TO.P,R19,1*%
%TO.N,Net-(U5-~{STDBY})*%
X254150000Y-95800000D03*
%TO.P,R19,2*%
%TO.N,Net-(D3-A)*%
X252500000Y-95800000D03*
%TD*%
D24*
%TO.P,R16,1*%
%TO.N,Net-(U4-IO2)*%
X237175000Y-122500000D03*
%TO.P,R16,2*%
%TO.N,GND*%
X238825000Y-122500000D03*
%TD*%
%TO.P,R27,1*%
%TO.N,GND*%
X233350000Y-102000000D03*
%TO.P,R27,2*%
%TO.N,Net-(Q7-G)*%
X235000000Y-102000000D03*
%TD*%
D25*
%TO.P,R6,1*%
%TO.N,Net-(SW1-C)*%
X259500000Y-111325000D03*
%TO.P,R6,2*%
%TO.N,GND*%
X259500000Y-109675000D03*
%TD*%
D24*
%TO.P,R5,1*%
%TO.N,/ADC_BAT*%
X254175000Y-136000000D03*
%TO.P,R5,2*%
%TO.N,GND*%
X255825000Y-136000000D03*
%TD*%
D16*
%TO.P,C8,1*%
%TO.N,+3.3V*%
X239500000Y-117000000D03*
%TO.P,C8,2*%
%TO.N,GND*%
X239500000Y-118900000D03*
%TD*%
D26*
%TO.P,D3,1,K_1*%
%TO.N,VBUS*%
X249425000Y-95700000D03*
%TO.P,D3,2,A_2*%
%TO.N,Net-(D3-A)*%
X251000000Y-95700000D03*
%TD*%
D27*
%TO.P,Q5,1,G_1*%
%TO.N,Net-(Q5-G)*%
X228062500Y-136800000D03*
%TO.P,Q5,2,S_2*%
%TO.N,GND*%
X228062500Y-138700000D03*
%TO.P,Q5,3,D_3*%
%TO.N,Net-(D9-A)*%
X229937500Y-137750000D03*
%TD*%
D28*
%TO.P,D11,1,K_1*%
%TO.N,+BATT*%
X225000000Y-100000000D03*
%TO.P,D11,2,A_2*%
%TO.N,Net-(D11-A)*%
X229000000Y-100000000D03*
%TD*%
D29*
%TO.P,J4,1,Pin_1_1*%
%TO.N,+BATT*%
X220000000Y-137800000D03*
D30*
%TO.P,J4,2,Pin_2_2*%
%TO.N,Net-(D9-A)*%
X220000000Y-133600000D03*
%TD*%
D23*
%TO.P,R17,1*%
%TO.N,Net-(U5-PROG)*%
X251500000Y-107000000D03*
%TO.P,R17,2*%
%TO.N,GND*%
X249850000Y-107000000D03*
%TD*%
D31*
%TO.P,C2,1*%
%TO.N,Net-(U1-BP)*%
X251550000Y-116000000D03*
%TO.P,C2,2*%
%TO.N,GND*%
X253450000Y-116000000D03*
%TD*%
D22*
%TO.P,R14,1*%
%TO.N,/SDA*%
X232000000Y-136175000D03*
%TO.P,R14,2*%
%TO.N,+3.3V*%
X232000000Y-137825000D03*
%TD*%
D25*
%TO.P,R12,1*%
%TO.N,/DTR*%
X220500000Y-122870833D03*
%TO.P,R12,2*%
%TO.N,Net-(Q2-B)*%
X220500000Y-121220833D03*
%TD*%
D16*
%TO.P,C11,1*%
%TO.N,+3.3V*%
X254000000Y-141100000D03*
%TO.P,C11,2*%
%TO.N,GND*%
X254000000Y-143000000D03*
%TD*%
D23*
%TO.P,R22,1*%
%TO.N,/PWM2*%
X226325000Y-142500000D03*
%TO.P,R22,2*%
%TO.N,Net-(Q5-G)*%
X224675000Y-142500000D03*
%TD*%
D18*
%TO.P,D8,1,K_1*%
%TO.N,+BATT*%
X262500000Y-138000000D03*
%TO.P,D8,2,A_2*%
%TO.N,Net-(D8-A)*%
X262500000Y-134000000D03*
%TD*%
D24*
%TO.P,R21,1*%
%TO.N,GND*%
X250275000Y-123000000D03*
%TO.P,R21,2*%
%TO.N,Net-(Q4-G)*%
X251925000Y-123000000D03*
%TD*%
D15*
%TO.P,C7,1*%
%TO.N,Net-(U3-CPOUT)*%
X242950000Y-122250000D03*
%TO.P,C7,2*%
%TO.N,GND*%
X241050000Y-122250000D03*
%TD*%
D26*
%TO.P,D2,1,K_1*%
%TO.N,VBUS*%
X249425000Y-97300000D03*
%TO.P,D2,2,A_2*%
%TO.N,Net-(D2-A)*%
X251000000Y-97300000D03*
%TD*%
D32*
%TO.P,J6,1,Pin_1_1*%
%TO.N,+BATT*%
X224800000Y-96500000D03*
D30*
%TO.P,J6,2,Pin_2_2*%
%TO.N,Net-(D11-A)*%
X229000000Y-96500000D03*
%TD*%
D31*
%TO.P,C1,1*%
%TO.N,/VIN*%
X241050000Y-110500000D03*
%TO.P,C1,2*%
%TO.N,GND*%
X242950000Y-110500000D03*
%TD*%
D23*
%TO.P,R23,1*%
%TO.N,GND*%
X226325000Y-140500000D03*
%TO.P,R23,2*%
%TO.N,Net-(Q5-G)*%
X224675000Y-140500000D03*
%TD*%
D33*
%TO.P,Q3,1,B_1*%
%TO.N,Net-(Q3-B)*%
X222625000Y-127625000D03*
%TO.P,Q3,2,E_2*%
%TO.N,/DTR*%
X220725000Y-127625000D03*
%TO.P,Q3,3,C_3*%
%TO.N,/ESP32_IO0*%
X221675000Y-129500000D03*
%TD*%
D34*
%TO.P,U5,1,TEMP_1*%
%TO.N,GND*%
X249770000Y-104875000D03*
%TO.P,U5,2,PROG_2*%
%TO.N,Net-(U5-PROG)*%
X251040000Y-104875000D03*
%TO.P,U5,3,GND_3*%
%TO.N,GND*%
X252310000Y-104875000D03*
%TO.P,U5,4,V_{CC}_4*%
%TO.N,VBUS*%
X253580000Y-104875000D03*
%TO.P,U5,5,BAT_5*%
%TO.N,+BATT*%
X253580000Y-99925000D03*
%TO.P,U5,6,~{STDBY}_6*%
%TO.N,Net-(U5-~{STDBY})*%
X252310000Y-99925000D03*
%TO.P,U5,7,~{CHRG}_7*%
%TO.N,Net-(U5-~{CHRG})*%
X251040000Y-99925000D03*
%TO.P,U5,8,CE_8*%
%TO.N,VBUS*%
X249770000Y-99925000D03*
D35*
%TO.P,U5,9,EPAD_9*%
%TO.N,GND*%
X250475000Y-103100000D03*
X251675000Y-103100000D03*
X252875000Y-103100000D03*
D36*
X251675000Y-102400000D03*
D35*
X250475000Y-101700000D03*
X251675000Y-101700000D03*
X252875000Y-101700000D03*
%TD*%
D37*
%TO.P,J2,1,Pin_1_1*%
%TO.N,+BATT*%
X261550000Y-124500000D03*
D38*
%TO.P,J2,2,Pin_2_2*%
%TO.N,GND*%
X261550000Y-122500000D03*
%TD*%
D32*
%TO.P,J5,1,Pin_1_1*%
%TO.N,+BATT*%
X256800000Y-96500000D03*
D30*
%TO.P,J5,2,Pin_2_2*%
%TO.N,Net-(D10-A)*%
X261000000Y-96500000D03*
%TD*%
D39*
%TO.P,U3,1,CLKIN_1*%
%TO.N,GND*%
X245500000Y-119500000D03*
%TO.P,U3,2,NC_2*%
%TO.N,unconnected-(U3-NC-Pad2)*%
X245500000Y-119000000D03*
%TO.P,U3,3,NC_3*%
%TO.N,unconnected-(U3-NC-Pad3)*%
X245500000Y-118500000D03*
%TO.P,U3,4,NC_4*%
%TO.N,unconnected-(U3-NC-Pad4)*%
X245500000Y-118000000D03*
%TO.P,U3,5,NC_5*%
%TO.N,unconnected-(U3-NC-Pad5)*%
X245500000Y-117500000D03*
%TO.P,U3,6,AUX_DA_6*%
%TO.N,unconnected-(U3-AUX_DA-Pad6)*%
X245500000Y-117000000D03*
D40*
%TO.P,U3,7,AUX_CL_7*%
%TO.N,unconnected-(U3-AUX_CL-Pad7)*%
X244800000Y-116300000D03*
%TO.P,U3,8,VLOGIC_8*%
%TO.N,+3.3V*%
X244300000Y-116300000D03*
%TO.P,U3,9,AD0_9*%
%TO.N,GND*%
X243800000Y-116300000D03*
%TO.P,U3,10,REGOUT_10*%
%TO.N,Net-(U3-REGOUT)*%
X243300000Y-116300000D03*
%TO.P,U3,11,FSYNC_11*%
%TO.N,GND*%
X242800000Y-116300000D03*
%TO.P,U3,12,INT_12*%
%TO.N,/MPU_INT*%
X242300000Y-116300000D03*
D39*
%TO.P,U3,13,VDD_13*%
%TO.N,+3.3V*%
X241600000Y-117000000D03*
%TO.P,U3,14,NC_14*%
%TO.N,unconnected-(U3-NC-Pad14)*%
X241600000Y-117500000D03*
%TO.P,U3,15,NC_15*%
%TO.N,unconnected-(U3-NC-Pad15)*%
X241600000Y-118000000D03*
%TO.P,U3,16,NC_16*%
%TO.N,unconnected-(U3-NC-Pad16)*%
X241600000Y-118500000D03*
%TO.P,U3,17,NC_17*%
%TO.N,unconnected-(U3-NC-Pad17)*%
X241600000Y-119000000D03*
%TO.P,U3,18,GND_18*%
%TO.N,GND*%
X241600000Y-119500000D03*
D40*
%TO.P,U3,19,RESV_19*%
%TO.N,unconnected-(U3-RESV-Pad19)*%
X242300000Y-120200000D03*
%TO.P,U3,20,CPOUT_20*%
%TO.N,Net-(U3-CPOUT)*%
X242800000Y-120200000D03*
%TO.P,U3,21,RESV_21*%
%TO.N,unconnected-(U3-RESV-Pad21)*%
X243300000Y-120200000D03*
%TO.P,U3,22,RESV_22*%
%TO.N,unconnected-(U3-RESV-Pad22)*%
X243800000Y-120200000D03*
%TO.P,U3,23,SCL_23*%
%TO.N,/SCL*%
X244300000Y-120200000D03*
%TO.P,U3,24,SDA_24*%
%TO.N,/SDA*%
X244800000Y-120200000D03*
%TD*%
D41*
%TO.P,Q2,1,B_1*%
%TO.N,Net-(Q2-B)*%
X220725000Y-119500000D03*
%TO.P,Q2,2,E_2*%
%TO.N,/RTS*%
X222625000Y-119500000D03*
%TO.P,Q2,3,C_3*%
%TO.N,/ESP32_EN*%
X221675000Y-117625000D03*
%TD*%
D22*
%TO.P,R10,1*%
%TO.N,Net-(U2-TXD)*%
X232500000Y-117175000D03*
%TO.P,R10,2*%
%TO.N,/ESP32_RX*%
X232500000Y-118825000D03*
%TD*%
D16*
%TO.P,C3,1*%
%TO.N,+3.3V*%
X256500000Y-113550000D03*
%TO.P,C3,2*%
%TO.N,GND*%
X256500000Y-115450000D03*
%TD*%
D42*
%TO.P,U1,1,IN_1*%
%TO.N,/VIN*%
X253450000Y-111362500D03*
%TO.P,U1,2,GND_2*%
%TO.N,GND*%
X252500000Y-111362500D03*
%TO.P,U1,3,EN_3*%
%TO.N,/LDO_EN*%
X251550000Y-111362500D03*
%TO.P,U1,4,BP_4*%
%TO.N,Net-(U1-BP)*%
X251550000Y-113637500D03*
%TO.P,U1,5,OUT_5*%
%TO.N,+3.3V*%
X253450000Y-113637500D03*
%TD*%
D17*
%TO.P,C14,1*%
%TO.N,+BATT*%
X227000000Y-133950000D03*
%TO.P,C14,2*%
%TO.N,Net-(D9-A)*%
X227000000Y-132050000D03*
%TD*%
D31*
%TO.P,C15,1*%
%TO.N,+BATT*%
X259600000Y-103500000D03*
%TO.P,C15,2*%
%TO.N,Net-(D10-A)*%
X261500000Y-103500000D03*
%TD*%
D43*
%TO.P,Q7,1,G_1*%
%TO.N,Net-(Q7-G)*%
X235000000Y-98000000D03*
%TO.P,Q7,2,S_2*%
%TO.N,GND*%
X235000000Y-96100000D03*
%TO.P,Q7,3,D_3*%
%TO.N,Net-(D11-A)*%
X233125000Y-97050000D03*
%TD*%
D25*
%TO.P,R15,1*%
%TO.N,/SCL*%
X232000000Y-141075000D03*
%TO.P,R15,2*%
%TO.N,+3.3V*%
X232000000Y-139425000D03*
%TD*%
%TO.P,R24,1*%
%TO.N,/PWM3*%
X264000000Y-107325000D03*
%TO.P,R24,2*%
%TO.N,Net-(Q6-G)*%
X264000000Y-105675000D03*
%TD*%
%TO.P,R29,1*%
%TO.N,/ESP32_IO0*%
X232000000Y-126825000D03*
%TO.P,R29,2*%
%TO.N,+3.3V*%
X232000000Y-125175000D03*
%TD*%
D44*
%TO.P,D1,1,K_1*%
%TO.N,/VIN*%
X240872500Y-106500000D03*
%TO.P,D1,2,A_2*%
%TO.N,VBUS*%
X245172500Y-106500000D03*
%TD*%
D45*
%TO.P,SW1,1,A_1*%
%TO.N,/VIN*%
X262750000Y-117000000D03*
%TO.P,SW1,2,B_2*%
%TO.N,/LDO_EN*%
X262750000Y-114500000D03*
%TO.P,SW1,3,C_3*%
%TO.N,Net-(SW1-C)*%
X262750000Y-112000000D03*
%TD*%
D24*
%TO.P,R7,1*%
%TO.N,Net-(U2-VDD)*%
X225675000Y-109000000D03*
%TO.P,R7,2*%
%TO.N,Net-(U2-~{RST})*%
X227325000Y-109000000D03*
%TD*%
%TO.P,R3,1*%
%TO.N,VBUS*%
X245175000Y-110500000D03*
%TO.P,R3,2*%
%TO.N,GND*%
X246825000Y-110500000D03*
%TD*%
D28*
%TO.P,D10,1,K_1*%
%TO.N,+BATT*%
X256900000Y-100000000D03*
%TO.P,D10,2,A_2*%
%TO.N,Net-(D10-A)*%
X260900000Y-100000000D03*
%TD*%
D15*
%TO.P,C5,1*%
%TO.N,Net-(U2-VDD)*%
X232950000Y-107000000D03*
%TO.P,C5,2*%
%TO.N,GND*%
X231050000Y-107000000D03*
%TD*%
D25*
%TO.P,R20,1*%
%TO.N,/PWM1*%
X254000000Y-126125000D03*
%TO.P,R20,2*%
%TO.N,Net-(Q4-G)*%
X254000000Y-124475000D03*
%TD*%
D22*
%TO.P,R30,1*%
%TO.N,Net-(J1-CC1)*%
X248000000Y-104675000D03*
%TO.P,R30,2*%
%TO.N,GND*%
X248000000Y-106325000D03*
%TD*%
D41*
%TO.P,Q1,1,G_1*%
%TO.N,VBUS*%
X256550000Y-107437500D03*
%TO.P,Q1,2,S_2*%
%TO.N,/VIN*%
X258450000Y-107437500D03*
%TO.P,Q1,3,D_3*%
%TO.N,+BATT*%
X257500000Y-105562500D03*
%TD*%
D46*
%TO.P,J1,A1,GND_A1*%
%TO.N,GND*%
X246250000Y-102695000D03*
%TO.P,J1,A4,VBUS_A4*%
%TO.N,VBUS*%
X245450000Y-102695000D03*
D47*
%TO.P,J1,A5,CC1_A5*%
%TO.N,Net-(J1-CC1)*%
X244250000Y-102695000D03*
%TO.P,J1,A6,D+_A6*%
%TO.N,/USB_DP*%
X243250000Y-102695000D03*
%TO.P,J1,A7,D-_A7*%
%TO.N,/USB_DN*%
X242750000Y-102695000D03*
%TO.P,J1,A8,SBU1_A8*%
%TO.N,unconnected-(J1-SBU1-PadA8)*%
X241750000Y-102695000D03*
D46*
%TO.P,J1,A9,VBUS_A9*%
%TO.N,VBUS*%
X240550000Y-102695000D03*
%TO.P,J1,A12,GND_A12*%
%TO.N,GND*%
X239750000Y-102695000D03*
%TO.P,J1,B1,GND_B1*%
X239750000Y-102695000D03*
%TO.P,J1,B4,VBUS_B4*%
%TO.N,VBUS*%
X240550000Y-102695000D03*
D47*
%TO.P,J1,B5,CC2_B5*%
%TO.N,Net-(J1-CC2)*%
X241250000Y-102695000D03*
%TO.P,J1,B6,D+_B6*%
%TO.N,/USB_DP*%
X242250000Y-102695000D03*
%TO.P,J1,B7,D-_B7*%
%TO.N,/USB_DN*%
X243750000Y-102695000D03*
%TO.P,J1,B8,SBU2_B8*%
%TO.N,unconnected-(J1-SBU2-PadB8)*%
X244750000Y-102695000D03*
D46*
%TO.P,J1,B9,VBUS_B9*%
%TO.N,VBUS*%
X245450000Y-102695000D03*
%TO.P,J1,B12,GND_B12*%
%TO.N,GND*%
X246250000Y-102695000D03*
D48*
%TO.P,J1,SH,SHIELD_SH*%
X247320000Y-101780000D03*
D49*
X247320000Y-97600000D03*
D48*
X238680000Y-101780000D03*
D49*
X238680000Y-97600000D03*
%TD*%
D31*
%TO.P,C13,1*%
%TO.N,+BATT*%
X257050000Y-132000000D03*
%TO.P,C13,2*%
%TO.N,Net-(D8-A)*%
X258950000Y-132000000D03*
%TD*%
D24*
%TO.P,R26,1*%
%TO.N,/PWM4*%
X233350000Y-100000000D03*
%TO.P,R26,2*%
%TO.N,Net-(Q7-G)*%
X235000000Y-100000000D03*
%TD*%
D31*
%TO.P,C16,1*%
%TO.N,+BATT*%
X225050000Y-103000000D03*
%TO.P,C16,2*%
%TO.N,Net-(D11-A)*%
X226950000Y-103000000D03*
%TD*%
D22*
%TO.P,R28,1*%
%TO.N,/ESP32_EN*%
X258000000Y-137675000D03*
%TO.P,R28,2*%
%TO.N,+3.3V*%
X258000000Y-139325000D03*
%TD*%
D24*
%TO.P,R18,1*%
%TO.N,Net-(D2-A)*%
X252500000Y-97300000D03*
%TO.P,R18,2*%
%TO.N,Net-(U5-~{CHRG})*%
X254150000Y-97300000D03*
%TD*%
D27*
%TO.P,Q4,1,G_1*%
%TO.N,Net-(Q4-G)*%
X260825000Y-128550000D03*
%TO.P,Q4,2,S_2*%
%TO.N,GND*%
X260825000Y-130450000D03*
%TO.P,Q4,3,D_3*%
%TO.N,Net-(D8-A)*%
X262700000Y-129500000D03*
%TD*%
D23*
%TO.P,R9,1*%
%TO.N,Net-(U2-VBUS)*%
X227325000Y-111000000D03*
%TO.P,R9,2*%
%TO.N,GND*%
X225675000Y-111000000D03*
%TD*%
D41*
%TO.P,Q6,1,G_1*%
%TO.N,Net-(Q6-G)*%
X264050000Y-102937500D03*
%TO.P,Q6,2,S_2*%
%TO.N,GND*%
X265950000Y-102937500D03*
%TO.P,Q6,3,D_3*%
%TO.N,Net-(D10-A)*%
X265000000Y-101062500D03*
%TD*%
D31*
%TO.P,C9,1*%
%TO.N,/ESP32_EN*%
X254100000Y-138500000D03*
%TO.P,C9,2*%
%TO.N,GND*%
X256000000Y-138500000D03*
%TD*%
D29*
%TO.P,J3,1,Pin_1_1*%
%TO.N,+BATT*%
X265900000Y-137800000D03*
D30*
%TO.P,J3,2,Pin_2_2*%
%TO.N,Net-(D8-A)*%
X265900000Y-133600000D03*
%TD*%
D25*
%TO.P,R25,1*%
%TO.N,GND*%
X261500000Y-109650000D03*
%TO.P,R25,2*%
%TO.N,Net-(Q6-G)*%
X261500000Y-108000000D03*
%TD*%
D22*
%TO.P,R13,1*%
%TO.N,/RTS*%
X223000000Y-124254167D03*
%TO.P,R13,2*%
%TO.N,Net-(Q3-B)*%
X223000000Y-125904167D03*
%TD*%
D50*
%TO.N,GND*%
X266000000Y-104400000D03*
D51*
X235500000Y-143500000D03*
X244100000Y-114000000D03*
%TO.N,/MPU_INT*%
X235675000Y-127600000D03*
X231000000Y-123625000D03*
%TO.N,+3.3V*%
X247000000Y-123800000D03*
X249100000Y-127900000D03*
%TO.N,/SDA*%
X235400000Y-137100000D03*
X237900000Y-137200000D03*
X243000000Y-127200000D03*
X246100000Y-121000000D03*
%TO.N,/SCL*%
X244300000Y-124200000D03*
X244300000Y-127300000D03*
%TO.N,/ESP32_RX*%
X234900000Y-122400000D03*
X232500000Y-120000000D03*
%TO.N,/ESP32_TX*%
X231400000Y-121700000D03*
X235900000Y-125400000D03*
%TO.N,Net-(Q4-G)*%
X255200000Y-125900000D03*
X256300000Y-127125000D03*
D50*
%TO.N,GND*%
X259500000Y-130400000D03*
%TO.N,+BATT*%
X258300000Y-128300000D03*
X228300000Y-135000000D03*
X221200000Y-113900000D03*
X227200000Y-113400000D03*
X260500000Y-106300000D03*
X258400000Y-122100000D03*
D51*
%TO.N,+3.3V*%
X239400000Y-120900000D03*
X245100000Y-121800000D03*
X230500000Y-127750000D03*
X230500000Y-126000000D03*
%TO.N,/PWM2*%
X227500000Y-142500000D03*
X247440000Y-141625000D03*
D50*
%TO.N,GND*%
X228900000Y-139700000D03*
D51*
%TO.N,/ESP32_EN*%
X250500000Y-141000000D03*
X223000000Y-117000000D03*
%TO.N,/DTR*%
X223625000Y-123000000D03*
X222375000Y-123000000D03*
%TO.N,GND*%
X248500000Y-124500000D03*
X256500000Y-136000000D03*
X256000000Y-139500000D03*
X257500000Y-143000000D03*
X238500000Y-119000000D03*
X246550000Y-119750000D03*
%TO.N,Net-(U2-VDD)*%
X229000000Y-106500000D03*
X225000000Y-109000000D03*
%TO.N,/PWM4*%
X238500000Y-124500000D03*
X232000000Y-100000000D03*
%TO.N,GND*%
X224500000Y-111000000D03*
%TO.N,Net-(U2-VDD)*%
X235200000Y-107000000D03*
X233500000Y-107000000D03*
%TO.N,GND*%
X232000000Y-112000000D03*
X233500000Y-103000000D03*
X230000000Y-107000000D03*
X255500000Y-124500000D03*
%TO.N,/USB_DN*%
X240000000Y-108500000D03*
X243500000Y-108000000D03*
%TO.N,/USB_DP*%
X240000000Y-109500000D03*
X241602460Y-109333424D03*
%TO.N,VBUS*%
X244500000Y-104000000D03*
X240469535Y-103969535D03*
%TO.N,GND*%
X238500000Y-107500000D03*
X248000000Y-107000000D03*
X247000000Y-109500000D03*
X240150000Y-114300000D03*
X243000000Y-109000000D03*
X262500000Y-109500000D03*
X252500000Y-110000000D03*
X256500000Y-116500000D03*
X253500000Y-117500000D03*
%TD*%
%TO.N,Net-(U5-~{CHRG})*%
D52*
X252876276Y-98200000D02*
X251800000Y-98200000D01*
X253001276Y-98075000D02*
X252876276Y-98200000D01*
X251040000Y-98960000D02*
X251040000Y-99925000D01*
X253075000Y-98075000D02*
X253001276Y-98075000D01*
X254150000Y-97000000D02*
X253075000Y-98075000D01*
X251800000Y-98200000D02*
X251040000Y-98960000D01*
%TO.N,Net-(U5-~{STDBY})*%
X252310000Y-98950001D02*
X252310000Y-99925000D01*
X252560001Y-98700000D02*
X252310000Y-98950001D01*
X253012672Y-98700000D02*
X252560001Y-98700000D01*
X253187672Y-98525000D02*
X253012672Y-98700000D01*
X253973664Y-98526336D02*
X253972328Y-98525000D01*
X253972328Y-98525000D02*
X253187672Y-98525000D01*
X254573004Y-98100000D02*
X254400000Y-98100000D01*
X254400000Y-98100000D02*
X253973664Y-98526336D01*
X254875000Y-97798004D02*
X254573004Y-98100000D01*
X254875000Y-96225000D02*
X254875000Y-97798004D01*
X254150000Y-95500000D02*
X254875000Y-96225000D01*
%TO.N,GND*%
D53*
X266000000Y-104400000D02*
X266000000Y-102987500D01*
X266000000Y-102987500D02*
X265950000Y-102937500D01*
%TO.N,+BATT*%
X228300000Y-135000000D02*
X227000000Y-135000000D01*
X256500000Y-130100000D02*
X258300000Y-128300000D01*
X256500000Y-131450000D02*
X256500000Y-130100000D01*
X257050000Y-132000000D02*
X256500000Y-131450000D01*
X260500000Y-137200000D02*
X257300000Y-134000000D01*
X257300000Y-134000000D02*
X255825000Y-134000000D01*
X261700000Y-137200000D02*
X260500000Y-137200000D01*
X262500000Y-138000000D02*
X261700000Y-137200000D01*
%TO.N,/VIN*%
D52*
X253662500Y-111362500D02*
X253700000Y-111400000D01*
X253700000Y-111400000D02*
X254487500Y-111400000D01*
X253450000Y-111362500D02*
X253662500Y-111362500D01*
X254487500Y-111400000D02*
X258450000Y-107437500D01*
%TO.N,GND*%
X243800000Y-114300000D02*
X244100000Y-114000000D01*
X243800000Y-116300000D02*
X243800000Y-114300000D01*
%TO.N,+3.3V*%
D54*
X245000000Y-114700000D02*
X244500000Y-115200000D01*
X248500000Y-117100000D02*
X248500000Y-115700000D01*
X248500000Y-115700000D02*
X247500000Y-114700000D01*
X250000000Y-118500000D02*
X249900000Y-118500000D01*
X249900000Y-118500000D02*
X248500000Y-117100000D01*
X247500000Y-114700000D02*
X245000000Y-114700000D01*
X244500000Y-115200000D02*
X244500000Y-115400000D01*
%TO.N,Net-(U3-REGOUT)*%
D52*
X243150000Y-114300000D02*
X242950000Y-114100000D01*
X242900000Y-115270840D02*
X242900000Y-114550000D01*
X243250000Y-115757236D02*
X243250000Y-115620840D01*
X243250000Y-115620840D02*
X242900000Y-115270840D01*
X242900000Y-114550000D02*
X243150000Y-114300000D01*
X243275000Y-115782236D02*
X243250000Y-115757236D01*
X243275000Y-116275000D02*
X243275000Y-115782236D01*
X243300000Y-116300000D02*
X243275000Y-116275000D01*
%TO.N,GND*%
D55*
X228062500Y-139437500D02*
X228062500Y-138700000D01*
X228325000Y-139700000D02*
X228062500Y-139437500D01*
X228900000Y-139700000D02*
X228325000Y-139700000D01*
%TO.N,+3.3V*%
D54*
X230900000Y-136545492D02*
X230900000Y-128150000D01*
X232000000Y-137645492D02*
X230900000Y-136545492D01*
X230900000Y-128150000D02*
X230500000Y-127750000D01*
X232000000Y-139425000D02*
X232000000Y-137645492D01*
%TO.N,/MPU_INT*%
D52*
X242175000Y-116175000D02*
X242300000Y-116300000D01*
X238716116Y-116175000D02*
X242175000Y-116175000D01*
X231266116Y-123625000D02*
X238716116Y-116175000D01*
X231000000Y-123625000D02*
X231266116Y-123625000D01*
X235675000Y-130025000D02*
X235675000Y-127600000D01*
X234895000Y-130805000D02*
X235675000Y-130025000D01*
X234250000Y-130805000D02*
X234895000Y-130805000D01*
%TO.N,+3.3V*%
D54*
X247000000Y-122100000D02*
X246700000Y-121800000D01*
X247000000Y-123800000D02*
X247000000Y-122100000D01*
X250603629Y-142235000D02*
X249100000Y-140731371D01*
X251750000Y-142235000D02*
X250603629Y-142235000D01*
X249100000Y-140731371D02*
X249100000Y-127900000D01*
%TO.N,/SDA*%
D52*
X235400000Y-137100000D02*
X234305000Y-137100000D01*
X239100000Y-137200000D02*
X237900000Y-137200000D01*
X240500000Y-135800000D02*
X239100000Y-137200000D01*
X240500000Y-132500000D02*
X240500000Y-135800000D01*
X234305000Y-137100000D02*
X234250000Y-137155000D01*
X243000000Y-127200000D02*
X243000000Y-130000000D01*
X243000000Y-130000000D02*
X240500000Y-132500000D01*
X245300000Y-120200000D02*
X246100000Y-121000000D01*
X244800000Y-120200000D02*
X245300000Y-120200000D01*
%TO.N,/SCL*%
X244300000Y-124200000D02*
X244300000Y-120200000D01*
X242100000Y-139200000D02*
X242100000Y-132800000D01*
X244300000Y-130600000D02*
X244300000Y-127300000D01*
X240335000Y-140965000D02*
X242100000Y-139200000D01*
X234250000Y-140965000D02*
X240335000Y-140965000D01*
X242100000Y-132800000D02*
X244300000Y-130600000D01*
%TO.N,/ESP32_RX*%
X235250000Y-138425000D02*
X234250000Y-138425000D01*
X236300000Y-137375000D02*
X235250000Y-138425000D01*
X234900000Y-125836396D02*
X236300000Y-127236396D01*
X234900000Y-122400000D02*
X234900000Y-125836396D01*
X236300000Y-127236396D02*
X236300000Y-137375000D01*
%TO.N,/ESP32_TX*%
X235200000Y-139800000D02*
X234355000Y-139800000D01*
X235900000Y-126200000D02*
X237100000Y-127400000D01*
X235900000Y-125400000D02*
X235900000Y-126200000D01*
X237100000Y-137900000D02*
X235200000Y-139800000D01*
X234355000Y-139800000D02*
X234250000Y-139695000D01*
X237100000Y-127400000D02*
X237100000Y-137900000D01*
%TO.N,/ESP32_RX*%
X232500000Y-118825000D02*
X232500000Y-120000000D01*
%TO.N,/ESP32_TX*%
X231000000Y-121300000D02*
X231400000Y-121700000D01*
X231000000Y-118825000D02*
X231000000Y-121300000D01*
%TO.N,Net-(Q4-G)*%
X255200000Y-125675000D02*
X254000000Y-124475000D01*
X255200000Y-125900000D02*
X255200000Y-125675000D01*
X259400000Y-127125000D02*
X256300000Y-127125000D01*
X260825000Y-128550000D02*
X259400000Y-127125000D01*
X252525000Y-123000000D02*
X254000000Y-124475000D01*
X251925000Y-123000000D02*
X252525000Y-123000000D01*
%TO.N,GND*%
X250275000Y-123000000D02*
X250000000Y-123000000D01*
X250000000Y-123000000D02*
X248500000Y-124500000D01*
%TO.N,/PWM1*%
X254000000Y-126125000D02*
X252620000Y-126125000D01*
X252620000Y-126125000D02*
X251750000Y-126995000D01*
%TO.N,GND*%
X259550000Y-130450000D02*
X259500000Y-130400000D01*
D55*
X260825000Y-130450000D02*
X259550000Y-130450000D01*
%TO.N,Net-(D8-A)*%
D52*
X262700000Y-133800000D02*
X262500000Y-134000000D01*
D53*
X262700000Y-129500000D02*
X262700000Y-133800000D01*
D55*
X260950000Y-134000000D02*
X258950000Y-132000000D01*
D53*
X262500000Y-134000000D02*
X260950000Y-134000000D01*
%TO.N,+BATT*%
X255825000Y-133225000D02*
X257050000Y-132000000D01*
X255825000Y-134000000D02*
X255825000Y-133225000D01*
X221200000Y-110700000D02*
X221000000Y-110500000D01*
X221200000Y-113900000D02*
X221200000Y-110700000D01*
X223100000Y-103000000D02*
X225050000Y-103000000D01*
X221000000Y-105100000D02*
X223100000Y-103000000D01*
X221000000Y-110500000D02*
X221000000Y-105100000D01*
X223900000Y-113400000D02*
X221000000Y-110500000D01*
X227200000Y-113400000D02*
X223900000Y-113400000D01*
X259600000Y-105400000D02*
X259600000Y-103500000D01*
X260500000Y-106300000D02*
X259600000Y-105400000D01*
X258450000Y-122150000D02*
X258400000Y-122100000D01*
X258450000Y-124500000D02*
X258450000Y-122150000D01*
%TO.N,+3.3V*%
D54*
X237637500Y-119268871D02*
X237637500Y-118137500D01*
X239400000Y-120900000D02*
X239268629Y-120900000D01*
X237637500Y-118137500D02*
X238775000Y-117000000D01*
X239268629Y-120900000D02*
X237637500Y-119268871D01*
X246700000Y-121800000D02*
X245100000Y-121800000D01*
X250000000Y-118500000D02*
X246700000Y-121800000D01*
%TO.N,GND*%
D52*
X241292764Y-114300000D02*
X241250000Y-114300000D01*
X242800000Y-115807236D02*
X241292764Y-114300000D01*
X242800000Y-116300000D02*
X242800000Y-115807236D01*
%TO.N,+3.3V*%
D54*
X254300000Y-118500000D02*
X250000000Y-118500000D01*
X255100000Y-117700000D02*
X254300000Y-118500000D01*
X255100000Y-114950000D02*
X255100000Y-117700000D01*
X256500000Y-113550000D02*
X255100000Y-114950000D01*
X253537500Y-113550000D02*
X253450000Y-113637500D01*
X256500000Y-113550000D02*
X253537500Y-113550000D01*
X230825000Y-125175000D02*
X232000000Y-125175000D01*
X230500000Y-126000000D02*
X230500000Y-125500000D01*
X230500000Y-125500000D02*
X230825000Y-125175000D01*
%TO.N,/PWM2*%
D52*
X247440000Y-141625000D02*
X247440000Y-125745000D01*
X226325000Y-142500000D02*
X227500000Y-142500000D01*
%TO.N,+3.3V*%
D54*
X232000000Y-139425000D02*
X232000000Y-137825000D01*
%TO.N,/SDA*%
D52*
X232980000Y-137155000D02*
X234250000Y-137155000D01*
X232000000Y-136175000D02*
X232980000Y-137155000D01*
%TO.N,/SCL*%
X232035000Y-140965000D02*
X234250000Y-140965000D01*
X232000000Y-141000000D02*
X232035000Y-140965000D01*
X232000000Y-141075000D02*
X232000000Y-141000000D01*
%TO.N,Net-(D9-A)*%
D55*
X228550000Y-132050000D02*
X227000000Y-132050000D01*
D56*
X229937500Y-133437500D02*
X228550000Y-132050000D01*
X229937500Y-137750000D02*
X229937500Y-133437500D01*
%TO.N,Net-(Q5-G)*%
D52*
X224675000Y-140500000D02*
X224675000Y-142500000D01*
%TO.N,GND*%
X226325000Y-140437500D02*
X228062500Y-138700000D01*
X226325000Y-140500000D02*
X226325000Y-140437500D01*
%TO.N,Net-(Q5-G)*%
X224675000Y-140500000D02*
X224675000Y-140187500D01*
X224675000Y-140187500D02*
X228062500Y-136800000D01*
%TO.N,+BATT*%
D53*
X227000000Y-135000000D02*
X227000000Y-133950000D01*
X224000000Y-138000000D02*
X227000000Y-135000000D01*
%TO.N,Net-(D9-A)*%
X224000000Y-132500000D02*
X224000000Y-134000000D01*
X224450000Y-132050000D02*
X224000000Y-132500000D01*
X227000000Y-132050000D02*
X224450000Y-132050000D01*
%TO.N,/ESP32_EN*%
D52*
X250500000Y-141000000D02*
X251715000Y-141000000D01*
X222375000Y-117625000D02*
X223000000Y-117000000D01*
X221675000Y-117625000D02*
X222375000Y-117625000D01*
X251715000Y-141000000D02*
X251750000Y-140965000D01*
%TO.N,/DTR*%
X233450000Y-120450000D02*
X233450000Y-114450000D01*
X233500000Y-120500000D02*
X233450000Y-120450000D01*
X231000000Y-123000000D02*
X233500000Y-120500000D01*
X223625000Y-123000000D02*
X231000000Y-123000000D01*
X222245833Y-122870833D02*
X222375000Y-123000000D01*
X220500000Y-122870833D02*
X222245833Y-122870833D01*
%TO.N,/RTS*%
X231450000Y-114899740D02*
X231450000Y-114450000D01*
X226849740Y-119500000D02*
X231450000Y-114899740D01*
X222625000Y-119500000D02*
X226849740Y-119500000D01*
%TO.N,/ESP32_IO0*%
X226175000Y-126825000D02*
X232000000Y-126825000D01*
X221675000Y-129500000D02*
X223500000Y-129500000D01*
X223500000Y-129500000D02*
X226175000Y-126825000D01*
%TO.N,/RTS*%
X223000000Y-124254167D02*
X223000000Y-119875000D01*
X223000000Y-119875000D02*
X222625000Y-119500000D01*
%TO.N,Net-(Q2-B)*%
X220500000Y-119725000D02*
X220725000Y-119500000D01*
X220500000Y-121220833D02*
X220500000Y-119725000D01*
%TO.N,/DTR*%
X220500000Y-122870833D02*
X220500000Y-127400000D01*
X220500000Y-127400000D02*
X220725000Y-127625000D01*
%TO.N,Net-(Q3-B)*%
X223000000Y-127250000D02*
X222625000Y-127625000D01*
X223000000Y-125904167D02*
X223000000Y-127250000D01*
%TO.N,Net-(D9-A)*%
X223900000Y-133900000D02*
X224000000Y-134000000D01*
D53*
X220000000Y-133900000D02*
X223900000Y-133900000D01*
%TO.N,+BATT*%
X223900000Y-138100000D02*
X224000000Y-138000000D01*
X220000000Y-138100000D02*
X223900000Y-138100000D01*
%TO.N,Net-(D8-A)*%
D52*
X262600000Y-133900000D02*
X262500000Y-134000000D01*
D53*
X266000000Y-133900000D02*
X262600000Y-133900000D01*
%TO.N,+BATT*%
X262600000Y-138100000D02*
X262500000Y-138000000D01*
X266000000Y-138100000D02*
X262600000Y-138100000D01*
%TO.N,GND*%
D52*
X248710000Y-124710000D02*
X248500000Y-124500000D01*
X248710000Y-125745000D02*
X248710000Y-124710000D01*
%TO.N,/ESP32_IO0*%
X234080000Y-126825000D02*
X234250000Y-126995000D01*
X232000000Y-126825000D02*
X234080000Y-126825000D01*
%TO.N,+3.3V*%
D54*
X232000000Y-123775000D02*
X237637500Y-118137500D01*
X238775000Y-117000000D02*
X239500000Y-117000000D01*
X232000000Y-125175000D02*
X232000000Y-123775000D01*
%TO.N,GND*%
D52*
X241050000Y-120050000D02*
X241600000Y-119500000D01*
X241050000Y-122250000D02*
X241050000Y-120050000D01*
X240800000Y-122500000D02*
X241050000Y-122250000D01*
X238825000Y-122500000D02*
X240800000Y-122500000D01*
%TO.N,Net-(U4-IO2)*%
X237175000Y-125640000D02*
X237280000Y-125745000D01*
X237175000Y-122500000D02*
X237175000Y-125640000D01*
%TO.N,+3.3V*%
D54*
X258000000Y-139500000D02*
X256500000Y-141000000D01*
X258000000Y-139325000D02*
X258000000Y-139500000D01*
%TO.N,GND*%
D52*
X255825000Y-136000000D02*
X256500000Y-136000000D01*
%TO.N,/ESP32_EN*%
X255150000Y-137450000D02*
X254100000Y-138500000D01*
X257775000Y-137450000D02*
X255150000Y-137450000D01*
X258000000Y-137675000D02*
X257775000Y-137450000D01*
%TO.N,GND*%
X255825000Y-138325000D02*
X256000000Y-138500000D01*
%TO.N,/ADC_BAT*%
X254175000Y-136000000D02*
X252790000Y-134615000D01*
X252790000Y-134615000D02*
X251750000Y-134615000D01*
X254175000Y-134000000D02*
X254175000Y-136000000D01*
%TO.N,GND*%
X256000000Y-138500000D02*
X256000000Y-139500000D01*
%TO.N,/ESP32_EN*%
X252360000Y-140965000D02*
X251750000Y-140965000D01*
X254100000Y-139225000D02*
X252360000Y-140965000D01*
X254100000Y-138500000D02*
X254100000Y-139225000D01*
%TO.N,GND*%
X257400000Y-142900000D02*
X257500000Y-143000000D01*
X256500000Y-142900000D02*
X257400000Y-142900000D01*
X254600000Y-142900000D02*
X256500000Y-142900000D01*
X254500000Y-143000000D02*
X254600000Y-142900000D01*
X254000000Y-143000000D02*
X254500000Y-143000000D01*
X253495000Y-143505000D02*
X254000000Y-143000000D01*
X251750000Y-143505000D02*
X253495000Y-143505000D01*
%TO.N,+3.3V*%
D54*
X256400000Y-141100000D02*
X256500000Y-141000000D01*
X254000000Y-141100000D02*
X256400000Y-141100000D01*
X252865000Y-142235000D02*
X251750000Y-142235000D01*
X254000000Y-141100000D02*
X252865000Y-142235000D01*
%TO.N,GND*%
D52*
X238600000Y-118900000D02*
X238500000Y-119000000D01*
X239500000Y-118900000D02*
X238600000Y-118900000D01*
X240100000Y-119500000D02*
X239500000Y-118900000D01*
X241600000Y-119500000D02*
X240100000Y-119500000D01*
%TO.N,+3.3V*%
D54*
X239650000Y-116850000D02*
X241600000Y-116850000D01*
X239500000Y-117000000D02*
X239650000Y-116850000D01*
%TO.N,Net-(U3-CPOUT)*%
D52*
X242800000Y-122100000D02*
X242800000Y-120200000D01*
X242950000Y-122250000D02*
X242800000Y-122100000D01*
%TO.N,GND*%
X246300000Y-119500000D02*
X246550000Y-119750000D01*
X245500000Y-119500000D02*
X246300000Y-119500000D01*
%TO.N,VBUS*%
D54*
X225675000Y-106912500D02*
X227587500Y-105000000D01*
X227587500Y-105000000D02*
X235257412Y-105000000D01*
X225675000Y-107000000D02*
X225675000Y-106912500D01*
X234400000Y-105857412D02*
X235257412Y-105000000D01*
X237513198Y-102744214D02*
X237680000Y-102744214D01*
X234400000Y-110375000D02*
X234400000Y-105857412D01*
X235257412Y-105000000D02*
X237513198Y-102744214D01*
%TO.N,Net-(U2-VDD)*%
D52*
X229550000Y-105950000D02*
X231900000Y-105950000D01*
X231900000Y-105950000D02*
X232950000Y-107000000D01*
X229000000Y-106500000D02*
X229550000Y-105950000D01*
X225675000Y-109000000D02*
X225000000Y-109000000D01*
%TO.N,/PWM4*%
X238500000Y-125695000D02*
X238550000Y-125745000D01*
X238500000Y-124500000D02*
X238500000Y-125695000D01*
X233350000Y-100000000D02*
X232000000Y-100000000D01*
%TO.N,Net-(U2-RXD)*%
X231950000Y-116225000D02*
X231950000Y-114450000D01*
X231000000Y-117175000D02*
X231950000Y-116225000D01*
%TO.N,Net-(U2-TXD)*%
X232500000Y-114500000D02*
X232450000Y-114450000D01*
X232500000Y-117175000D02*
X232500000Y-114500000D01*
%TO.N,GND*%
X225675000Y-111000000D02*
X224500000Y-111000000D01*
%TO.N,Net-(U2-VDD)*%
X235200000Y-107150000D02*
X236000000Y-107950000D01*
X235200000Y-107000000D02*
X235200000Y-107150000D01*
X232950000Y-107000000D02*
X233500000Y-107000000D01*
%TO.N,Net-(U2-VBUS)*%
X226600000Y-110275000D02*
X226600000Y-107725000D01*
X226600000Y-107725000D02*
X227325000Y-107000000D01*
X227325000Y-111000000D02*
X226600000Y-110275000D01*
%TO.N,Net-(U2-~{RST})*%
X232950000Y-109100260D02*
X232950000Y-109550000D01*
X230000000Y-108500000D02*
X232349740Y-108500000D01*
X232349740Y-108500000D02*
X232950000Y-109100260D01*
X229500000Y-109000000D02*
X230000000Y-108500000D01*
X227325000Y-109000000D02*
X229500000Y-109000000D01*
%TO.N,Net-(U2-VBUS)*%
X233450000Y-108500000D02*
X233450000Y-109550000D01*
X233000000Y-108050000D02*
X233450000Y-108500000D01*
X228550000Y-108050000D02*
X233000000Y-108050000D01*
X227500000Y-107000000D02*
X228550000Y-108050000D01*
X227325000Y-107000000D02*
X227500000Y-107000000D01*
%TO.N,GND*%
X232500000Y-112500000D02*
X232000000Y-112000000D01*
X234400000Y-112500000D02*
X232500000Y-112500000D01*
X231950000Y-112000000D02*
X232000000Y-112000000D01*
X233350000Y-102850000D02*
X233500000Y-103000000D01*
X233350000Y-102000000D02*
X233350000Y-102850000D01*
%TO.N,Net-(Q7-G)*%
X235000000Y-102000000D02*
X235000000Y-98000000D01*
%TO.N,GND*%
X231050000Y-107000000D02*
X230000000Y-107000000D01*
X238050000Y-106050000D02*
X238500000Y-106500000D01*
X236000000Y-106050000D02*
X238050000Y-106050000D01*
%TO.N,/USB_DN*%
D57*
X237000000Y-111500000D02*
X234400000Y-111500000D01*
X240000000Y-108500000D02*
X237000000Y-111500000D01*
%TO.N,/USB_DP*%
X237500000Y-112000000D02*
X234400000Y-112000000D01*
X240000000Y-109500000D02*
X237500000Y-112000000D01*
%TO.N,Net-(U2-VDD)*%
D52*
X234849740Y-111000000D02*
X234400000Y-111000000D01*
X236000000Y-109849740D02*
X234849740Y-111000000D01*
X236000000Y-107950000D02*
X236000000Y-109849740D01*
%TO.N,Net-(D11-A)*%
D53*
X229000000Y-102000000D02*
X229000000Y-100000000D01*
X226950000Y-103000000D02*
X228000000Y-103000000D01*
X228000000Y-103000000D02*
X229000000Y-102000000D01*
%TO.N,+BATT*%
X225000000Y-103000000D02*
X225000000Y-100000000D01*
X225050000Y-103000000D02*
X225000000Y-103000000D01*
X225000000Y-96700000D02*
X224800000Y-96500000D01*
X225000000Y-100000000D02*
X225000000Y-96700000D01*
%TO.N,Net-(D11-A)*%
X229000000Y-100000000D02*
X229000000Y-96500000D01*
X233125000Y-97050000D02*
X229550000Y-97050000D01*
D52*
X229550000Y-97050000D02*
X229000000Y-96500000D01*
%TO.N,GND*%
D53*
X237180000Y-96100000D02*
X238680000Y-97600000D01*
X235000000Y-96100000D02*
X237180000Y-96100000D01*
D52*
X249770000Y-103805000D02*
X250475000Y-103100000D01*
X249770000Y-104875000D02*
X249770000Y-103805000D01*
X252310000Y-103665000D02*
X252875000Y-103100000D01*
X252310000Y-104875000D02*
X252310000Y-103665000D01*
%TO.N,VBUS*%
D54*
X247172500Y-108500000D02*
X245172500Y-106500000D01*
X255487500Y-108500000D02*
X247172500Y-108500000D01*
X256550000Y-107437500D02*
X255487500Y-108500000D01*
X240173394Y-103920000D02*
X240550000Y-103543394D01*
X238855786Y-103920000D02*
X240173394Y-103920000D01*
X237680000Y-102744214D02*
X238855786Y-103920000D01*
X237680000Y-100815786D02*
X237680000Y-102744214D01*
X242995786Y-95500000D02*
X237680000Y-100815786D01*
X240550000Y-103543394D02*
X240550000Y-102695000D01*
X249425000Y-95500000D02*
X242995786Y-95500000D01*
%TO.N,+BATT*%
D53*
X253660000Y-100000000D02*
X253660000Y-99925000D01*
X256900000Y-100000000D02*
X253660000Y-100000000D01*
%TO.N,Net-(D3-A)*%
D52*
X251000000Y-95500000D02*
X252500000Y-95500000D01*
%TO.N,Net-(D2-A)*%
X251000000Y-97000000D02*
X252500000Y-97000000D01*
%TO.N,VBUS*%
D54*
X249425000Y-99580000D02*
X249770000Y-99925000D01*
X249425000Y-97000000D02*
X249425000Y-99580000D01*
X249425000Y-95500000D02*
X249425000Y-97000000D01*
%TO.N,Net-(D10-A)*%
D53*
X261000000Y-96500000D02*
X261000000Y-99900000D01*
D52*
X261000000Y-99900000D02*
X260900000Y-100000000D01*
D53*
X263937500Y-100000000D02*
X265000000Y-101062500D01*
X260900000Y-100000000D02*
X263937500Y-100000000D01*
%TO.N,Net-(Q6-G)*%
D52*
X263825000Y-105675000D02*
X264000000Y-105675000D01*
X261500000Y-108000000D02*
X263825000Y-105675000D01*
X264050000Y-105625000D02*
X264000000Y-105675000D01*
X264050000Y-102937500D02*
X264050000Y-105625000D01*
%TO.N,/PWM3*%
X264075000Y-107325000D02*
X267000000Y-110250000D01*
X264000000Y-107325000D02*
X264075000Y-107325000D01*
%TO.N,+BATT*%
D53*
X259600000Y-102700000D02*
X256900000Y-100000000D01*
X259600000Y-103500000D02*
X259600000Y-102700000D01*
%TO.N,Net-(D10-A)*%
D52*
X261500000Y-100600000D02*
X260900000Y-100000000D01*
D53*
X261500000Y-103500000D02*
X261500000Y-100600000D01*
D52*
X260900000Y-96600000D02*
X261000000Y-96500000D01*
%TO.N,+BATT*%
D53*
X256900000Y-96600000D02*
X256800000Y-96500000D01*
X256900000Y-100000000D02*
X256900000Y-96600000D01*
%TO.N,/PWM3*%
D52*
X265000000Y-126500000D02*
X255500000Y-126500000D01*
X267000000Y-124500000D02*
X265000000Y-126500000D01*
X267000000Y-110250000D02*
X267000000Y-124500000D01*
X255500000Y-126500000D02*
X253735000Y-128265000D01*
X253735000Y-128265000D02*
X251750000Y-128265000D01*
%TO.N,+3.3V*%
D54*
X257050000Y-113550000D02*
X256500000Y-113550000D01*
%TO.N,GND*%
D52*
X256550000Y-124500000D02*
X255500000Y-124500000D01*
%TO.N,+BATT*%
D53*
X261550000Y-124500000D02*
X258450000Y-124500000D01*
%TO.N,Net-(U5-PROG)*%
D52*
X251500000Y-105335000D02*
X251040000Y-104875000D01*
X251500000Y-107000000D02*
X251500000Y-105335000D01*
%TO.N,/USB_DN*%
D57*
X243750000Y-104750000D02*
X243500000Y-105000000D01*
X243750000Y-102695000D02*
X243750000Y-104750000D01*
X243500000Y-105000000D02*
X243500000Y-108000000D01*
%TO.N,/USB_DP*%
X242500000Y-108435884D02*
X241602460Y-109333424D01*
X242500000Y-105000000D02*
X242500000Y-108435884D01*
X242250000Y-102695000D02*
X242250000Y-104750000D01*
X242250000Y-104750000D02*
X242500000Y-105000000D01*
%TO.N,/USB_DN*%
X243750000Y-101937590D02*
X243750000Y-102695000D01*
X243482410Y-101670000D02*
X243750000Y-101937590D01*
X243017590Y-101670000D02*
X243482410Y-101670000D01*
X242750000Y-101937590D02*
X243017590Y-101670000D01*
X242750000Y-102695000D02*
X242750000Y-101937590D01*
%TO.N,/USB_DP*%
X243250000Y-103750000D02*
X243250000Y-102695000D01*
X243000000Y-104000000D02*
X243250000Y-103750000D01*
X242500000Y-104000000D02*
X243000000Y-104000000D01*
X242250000Y-103750000D02*
X242500000Y-104000000D01*
X242250000Y-102695000D02*
X242250000Y-103750000D01*
%TO.N,VBUS*%
D54*
X245450000Y-103535252D02*
X245450000Y-102695000D01*
X244985252Y-104000000D02*
X245450000Y-103535252D01*
X244500000Y-104000000D02*
X244985252Y-104000000D01*
X240550000Y-103889070D02*
X240469535Y-103969535D01*
X240550000Y-102695000D02*
X240550000Y-103889070D01*
%TO.N,Net-(J1-CC2)*%
D52*
X240472954Y-104850000D02*
X241250000Y-104072954D01*
X238500000Y-104850000D02*
X240472954Y-104850000D01*
X241250000Y-104072954D02*
X241250000Y-102695000D01*
%TO.N,GND*%
X238500000Y-106500000D02*
X238500000Y-107500000D01*
X239595000Y-102695000D02*
X238680000Y-101780000D01*
X239750000Y-102695000D02*
X239595000Y-102695000D01*
X246405000Y-102695000D02*
X247320000Y-101780000D01*
X246250000Y-102695000D02*
X246405000Y-102695000D01*
%TO.N,Net-(J1-CC1)*%
X247661726Y-100405000D02*
X245745051Y-100405000D01*
X248145000Y-100888274D02*
X247661726Y-100405000D01*
X245745051Y-100405000D02*
X244250000Y-101900051D01*
X244250000Y-101900051D02*
X244250000Y-102695000D01*
X248145000Y-104530000D02*
X248145000Y-100888274D01*
X248000000Y-104675000D02*
X248145000Y-104530000D01*
%TO.N,GND*%
X249850000Y-107000000D02*
X248000000Y-107000000D01*
X248000000Y-106325000D02*
X248000000Y-107000000D01*
X246825000Y-109675000D02*
X247000000Y-109500000D01*
X246825000Y-110500000D02*
X246825000Y-109675000D01*
X241250000Y-114300000D02*
X240150000Y-114300000D01*
X242950000Y-109050000D02*
X243000000Y-109000000D01*
X242950000Y-110500000D02*
X242950000Y-109050000D01*
%TO.N,/VIN*%
X248500000Y-112500000D02*
X243050000Y-112500000D01*
X243050000Y-112500000D02*
X241050000Y-110500000D01*
X251625000Y-109375000D02*
X248500000Y-112500000D01*
X253450000Y-110066116D02*
X252758884Y-109375000D01*
X252758884Y-109375000D02*
X251625000Y-109375000D01*
X253450000Y-111362500D02*
X253450000Y-110066116D01*
X264500000Y-114054900D02*
X264500000Y-115250000D01*
X263995100Y-113550000D02*
X264500000Y-114054900D01*
X258450000Y-111498004D02*
X260501996Y-113550000D01*
X260501996Y-113550000D02*
X263995100Y-113550000D01*
X258450000Y-107437500D02*
X258450000Y-111498004D01*
X264500000Y-115250000D02*
X262750000Y-117000000D01*
X262750000Y-117000000D02*
X262500000Y-117000000D01*
%TO.N,GND*%
X262350000Y-109650000D02*
X262500000Y-109500000D01*
X261500000Y-109650000D02*
X262350000Y-109650000D01*
X259650000Y-109650000D02*
X261500000Y-109650000D01*
X259500000Y-109500000D02*
X259650000Y-109650000D01*
X259500000Y-109675000D02*
X259500000Y-109500000D01*
%TO.N,Net-(SW1-C)*%
X262500000Y-112000000D02*
X261825000Y-111325000D01*
X262750000Y-112000000D02*
X262500000Y-112000000D01*
X261825000Y-111325000D02*
X259500000Y-111325000D01*
%TO.N,/LDO_EN*%
X258500000Y-112500000D02*
X260500000Y-114500000D01*
X251550000Y-112024999D02*
X252025001Y-112500000D01*
X252025001Y-112500000D02*
X258500000Y-112500000D01*
X251550000Y-111362500D02*
X251550000Y-112024999D01*
X260500000Y-114500000D02*
X262750000Y-114500000D01*
X251550000Y-111362500D02*
X251550000Y-111450000D01*
%TO.N,GND*%
X252500000Y-111362500D02*
X252500000Y-110000000D01*
%TO.N,/LDO_EN*%
X251550000Y-111450000D02*
X251500000Y-111500000D01*
%TO.N,GND*%
X256500000Y-115450000D02*
X256500000Y-116500000D01*
X253450000Y-117450000D02*
X253500000Y-117500000D01*
X253450000Y-116050000D02*
X253450000Y-117450000D01*
X253500000Y-116000000D02*
X253450000Y-116050000D01*
X253450000Y-116000000D02*
X253500000Y-116000000D01*
%TO.N,VBUS*%
D54*
X245172500Y-110497500D02*
X245175000Y-110500000D01*
X245172500Y-106500000D02*
X245172500Y-110497500D01*
%TO.N,/VIN*%
D52*
X240872500Y-110372500D02*
X240872500Y-106500000D01*
X241000000Y-110500000D02*
X240872500Y-110372500D01*
X241050000Y-110500000D02*
X241000000Y-110500000D01*
%TO.N,VBUS*%
D54*
X245450000Y-106222500D02*
X245450000Y-102695000D01*
X245172500Y-106500000D02*
X245450000Y-106222500D01*
X256550000Y-107437500D02*
X256142500Y-107437500D01*
X256142500Y-107437500D02*
X253580000Y-104875000D01*
%TO.N,+BATT*%
D53*
X257500000Y-100600000D02*
X256900000Y-100000000D01*
X257500000Y-105562500D02*
X257500000Y-100600000D01*
%TO.N,Net-(U1-BP)*%
D52*
X251550000Y-116000000D02*
X251550000Y-113637500D01*
%TO.N,GND*%
X234250000Y-143505000D02*
X235495000Y-143505000D01*
X235495000Y-143505000D02*
X235500000Y-143500000D01*
%TD*%
%TA.AperFunction,Conductor*%
%TO.N,+3.3V*%
G36*
X244443039Y-115019685D02*
G01*
X244488794Y-115072489D01*
X244500000Y-115124000D01*
X244500000Y-115753235D01*
X244493246Y-115776236D01*
X244490808Y-115800087D01*
X244483580Y-115809152D01*
X244480315Y-115820274D01*
X244479102Y-115822125D01*
X244465486Y-115842502D01*
X244465483Y-115842509D01*
X244449500Y-115922863D01*
X244449500Y-115922865D01*
X244449500Y-115922867D01*
X244449500Y-116176002D01*
X244446950Y-116184686D01*
X244448239Y-116193647D01*
X244437261Y-116217683D01*
X244429817Y-116243039D01*
X244422974Y-116248967D01*
X244419214Y-116257203D01*
X244396982Y-116271489D01*
X244377013Y-116288794D01*
X244366497Y-116291081D01*
X244360436Y-116294977D01*
X244325501Y-116300000D01*
X244274499Y-116300000D01*
X244207460Y-116280315D01*
X244161705Y-116227511D01*
X244150499Y-116176000D01*
X244150499Y-115922870D01*
X244150499Y-115922868D01*
X244134515Y-115842505D01*
X244134514Y-115842503D01*
X244132132Y-115830527D01*
X244133437Y-115830267D01*
X244127587Y-115818730D01*
X244125500Y-115796075D01*
X244125500Y-115124000D01*
X244145185Y-115056961D01*
X244197989Y-115011206D01*
X244249500Y-115000000D01*
X244376000Y-115000000D01*
X244443039Y-115019685D01*
G37*
%TD.AperFunction*%
%TD*%
M02*
