%TF.GenerationSoftware,KiCad,Pcbnew,10.0.2*%
%TF.CreationDate,2026-05-13T22:37:29+02:00*%
%TF.ProjectId,ESP32_Drone,45535033-325f-4447-926f-6e652e6b6963,rev?*%
%TF.SameCoordinates,Original*%
%TF.FileFunction,Legend,Top*%
%TF.FilePolarity,Positive*%
%FSLAX46Y46*%
G04 Gerber Fmt 4.6, Leading zero omitted, Abs format (unit mm)*
G04 Created by KiCad (PCBNEW 10.0.2) date 2026-05-13 22:37:29*
%MOMM*%
%LPD*%
G01*
G04 APERTURE LIST*
%ADD10C,0.100000*%
%ADD11C,0.150000*%
%ADD12C,0.120000*%
G04 APERTURE END LIST*
D10*
X219303104Y-102956265D02*
X220103104Y-102956265D01*
X219798342Y-102956265D02*
X219836438Y-103032455D01*
X219836438Y-103032455D02*
X219836438Y-103184836D01*
X219836438Y-103184836D02*
X219798342Y-103261027D01*
X219798342Y-103261027D02*
X219760247Y-103299122D01*
X219760247Y-103299122D02*
X219684057Y-103337217D01*
X219684057Y-103337217D02*
X219455485Y-103337217D01*
X219455485Y-103337217D02*
X219379295Y-103299122D01*
X219379295Y-103299122D02*
X219341200Y-103261027D01*
X219341200Y-103261027D02*
X219303104Y-103184836D01*
X219303104Y-103184836D02*
X219303104Y-103032455D01*
X219303104Y-103032455D02*
X219341200Y-102956265D01*
X219836438Y-103603884D02*
X219303104Y-103794360D01*
X219836438Y-103984837D02*
X219303104Y-103794360D01*
X219303104Y-103794360D02*
X219112628Y-103718170D01*
X219112628Y-103718170D02*
X219074533Y-103680075D01*
X219074533Y-103680075D02*
X219036438Y-103603884D01*
X219303104Y-104899123D02*
X220103104Y-104899123D01*
X220103104Y-104899123D02*
X219531676Y-105165789D01*
X219531676Y-105165789D02*
X220103104Y-105432456D01*
X220103104Y-105432456D02*
X219303104Y-105432456D01*
X219303104Y-105813409D02*
X219836438Y-105813409D01*
X220103104Y-105813409D02*
X220065009Y-105775313D01*
X220065009Y-105775313D02*
X220026914Y-105813409D01*
X220026914Y-105813409D02*
X220065009Y-105851504D01*
X220065009Y-105851504D02*
X220103104Y-105813409D01*
X220103104Y-105813409D02*
X220026914Y-105813409D01*
X219303104Y-106308646D02*
X219341200Y-106232456D01*
X219341200Y-106232456D02*
X219417390Y-106194361D01*
X219417390Y-106194361D02*
X220103104Y-106194361D01*
X219303104Y-106727694D02*
X219341200Y-106651504D01*
X219341200Y-106651504D02*
X219379295Y-106613409D01*
X219379295Y-106613409D02*
X219455485Y-106575313D01*
X219455485Y-106575313D02*
X219684057Y-106575313D01*
X219684057Y-106575313D02*
X219760247Y-106613409D01*
X219760247Y-106613409D02*
X219798342Y-106651504D01*
X219798342Y-106651504D02*
X219836438Y-106727694D01*
X219836438Y-106727694D02*
X219836438Y-106841980D01*
X219836438Y-106841980D02*
X219798342Y-106918171D01*
X219798342Y-106918171D02*
X219760247Y-106956266D01*
X219760247Y-106956266D02*
X219684057Y-106994361D01*
X219684057Y-106994361D02*
X219455485Y-106994361D01*
X219455485Y-106994361D02*
X219379295Y-106956266D01*
X219379295Y-106956266D02*
X219341200Y-106918171D01*
X219341200Y-106918171D02*
X219303104Y-106841980D01*
X219303104Y-106841980D02*
X219303104Y-106727694D01*
X219341200Y-107299123D02*
X219303104Y-107375314D01*
X219303104Y-107375314D02*
X219303104Y-107527695D01*
X219303104Y-107527695D02*
X219341200Y-107603885D01*
X219341200Y-107603885D02*
X219417390Y-107641981D01*
X219417390Y-107641981D02*
X219455485Y-107641981D01*
X219455485Y-107641981D02*
X219531676Y-107603885D01*
X219531676Y-107603885D02*
X219569771Y-107527695D01*
X219569771Y-107527695D02*
X219569771Y-107413409D01*
X219569771Y-107413409D02*
X219607866Y-107337219D01*
X219607866Y-107337219D02*
X219684057Y-107299123D01*
X219684057Y-107299123D02*
X219722152Y-107299123D01*
X219722152Y-107299123D02*
X219798342Y-107337219D01*
X219798342Y-107337219D02*
X219836438Y-107413409D01*
X219836438Y-107413409D02*
X219836438Y-107527695D01*
X219836438Y-107527695D02*
X219798342Y-107603885D01*
X219303104Y-108594362D02*
X220103104Y-108594362D01*
X220103104Y-108594362D02*
X219303104Y-109051505D01*
X219303104Y-109051505D02*
X220103104Y-109051505D01*
X219341200Y-109737219D02*
X219303104Y-109661028D01*
X219303104Y-109661028D02*
X219303104Y-109508647D01*
X219303104Y-109508647D02*
X219341200Y-109432457D01*
X219341200Y-109432457D02*
X219417390Y-109394361D01*
X219417390Y-109394361D02*
X219722152Y-109394361D01*
X219722152Y-109394361D02*
X219798342Y-109432457D01*
X219798342Y-109432457D02*
X219836438Y-109508647D01*
X219836438Y-109508647D02*
X219836438Y-109661028D01*
X219836438Y-109661028D02*
X219798342Y-109737219D01*
X219798342Y-109737219D02*
X219722152Y-109775314D01*
X219722152Y-109775314D02*
X219645961Y-109775314D01*
X219645961Y-109775314D02*
X219569771Y-109394361D01*
X219303104Y-110461028D02*
X220103104Y-110461028D01*
X219341200Y-110461028D02*
X219303104Y-110384837D01*
X219303104Y-110384837D02*
X219303104Y-110232456D01*
X219303104Y-110232456D02*
X219341200Y-110156266D01*
X219341200Y-110156266D02*
X219379295Y-110118171D01*
X219379295Y-110118171D02*
X219455485Y-110080075D01*
X219455485Y-110080075D02*
X219684057Y-110080075D01*
X219684057Y-110080075D02*
X219760247Y-110118171D01*
X219760247Y-110118171D02*
X219798342Y-110156266D01*
X219798342Y-110156266D02*
X219836438Y-110232456D01*
X219836438Y-110232456D02*
X219836438Y-110384837D01*
X219836438Y-110384837D02*
X219798342Y-110461028D01*
X219341200Y-111146743D02*
X219303104Y-111070552D01*
X219303104Y-111070552D02*
X219303104Y-110918171D01*
X219303104Y-110918171D02*
X219341200Y-110841981D01*
X219341200Y-110841981D02*
X219417390Y-110803885D01*
X219417390Y-110803885D02*
X219722152Y-110803885D01*
X219722152Y-110803885D02*
X219798342Y-110841981D01*
X219798342Y-110841981D02*
X219836438Y-110918171D01*
X219836438Y-110918171D02*
X219836438Y-111070552D01*
X219836438Y-111070552D02*
X219798342Y-111146743D01*
X219798342Y-111146743D02*
X219722152Y-111184838D01*
X219722152Y-111184838D02*
X219645961Y-111184838D01*
X219645961Y-111184838D02*
X219569771Y-110803885D01*
X219303104Y-111641980D02*
X219341200Y-111565790D01*
X219341200Y-111565790D02*
X219417390Y-111527695D01*
X219417390Y-111527695D02*
X220103104Y-111527695D01*
X219836438Y-111946743D02*
X219150723Y-111946743D01*
X219150723Y-111946743D02*
X219074533Y-111908647D01*
X219074533Y-111908647D02*
X219036438Y-111832457D01*
X219036438Y-111832457D02*
X219036438Y-111794362D01*
X220103104Y-111946743D02*
X220065009Y-111908647D01*
X220065009Y-111908647D02*
X220026914Y-111946743D01*
X220026914Y-111946743D02*
X220065009Y-111984838D01*
X220065009Y-111984838D02*
X220103104Y-111946743D01*
X220103104Y-111946743D02*
X220026914Y-111946743D01*
X219303104Y-112327695D02*
X220103104Y-112327695D01*
X219607866Y-112403885D02*
X219303104Y-112632457D01*
X219836438Y-112632457D02*
X219531676Y-112327695D01*
X219303104Y-113089599D02*
X219341200Y-113013409D01*
X219341200Y-113013409D02*
X219379295Y-112975314D01*
X219379295Y-112975314D02*
X219455485Y-112937218D01*
X219455485Y-112937218D02*
X219684057Y-112937218D01*
X219684057Y-112937218D02*
X219760247Y-112975314D01*
X219760247Y-112975314D02*
X219798342Y-113013409D01*
X219798342Y-113013409D02*
X219836438Y-113089599D01*
X219836438Y-113089599D02*
X219836438Y-113203885D01*
X219836438Y-113203885D02*
X219798342Y-113280076D01*
X219798342Y-113280076D02*
X219760247Y-113318171D01*
X219760247Y-113318171D02*
X219684057Y-113356266D01*
X219684057Y-113356266D02*
X219455485Y-113356266D01*
X219455485Y-113356266D02*
X219379295Y-113318171D01*
X219379295Y-113318171D02*
X219341200Y-113280076D01*
X219341200Y-113280076D02*
X219303104Y-113203885D01*
X219303104Y-113203885D02*
X219303104Y-113089599D01*
X219836438Y-113622933D02*
X219303104Y-113813409D01*
X219303104Y-113813409D02*
X219836438Y-114003886D01*
X219303104Y-114308648D02*
X219836438Y-114308648D01*
X220103104Y-114308648D02*
X220065009Y-114270552D01*
X220065009Y-114270552D02*
X220026914Y-114308648D01*
X220026914Y-114308648D02*
X220065009Y-114346743D01*
X220065009Y-114346743D02*
X220103104Y-114308648D01*
X220103104Y-114308648D02*
X220026914Y-114308648D01*
X219341200Y-115032457D02*
X219303104Y-114956266D01*
X219303104Y-114956266D02*
X219303104Y-114803885D01*
X219303104Y-114803885D02*
X219341200Y-114727695D01*
X219341200Y-114727695D02*
X219379295Y-114689600D01*
X219379295Y-114689600D02*
X219455485Y-114651504D01*
X219455485Y-114651504D02*
X219684057Y-114651504D01*
X219684057Y-114651504D02*
X219760247Y-114689600D01*
X219760247Y-114689600D02*
X219798342Y-114727695D01*
X219798342Y-114727695D02*
X219836438Y-114803885D01*
X219836438Y-114803885D02*
X219836438Y-114956266D01*
X219836438Y-114956266D02*
X219798342Y-115032457D01*
X220627580Y-102803884D02*
X221627580Y-102803884D01*
X221627580Y-102803884D02*
X221627580Y-103041979D01*
X221627580Y-103041979D02*
X221579961Y-103184836D01*
X221579961Y-103184836D02*
X221484723Y-103280074D01*
X221484723Y-103280074D02*
X221389485Y-103327693D01*
X221389485Y-103327693D02*
X221199009Y-103375312D01*
X221199009Y-103375312D02*
X221056152Y-103375312D01*
X221056152Y-103375312D02*
X220865676Y-103327693D01*
X220865676Y-103327693D02*
X220770438Y-103280074D01*
X220770438Y-103280074D02*
X220675200Y-103184836D01*
X220675200Y-103184836D02*
X220627580Y-103041979D01*
X220627580Y-103041979D02*
X220627580Y-102803884D01*
X220627580Y-103803884D02*
X221294247Y-103803884D01*
X221103771Y-103803884D02*
X221199009Y-103851503D01*
X221199009Y-103851503D02*
X221246628Y-103899122D01*
X221246628Y-103899122D02*
X221294247Y-103994360D01*
X221294247Y-103994360D02*
X221294247Y-104089598D01*
X220627580Y-104565789D02*
X220675200Y-104470551D01*
X220675200Y-104470551D02*
X220722819Y-104422932D01*
X220722819Y-104422932D02*
X220818057Y-104375313D01*
X220818057Y-104375313D02*
X221103771Y-104375313D01*
X221103771Y-104375313D02*
X221199009Y-104422932D01*
X221199009Y-104422932D02*
X221246628Y-104470551D01*
X221246628Y-104470551D02*
X221294247Y-104565789D01*
X221294247Y-104565789D02*
X221294247Y-104708646D01*
X221294247Y-104708646D02*
X221246628Y-104803884D01*
X221246628Y-104803884D02*
X221199009Y-104851503D01*
X221199009Y-104851503D02*
X221103771Y-104899122D01*
X221103771Y-104899122D02*
X220818057Y-104899122D01*
X220818057Y-104899122D02*
X220722819Y-104851503D01*
X220722819Y-104851503D02*
X220675200Y-104803884D01*
X220675200Y-104803884D02*
X220627580Y-104708646D01*
X220627580Y-104708646D02*
X220627580Y-104565789D01*
X221294247Y-105327694D02*
X220627580Y-105327694D01*
X221199009Y-105327694D02*
X221246628Y-105375313D01*
X221246628Y-105375313D02*
X221294247Y-105470551D01*
X221294247Y-105470551D02*
X221294247Y-105613408D01*
X221294247Y-105613408D02*
X221246628Y-105708646D01*
X221246628Y-105708646D02*
X221151390Y-105756265D01*
X221151390Y-105756265D02*
X220627580Y-105756265D01*
X220675200Y-106613408D02*
X220627580Y-106518170D01*
X220627580Y-106518170D02*
X220627580Y-106327694D01*
X220627580Y-106327694D02*
X220675200Y-106232456D01*
X220675200Y-106232456D02*
X220770438Y-106184837D01*
X220770438Y-106184837D02*
X221151390Y-106184837D01*
X221151390Y-106184837D02*
X221246628Y-106232456D01*
X221246628Y-106232456D02*
X221294247Y-106327694D01*
X221294247Y-106327694D02*
X221294247Y-106518170D01*
X221294247Y-106518170D02*
X221246628Y-106613408D01*
X221246628Y-106613408D02*
X221151390Y-106661027D01*
X221151390Y-106661027D02*
X221056152Y-106661027D01*
X221056152Y-106661027D02*
X220960914Y-106184837D01*
X221151390Y-107851504D02*
X221151390Y-108184837D01*
X220627580Y-108327694D02*
X220627580Y-107851504D01*
X220627580Y-107851504D02*
X221627580Y-107851504D01*
X221627580Y-107851504D02*
X221627580Y-108327694D01*
X220675200Y-108708647D02*
X220627580Y-108851504D01*
X220627580Y-108851504D02*
X220627580Y-109089599D01*
X220627580Y-109089599D02*
X220675200Y-109184837D01*
X220675200Y-109184837D02*
X220722819Y-109232456D01*
X220722819Y-109232456D02*
X220818057Y-109280075D01*
X220818057Y-109280075D02*
X220913295Y-109280075D01*
X220913295Y-109280075D02*
X221008533Y-109232456D01*
X221008533Y-109232456D02*
X221056152Y-109184837D01*
X221056152Y-109184837D02*
X221103771Y-109089599D01*
X221103771Y-109089599D02*
X221151390Y-108899123D01*
X221151390Y-108899123D02*
X221199009Y-108803885D01*
X221199009Y-108803885D02*
X221246628Y-108756266D01*
X221246628Y-108756266D02*
X221341866Y-108708647D01*
X221341866Y-108708647D02*
X221437104Y-108708647D01*
X221437104Y-108708647D02*
X221532342Y-108756266D01*
X221532342Y-108756266D02*
X221579961Y-108803885D01*
X221579961Y-108803885D02*
X221627580Y-108899123D01*
X221627580Y-108899123D02*
X221627580Y-109137218D01*
X221627580Y-109137218D02*
X221579961Y-109280075D01*
X220627580Y-109708647D02*
X221627580Y-109708647D01*
X221627580Y-109708647D02*
X221627580Y-110089599D01*
X221627580Y-110089599D02*
X221579961Y-110184837D01*
X221579961Y-110184837D02*
X221532342Y-110232456D01*
X221532342Y-110232456D02*
X221437104Y-110280075D01*
X221437104Y-110280075D02*
X221294247Y-110280075D01*
X221294247Y-110280075D02*
X221199009Y-110232456D01*
X221199009Y-110232456D02*
X221151390Y-110184837D01*
X221151390Y-110184837D02*
X221103771Y-110089599D01*
X221103771Y-110089599D02*
X221103771Y-109708647D01*
X221627580Y-110613409D02*
X221627580Y-111232456D01*
X221627580Y-111232456D02*
X221246628Y-110899123D01*
X221246628Y-110899123D02*
X221246628Y-111041980D01*
X221246628Y-111041980D02*
X221199009Y-111137218D01*
X221199009Y-111137218D02*
X221151390Y-111184837D01*
X221151390Y-111184837D02*
X221056152Y-111232456D01*
X221056152Y-111232456D02*
X220818057Y-111232456D01*
X220818057Y-111232456D02*
X220722819Y-111184837D01*
X220722819Y-111184837D02*
X220675200Y-111137218D01*
X220675200Y-111137218D02*
X220627580Y-111041980D01*
X220627580Y-111041980D02*
X220627580Y-110756266D01*
X220627580Y-110756266D02*
X220675200Y-110661028D01*
X220675200Y-110661028D02*
X220722819Y-110613409D01*
X221532342Y-111613409D02*
X221579961Y-111661028D01*
X221579961Y-111661028D02*
X221627580Y-111756266D01*
X221627580Y-111756266D02*
X221627580Y-111994361D01*
X221627580Y-111994361D02*
X221579961Y-112089599D01*
X221579961Y-112089599D02*
X221532342Y-112137218D01*
X221532342Y-112137218D02*
X221437104Y-112184837D01*
X221437104Y-112184837D02*
X221341866Y-112184837D01*
X221341866Y-112184837D02*
X221199009Y-112137218D01*
X221199009Y-112137218D02*
X220627580Y-111565790D01*
X220627580Y-111565790D02*
X220627580Y-112184837D01*
D11*
X253054819Y-130856904D02*
X253864342Y-130856904D01*
X253864342Y-130856904D02*
X253959580Y-130809285D01*
X253959580Y-130809285D02*
X254007200Y-130761666D01*
X254007200Y-130761666D02*
X254054819Y-130666428D01*
X254054819Y-130666428D02*
X254054819Y-130475952D01*
X254054819Y-130475952D02*
X254007200Y-130380714D01*
X254007200Y-130380714D02*
X253959580Y-130333095D01*
X253959580Y-130333095D02*
X253864342Y-130285476D01*
X253864342Y-130285476D02*
X253054819Y-130285476D01*
X253388152Y-129380714D02*
X254054819Y-129380714D01*
X253007200Y-129618809D02*
X253721485Y-129856904D01*
X253721485Y-129856904D02*
X253721485Y-129237857D01*
X244783333Y-114259580D02*
X244735714Y-114307200D01*
X244735714Y-114307200D02*
X244592857Y-114354819D01*
X244592857Y-114354819D02*
X244497619Y-114354819D01*
X244497619Y-114354819D02*
X244354762Y-114307200D01*
X244354762Y-114307200D02*
X244259524Y-114211961D01*
X244259524Y-114211961D02*
X244211905Y-114116723D01*
X244211905Y-114116723D02*
X244164286Y-113926247D01*
X244164286Y-113926247D02*
X244164286Y-113783390D01*
X244164286Y-113783390D02*
X244211905Y-113592914D01*
X244211905Y-113592914D02*
X244259524Y-113497676D01*
X244259524Y-113497676D02*
X244354762Y-113402438D01*
X244354762Y-113402438D02*
X244497619Y-113354819D01*
X244497619Y-113354819D02*
X244592857Y-113354819D01*
X244592857Y-113354819D02*
X244735714Y-113402438D01*
X244735714Y-113402438D02*
X244783333Y-113450057D01*
X245640476Y-113354819D02*
X245450000Y-113354819D01*
X245450000Y-113354819D02*
X245354762Y-113402438D01*
X245354762Y-113402438D02*
X245307143Y-113450057D01*
X245307143Y-113450057D02*
X245211905Y-113592914D01*
X245211905Y-113592914D02*
X245164286Y-113783390D01*
X245164286Y-113783390D02*
X245164286Y-114164342D01*
X245164286Y-114164342D02*
X245211905Y-114259580D01*
X245211905Y-114259580D02*
X245259524Y-114307200D01*
X245259524Y-114307200D02*
X245354762Y-114354819D01*
X245354762Y-114354819D02*
X245545238Y-114354819D01*
X245545238Y-114354819D02*
X245640476Y-114307200D01*
X245640476Y-114307200D02*
X245688095Y-114259580D01*
X245688095Y-114259580D02*
X245735714Y-114164342D01*
X245735714Y-114164342D02*
X245735714Y-113926247D01*
X245735714Y-113926247D02*
X245688095Y-113831009D01*
X245688095Y-113831009D02*
X245640476Y-113783390D01*
X245640476Y-113783390D02*
X245545238Y-113735771D01*
X245545238Y-113735771D02*
X245354762Y-113735771D01*
X245354762Y-113735771D02*
X245259524Y-113783390D01*
X245259524Y-113783390D02*
X245211905Y-113831009D01*
X245211905Y-113831009D02*
X245164286Y-113926247D01*
X260859580Y-142642857D02*
X260907200Y-142690476D01*
X260907200Y-142690476D02*
X260954819Y-142833333D01*
X260954819Y-142833333D02*
X260954819Y-142928571D01*
X260954819Y-142928571D02*
X260907200Y-143071428D01*
X260907200Y-143071428D02*
X260811961Y-143166666D01*
X260811961Y-143166666D02*
X260716723Y-143214285D01*
X260716723Y-143214285D02*
X260526247Y-143261904D01*
X260526247Y-143261904D02*
X260383390Y-143261904D01*
X260383390Y-143261904D02*
X260192914Y-143214285D01*
X260192914Y-143214285D02*
X260097676Y-143166666D01*
X260097676Y-143166666D02*
X260002438Y-143071428D01*
X260002438Y-143071428D02*
X259954819Y-142928571D01*
X259954819Y-142928571D02*
X259954819Y-142833333D01*
X259954819Y-142833333D02*
X260002438Y-142690476D01*
X260002438Y-142690476D02*
X260050057Y-142642857D01*
X260954819Y-141690476D02*
X260954819Y-142261904D01*
X260954819Y-141976190D02*
X259954819Y-141976190D01*
X259954819Y-141976190D02*
X260097676Y-142071428D01*
X260097676Y-142071428D02*
X260192914Y-142166666D01*
X260192914Y-142166666D02*
X260240533Y-142261904D01*
X259954819Y-141071428D02*
X259954819Y-140976190D01*
X259954819Y-140976190D02*
X260002438Y-140880952D01*
X260002438Y-140880952D02*
X260050057Y-140833333D01*
X260050057Y-140833333D02*
X260145295Y-140785714D01*
X260145295Y-140785714D02*
X260335771Y-140738095D01*
X260335771Y-140738095D02*
X260573866Y-140738095D01*
X260573866Y-140738095D02*
X260764342Y-140785714D01*
X260764342Y-140785714D02*
X260859580Y-140833333D01*
X260859580Y-140833333D02*
X260907200Y-140880952D01*
X260907200Y-140880952D02*
X260954819Y-140976190D01*
X260954819Y-140976190D02*
X260954819Y-141071428D01*
X260954819Y-141071428D02*
X260907200Y-141166666D01*
X260907200Y-141166666D02*
X260859580Y-141214285D01*
X260859580Y-141214285D02*
X260764342Y-141261904D01*
X260764342Y-141261904D02*
X260573866Y-141309523D01*
X260573866Y-141309523D02*
X260335771Y-141309523D01*
X260335771Y-141309523D02*
X260145295Y-141261904D01*
X260145295Y-141261904D02*
X260050057Y-141214285D01*
X260050057Y-141214285D02*
X260002438Y-141166666D01*
X260002438Y-141166666D02*
X259954819Y-141071428D01*
X234679580Y-107166666D02*
X234727200Y-107214285D01*
X234727200Y-107214285D02*
X234774819Y-107357142D01*
X234774819Y-107357142D02*
X234774819Y-107452380D01*
X234774819Y-107452380D02*
X234727200Y-107595237D01*
X234727200Y-107595237D02*
X234631961Y-107690475D01*
X234631961Y-107690475D02*
X234536723Y-107738094D01*
X234536723Y-107738094D02*
X234346247Y-107785713D01*
X234346247Y-107785713D02*
X234203390Y-107785713D01*
X234203390Y-107785713D02*
X234012914Y-107738094D01*
X234012914Y-107738094D02*
X233917676Y-107690475D01*
X233917676Y-107690475D02*
X233822438Y-107595237D01*
X233822438Y-107595237D02*
X233774819Y-107452380D01*
X233774819Y-107452380D02*
X233774819Y-107357142D01*
X233774819Y-107357142D02*
X233822438Y-107214285D01*
X233822438Y-107214285D02*
X233870057Y-107166666D01*
X234108152Y-106309523D02*
X234774819Y-106309523D01*
X233727200Y-106547618D02*
X234441485Y-106785713D01*
X234441485Y-106785713D02*
X234441485Y-106166666D01*
X221561905Y-132154819D02*
X221561905Y-131154819D01*
X221561905Y-131154819D02*
X221800000Y-131154819D01*
X221800000Y-131154819D02*
X221942857Y-131202438D01*
X221942857Y-131202438D02*
X222038095Y-131297676D01*
X222038095Y-131297676D02*
X222085714Y-131392914D01*
X222085714Y-131392914D02*
X222133333Y-131583390D01*
X222133333Y-131583390D02*
X222133333Y-131726247D01*
X222133333Y-131726247D02*
X222085714Y-131916723D01*
X222085714Y-131916723D02*
X222038095Y-132011961D01*
X222038095Y-132011961D02*
X221942857Y-132107200D01*
X221942857Y-132107200D02*
X221800000Y-132154819D01*
X221800000Y-132154819D02*
X221561905Y-132154819D01*
X222609524Y-132154819D02*
X222800000Y-132154819D01*
X222800000Y-132154819D02*
X222895238Y-132107200D01*
X222895238Y-132107200D02*
X222942857Y-132059580D01*
X222942857Y-132059580D02*
X223038095Y-131916723D01*
X223038095Y-131916723D02*
X223085714Y-131726247D01*
X223085714Y-131726247D02*
X223085714Y-131345295D01*
X223085714Y-131345295D02*
X223038095Y-131250057D01*
X223038095Y-131250057D02*
X222990476Y-131202438D01*
X222990476Y-131202438D02*
X222895238Y-131154819D01*
X222895238Y-131154819D02*
X222704762Y-131154819D01*
X222704762Y-131154819D02*
X222609524Y-131202438D01*
X222609524Y-131202438D02*
X222561905Y-131250057D01*
X222561905Y-131250057D02*
X222514286Y-131345295D01*
X222514286Y-131345295D02*
X222514286Y-131583390D01*
X222514286Y-131583390D02*
X222561905Y-131678628D01*
X222561905Y-131678628D02*
X222609524Y-131726247D01*
X222609524Y-131726247D02*
X222704762Y-131773866D01*
X222704762Y-131773866D02*
X222895238Y-131773866D01*
X222895238Y-131773866D02*
X222990476Y-131726247D01*
X222990476Y-131726247D02*
X223038095Y-131678628D01*
X223038095Y-131678628D02*
X223085714Y-131583390D01*
X231188095Y-115254819D02*
X231188095Y-116064342D01*
X231188095Y-116064342D02*
X231235714Y-116159580D01*
X231235714Y-116159580D02*
X231283333Y-116207200D01*
X231283333Y-116207200D02*
X231378571Y-116254819D01*
X231378571Y-116254819D02*
X231569047Y-116254819D01*
X231569047Y-116254819D02*
X231664285Y-116207200D01*
X231664285Y-116207200D02*
X231711904Y-116159580D01*
X231711904Y-116159580D02*
X231759523Y-116064342D01*
X231759523Y-116064342D02*
X231759523Y-115254819D01*
X232188095Y-115350057D02*
X232235714Y-115302438D01*
X232235714Y-115302438D02*
X232330952Y-115254819D01*
X232330952Y-115254819D02*
X232569047Y-115254819D01*
X232569047Y-115254819D02*
X232664285Y-115302438D01*
X232664285Y-115302438D02*
X232711904Y-115350057D01*
X232711904Y-115350057D02*
X232759523Y-115445295D01*
X232759523Y-115445295D02*
X232759523Y-115540533D01*
X232759523Y-115540533D02*
X232711904Y-115683390D01*
X232711904Y-115683390D02*
X232140476Y-116254819D01*
X232140476Y-116254819D02*
X232759523Y-116254819D01*
X229654819Y-118742857D02*
X229178628Y-119076190D01*
X229654819Y-119314285D02*
X228654819Y-119314285D01*
X228654819Y-119314285D02*
X228654819Y-118933333D01*
X228654819Y-118933333D02*
X228702438Y-118838095D01*
X228702438Y-118838095D02*
X228750057Y-118790476D01*
X228750057Y-118790476D02*
X228845295Y-118742857D01*
X228845295Y-118742857D02*
X228988152Y-118742857D01*
X228988152Y-118742857D02*
X229083390Y-118790476D01*
X229083390Y-118790476D02*
X229131009Y-118838095D01*
X229131009Y-118838095D02*
X229178628Y-118933333D01*
X229178628Y-118933333D02*
X229178628Y-119314285D01*
X229654819Y-117790476D02*
X229654819Y-118361904D01*
X229654819Y-118076190D02*
X228654819Y-118076190D01*
X228654819Y-118076190D02*
X228797676Y-118171428D01*
X228797676Y-118171428D02*
X228892914Y-118266666D01*
X228892914Y-118266666D02*
X228940533Y-118361904D01*
X229654819Y-116838095D02*
X229654819Y-117409523D01*
X229654819Y-117123809D02*
X228654819Y-117123809D01*
X228654819Y-117123809D02*
X228797676Y-117219047D01*
X228797676Y-117219047D02*
X228892914Y-117314285D01*
X228892914Y-117314285D02*
X228940533Y-117409523D01*
X237354819Y-104442857D02*
X236878628Y-104776190D01*
X237354819Y-105014285D02*
X236354819Y-105014285D01*
X236354819Y-105014285D02*
X236354819Y-104633333D01*
X236354819Y-104633333D02*
X236402438Y-104538095D01*
X236402438Y-104538095D02*
X236450057Y-104490476D01*
X236450057Y-104490476D02*
X236545295Y-104442857D01*
X236545295Y-104442857D02*
X236688152Y-104442857D01*
X236688152Y-104442857D02*
X236783390Y-104490476D01*
X236783390Y-104490476D02*
X236831009Y-104538095D01*
X236831009Y-104538095D02*
X236878628Y-104633333D01*
X236878628Y-104633333D02*
X236878628Y-105014285D01*
X236354819Y-104109523D02*
X236354819Y-103490476D01*
X236354819Y-103490476D02*
X236735771Y-103823809D01*
X236735771Y-103823809D02*
X236735771Y-103680952D01*
X236735771Y-103680952D02*
X236783390Y-103585714D01*
X236783390Y-103585714D02*
X236831009Y-103538095D01*
X236831009Y-103538095D02*
X236926247Y-103490476D01*
X236926247Y-103490476D02*
X237164342Y-103490476D01*
X237164342Y-103490476D02*
X237259580Y-103538095D01*
X237259580Y-103538095D02*
X237307200Y-103585714D01*
X237307200Y-103585714D02*
X237354819Y-103680952D01*
X237354819Y-103680952D02*
X237354819Y-103966666D01*
X237354819Y-103966666D02*
X237307200Y-104061904D01*
X237307200Y-104061904D02*
X237259580Y-104109523D01*
X237354819Y-102538095D02*
X237354819Y-103109523D01*
X237354819Y-102823809D02*
X236354819Y-102823809D01*
X236354819Y-102823809D02*
X236497676Y-102919047D01*
X236497676Y-102919047D02*
X236592914Y-103014285D01*
X236592914Y-103014285D02*
X236640533Y-103109523D01*
X256757142Y-126659580D02*
X256709523Y-126707200D01*
X256709523Y-126707200D02*
X256566666Y-126754819D01*
X256566666Y-126754819D02*
X256471428Y-126754819D01*
X256471428Y-126754819D02*
X256328571Y-126707200D01*
X256328571Y-126707200D02*
X256233333Y-126611961D01*
X256233333Y-126611961D02*
X256185714Y-126516723D01*
X256185714Y-126516723D02*
X256138095Y-126326247D01*
X256138095Y-126326247D02*
X256138095Y-126183390D01*
X256138095Y-126183390D02*
X256185714Y-125992914D01*
X256185714Y-125992914D02*
X256233333Y-125897676D01*
X256233333Y-125897676D02*
X256328571Y-125802438D01*
X256328571Y-125802438D02*
X256471428Y-125754819D01*
X256471428Y-125754819D02*
X256566666Y-125754819D01*
X256566666Y-125754819D02*
X256709523Y-125802438D01*
X256709523Y-125802438D02*
X256757142Y-125850057D01*
X257709523Y-126754819D02*
X257138095Y-126754819D01*
X257423809Y-126754819D02*
X257423809Y-125754819D01*
X257423809Y-125754819D02*
X257328571Y-125897676D01*
X257328571Y-125897676D02*
X257233333Y-125992914D01*
X257233333Y-125992914D02*
X257138095Y-126040533D01*
X258090476Y-125850057D02*
X258138095Y-125802438D01*
X258138095Y-125802438D02*
X258233333Y-125754819D01*
X258233333Y-125754819D02*
X258471428Y-125754819D01*
X258471428Y-125754819D02*
X258566666Y-125802438D01*
X258566666Y-125802438D02*
X258614285Y-125850057D01*
X258614285Y-125850057D02*
X258661904Y-125945295D01*
X258661904Y-125945295D02*
X258661904Y-126040533D01*
X258661904Y-126040533D02*
X258614285Y-126183390D01*
X258614285Y-126183390D02*
X258042857Y-126754819D01*
X258042857Y-126754819D02*
X258661904Y-126754819D01*
X254233333Y-132854819D02*
X253900000Y-132378628D01*
X253661905Y-132854819D02*
X253661905Y-131854819D01*
X253661905Y-131854819D02*
X254042857Y-131854819D01*
X254042857Y-131854819D02*
X254138095Y-131902438D01*
X254138095Y-131902438D02*
X254185714Y-131950057D01*
X254185714Y-131950057D02*
X254233333Y-132045295D01*
X254233333Y-132045295D02*
X254233333Y-132188152D01*
X254233333Y-132188152D02*
X254185714Y-132283390D01*
X254185714Y-132283390D02*
X254138095Y-132331009D01*
X254138095Y-132331009D02*
X254042857Y-132378628D01*
X254042857Y-132378628D02*
X253661905Y-132378628D01*
X255090476Y-132188152D02*
X255090476Y-132854819D01*
X254852381Y-131807200D02*
X254614286Y-132521485D01*
X254614286Y-132521485D02*
X255233333Y-132521485D01*
X223633333Y-107054819D02*
X223300000Y-106578628D01*
X223061905Y-107054819D02*
X223061905Y-106054819D01*
X223061905Y-106054819D02*
X223442857Y-106054819D01*
X223442857Y-106054819D02*
X223538095Y-106102438D01*
X223538095Y-106102438D02*
X223585714Y-106150057D01*
X223585714Y-106150057D02*
X223633333Y-106245295D01*
X223633333Y-106245295D02*
X223633333Y-106388152D01*
X223633333Y-106388152D02*
X223585714Y-106483390D01*
X223585714Y-106483390D02*
X223538095Y-106531009D01*
X223538095Y-106531009D02*
X223442857Y-106578628D01*
X223442857Y-106578628D02*
X223061905Y-106578628D01*
X224204762Y-106483390D02*
X224109524Y-106435771D01*
X224109524Y-106435771D02*
X224061905Y-106388152D01*
X224061905Y-106388152D02*
X224014286Y-106292914D01*
X224014286Y-106292914D02*
X224014286Y-106245295D01*
X224014286Y-106245295D02*
X224061905Y-106150057D01*
X224061905Y-106150057D02*
X224109524Y-106102438D01*
X224109524Y-106102438D02*
X224204762Y-106054819D01*
X224204762Y-106054819D02*
X224395238Y-106054819D01*
X224395238Y-106054819D02*
X224490476Y-106102438D01*
X224490476Y-106102438D02*
X224538095Y-106150057D01*
X224538095Y-106150057D02*
X224585714Y-106245295D01*
X224585714Y-106245295D02*
X224585714Y-106292914D01*
X224585714Y-106292914D02*
X224538095Y-106388152D01*
X224538095Y-106388152D02*
X224490476Y-106435771D01*
X224490476Y-106435771D02*
X224395238Y-106483390D01*
X224395238Y-106483390D02*
X224204762Y-106483390D01*
X224204762Y-106483390D02*
X224109524Y-106531009D01*
X224109524Y-106531009D02*
X224061905Y-106578628D01*
X224061905Y-106578628D02*
X224014286Y-106673866D01*
X224014286Y-106673866D02*
X224014286Y-106864342D01*
X224014286Y-106864342D02*
X224061905Y-106959580D01*
X224061905Y-106959580D02*
X224109524Y-107007200D01*
X224109524Y-107007200D02*
X224204762Y-107054819D01*
X224204762Y-107054819D02*
X224395238Y-107054819D01*
X224395238Y-107054819D02*
X224490476Y-107007200D01*
X224490476Y-107007200D02*
X224538095Y-106959580D01*
X224538095Y-106959580D02*
X224585714Y-106864342D01*
X224585714Y-106864342D02*
X224585714Y-106673866D01*
X224585714Y-106673866D02*
X224538095Y-106578628D01*
X224538095Y-106578628D02*
X224490476Y-106531009D01*
X224490476Y-106531009D02*
X224395238Y-106483390D01*
X237357142Y-121524819D02*
X237023809Y-121048628D01*
X236785714Y-121524819D02*
X236785714Y-120524819D01*
X236785714Y-120524819D02*
X237166666Y-120524819D01*
X237166666Y-120524819D02*
X237261904Y-120572438D01*
X237261904Y-120572438D02*
X237309523Y-120620057D01*
X237309523Y-120620057D02*
X237357142Y-120715295D01*
X237357142Y-120715295D02*
X237357142Y-120858152D01*
X237357142Y-120858152D02*
X237309523Y-120953390D01*
X237309523Y-120953390D02*
X237261904Y-121001009D01*
X237261904Y-121001009D02*
X237166666Y-121048628D01*
X237166666Y-121048628D02*
X236785714Y-121048628D01*
X238309523Y-121524819D02*
X237738095Y-121524819D01*
X238023809Y-121524819D02*
X238023809Y-120524819D01*
X238023809Y-120524819D02*
X237928571Y-120667676D01*
X237928571Y-120667676D02*
X237833333Y-120762914D01*
X237833333Y-120762914D02*
X237738095Y-120810533D01*
X239166666Y-120524819D02*
X238976190Y-120524819D01*
X238976190Y-120524819D02*
X238880952Y-120572438D01*
X238880952Y-120572438D02*
X238833333Y-120620057D01*
X238833333Y-120620057D02*
X238738095Y-120762914D01*
X238738095Y-120762914D02*
X238690476Y-120953390D01*
X238690476Y-120953390D02*
X238690476Y-121334342D01*
X238690476Y-121334342D02*
X238738095Y-121429580D01*
X238738095Y-121429580D02*
X238785714Y-121477200D01*
X238785714Y-121477200D02*
X238880952Y-121524819D01*
X238880952Y-121524819D02*
X239071428Y-121524819D01*
X239071428Y-121524819D02*
X239166666Y-121477200D01*
X239166666Y-121477200D02*
X239214285Y-121429580D01*
X239214285Y-121429580D02*
X239261904Y-121334342D01*
X239261904Y-121334342D02*
X239261904Y-121096247D01*
X239261904Y-121096247D02*
X239214285Y-121001009D01*
X239214285Y-121001009D02*
X239166666Y-120953390D01*
X239166666Y-120953390D02*
X239071428Y-120905771D01*
X239071428Y-120905771D02*
X238880952Y-120905771D01*
X238880952Y-120905771D02*
X238785714Y-120953390D01*
X238785714Y-120953390D02*
X238738095Y-121001009D01*
X238738095Y-121001009D02*
X238690476Y-121096247D01*
X233357142Y-104454819D02*
X233023809Y-103978628D01*
X232785714Y-104454819D02*
X232785714Y-103454819D01*
X232785714Y-103454819D02*
X233166666Y-103454819D01*
X233166666Y-103454819D02*
X233261904Y-103502438D01*
X233261904Y-103502438D02*
X233309523Y-103550057D01*
X233309523Y-103550057D02*
X233357142Y-103645295D01*
X233357142Y-103645295D02*
X233357142Y-103788152D01*
X233357142Y-103788152D02*
X233309523Y-103883390D01*
X233309523Y-103883390D02*
X233261904Y-103931009D01*
X233261904Y-103931009D02*
X233166666Y-103978628D01*
X233166666Y-103978628D02*
X232785714Y-103978628D01*
X233738095Y-103550057D02*
X233785714Y-103502438D01*
X233785714Y-103502438D02*
X233880952Y-103454819D01*
X233880952Y-103454819D02*
X234119047Y-103454819D01*
X234119047Y-103454819D02*
X234214285Y-103502438D01*
X234214285Y-103502438D02*
X234261904Y-103550057D01*
X234261904Y-103550057D02*
X234309523Y-103645295D01*
X234309523Y-103645295D02*
X234309523Y-103740533D01*
X234309523Y-103740533D02*
X234261904Y-103883390D01*
X234261904Y-103883390D02*
X233690476Y-104454819D01*
X233690476Y-104454819D02*
X234309523Y-104454819D01*
X234642857Y-103454819D02*
X235309523Y-103454819D01*
X235309523Y-103454819D02*
X234880952Y-104454819D01*
X258454819Y-110166666D02*
X257978628Y-110499999D01*
X258454819Y-110738094D02*
X257454819Y-110738094D01*
X257454819Y-110738094D02*
X257454819Y-110357142D01*
X257454819Y-110357142D02*
X257502438Y-110261904D01*
X257502438Y-110261904D02*
X257550057Y-110214285D01*
X257550057Y-110214285D02*
X257645295Y-110166666D01*
X257645295Y-110166666D02*
X257788152Y-110166666D01*
X257788152Y-110166666D02*
X257883390Y-110214285D01*
X257883390Y-110214285D02*
X257931009Y-110261904D01*
X257931009Y-110261904D02*
X257978628Y-110357142D01*
X257978628Y-110357142D02*
X257978628Y-110738094D01*
X257454819Y-109309523D02*
X257454819Y-109499999D01*
X257454819Y-109499999D02*
X257502438Y-109595237D01*
X257502438Y-109595237D02*
X257550057Y-109642856D01*
X257550057Y-109642856D02*
X257692914Y-109738094D01*
X257692914Y-109738094D02*
X257883390Y-109785713D01*
X257883390Y-109785713D02*
X258264342Y-109785713D01*
X258264342Y-109785713D02*
X258359580Y-109738094D01*
X258359580Y-109738094D02*
X258407200Y-109690475D01*
X258407200Y-109690475D02*
X258454819Y-109595237D01*
X258454819Y-109595237D02*
X258454819Y-109404761D01*
X258454819Y-109404761D02*
X258407200Y-109309523D01*
X258407200Y-109309523D02*
X258359580Y-109261904D01*
X258359580Y-109261904D02*
X258264342Y-109214285D01*
X258264342Y-109214285D02*
X258026247Y-109214285D01*
X258026247Y-109214285D02*
X257931009Y-109261904D01*
X257931009Y-109261904D02*
X257883390Y-109309523D01*
X257883390Y-109309523D02*
X257835771Y-109404761D01*
X257835771Y-109404761D02*
X257835771Y-109595237D01*
X257835771Y-109595237D02*
X257883390Y-109690475D01*
X257883390Y-109690475D02*
X257931009Y-109738094D01*
X257931009Y-109738094D02*
X258026247Y-109785713D01*
X257733333Y-136454819D02*
X257400000Y-135978628D01*
X257161905Y-136454819D02*
X257161905Y-135454819D01*
X257161905Y-135454819D02*
X257542857Y-135454819D01*
X257542857Y-135454819D02*
X257638095Y-135502438D01*
X257638095Y-135502438D02*
X257685714Y-135550057D01*
X257685714Y-135550057D02*
X257733333Y-135645295D01*
X257733333Y-135645295D02*
X257733333Y-135788152D01*
X257733333Y-135788152D02*
X257685714Y-135883390D01*
X257685714Y-135883390D02*
X257638095Y-135931009D01*
X257638095Y-135931009D02*
X257542857Y-135978628D01*
X257542857Y-135978628D02*
X257161905Y-135978628D01*
X258638095Y-135454819D02*
X258161905Y-135454819D01*
X258161905Y-135454819D02*
X258114286Y-135931009D01*
X258114286Y-135931009D02*
X258161905Y-135883390D01*
X258161905Y-135883390D02*
X258257143Y-135835771D01*
X258257143Y-135835771D02*
X258495238Y-135835771D01*
X258495238Y-135835771D02*
X258590476Y-135883390D01*
X258590476Y-135883390D02*
X258638095Y-135931009D01*
X258638095Y-135931009D02*
X258685714Y-136026247D01*
X258685714Y-136026247D02*
X258685714Y-136264342D01*
X258685714Y-136264342D02*
X258638095Y-136359580D01*
X258638095Y-136359580D02*
X258590476Y-136407200D01*
X258590476Y-136407200D02*
X258495238Y-136454819D01*
X258495238Y-136454819D02*
X258257143Y-136454819D01*
X258257143Y-136454819D02*
X258161905Y-136407200D01*
X258161905Y-136407200D02*
X258114286Y-136359580D01*
X237859580Y-117766666D02*
X237907200Y-117814285D01*
X237907200Y-117814285D02*
X237954819Y-117957142D01*
X237954819Y-117957142D02*
X237954819Y-118052380D01*
X237954819Y-118052380D02*
X237907200Y-118195237D01*
X237907200Y-118195237D02*
X237811961Y-118290475D01*
X237811961Y-118290475D02*
X237716723Y-118338094D01*
X237716723Y-118338094D02*
X237526247Y-118385713D01*
X237526247Y-118385713D02*
X237383390Y-118385713D01*
X237383390Y-118385713D02*
X237192914Y-118338094D01*
X237192914Y-118338094D02*
X237097676Y-118290475D01*
X237097676Y-118290475D02*
X237002438Y-118195237D01*
X237002438Y-118195237D02*
X236954819Y-118052380D01*
X236954819Y-118052380D02*
X236954819Y-117957142D01*
X236954819Y-117957142D02*
X237002438Y-117814285D01*
X237002438Y-117814285D02*
X237050057Y-117766666D01*
X237383390Y-117195237D02*
X237335771Y-117290475D01*
X237335771Y-117290475D02*
X237288152Y-117338094D01*
X237288152Y-117338094D02*
X237192914Y-117385713D01*
X237192914Y-117385713D02*
X237145295Y-117385713D01*
X237145295Y-117385713D02*
X237050057Y-117338094D01*
X237050057Y-117338094D02*
X237002438Y-117290475D01*
X237002438Y-117290475D02*
X236954819Y-117195237D01*
X236954819Y-117195237D02*
X236954819Y-117004761D01*
X236954819Y-117004761D02*
X237002438Y-116909523D01*
X237002438Y-116909523D02*
X237050057Y-116861904D01*
X237050057Y-116861904D02*
X237145295Y-116814285D01*
X237145295Y-116814285D02*
X237192914Y-116814285D01*
X237192914Y-116814285D02*
X237288152Y-116861904D01*
X237288152Y-116861904D02*
X237335771Y-116909523D01*
X237335771Y-116909523D02*
X237383390Y-117004761D01*
X237383390Y-117004761D02*
X237383390Y-117195237D01*
X237383390Y-117195237D02*
X237431009Y-117290475D01*
X237431009Y-117290475D02*
X237478628Y-117338094D01*
X237478628Y-117338094D02*
X237573866Y-117385713D01*
X237573866Y-117385713D02*
X237764342Y-117385713D01*
X237764342Y-117385713D02*
X237859580Y-117338094D01*
X237859580Y-117338094D02*
X237907200Y-117290475D01*
X237907200Y-117290475D02*
X237954819Y-117195237D01*
X237954819Y-117195237D02*
X237954819Y-117004761D01*
X237954819Y-117004761D02*
X237907200Y-116909523D01*
X237907200Y-116909523D02*
X237859580Y-116861904D01*
X237859580Y-116861904D02*
X237764342Y-116814285D01*
X237764342Y-116814285D02*
X237573866Y-116814285D01*
X237573866Y-116814285D02*
X237478628Y-116861904D01*
X237478628Y-116861904D02*
X237431009Y-116909523D01*
X237431009Y-116909523D02*
X237383390Y-117004761D01*
X228404761Y-141550057D02*
X228309523Y-141502438D01*
X228309523Y-141502438D02*
X228214285Y-141407200D01*
X228214285Y-141407200D02*
X228071428Y-141264342D01*
X228071428Y-141264342D02*
X227976190Y-141216723D01*
X227976190Y-141216723D02*
X227880952Y-141216723D01*
X227928571Y-141454819D02*
X227833333Y-141407200D01*
X227833333Y-141407200D02*
X227738095Y-141311961D01*
X227738095Y-141311961D02*
X227690476Y-141121485D01*
X227690476Y-141121485D02*
X227690476Y-140788152D01*
X227690476Y-140788152D02*
X227738095Y-140597676D01*
X227738095Y-140597676D02*
X227833333Y-140502438D01*
X227833333Y-140502438D02*
X227928571Y-140454819D01*
X227928571Y-140454819D02*
X228119047Y-140454819D01*
X228119047Y-140454819D02*
X228214285Y-140502438D01*
X228214285Y-140502438D02*
X228309523Y-140597676D01*
X228309523Y-140597676D02*
X228357142Y-140788152D01*
X228357142Y-140788152D02*
X228357142Y-141121485D01*
X228357142Y-141121485D02*
X228309523Y-141311961D01*
X228309523Y-141311961D02*
X228214285Y-141407200D01*
X228214285Y-141407200D02*
X228119047Y-141454819D01*
X228119047Y-141454819D02*
X227928571Y-141454819D01*
X229261904Y-140454819D02*
X228785714Y-140454819D01*
X228785714Y-140454819D02*
X228738095Y-140931009D01*
X228738095Y-140931009D02*
X228785714Y-140883390D01*
X228785714Y-140883390D02*
X228880952Y-140835771D01*
X228880952Y-140835771D02*
X229119047Y-140835771D01*
X229119047Y-140835771D02*
X229214285Y-140883390D01*
X229214285Y-140883390D02*
X229261904Y-140931009D01*
X229261904Y-140931009D02*
X229309523Y-141026247D01*
X229309523Y-141026247D02*
X229309523Y-141264342D01*
X229309523Y-141264342D02*
X229261904Y-141359580D01*
X229261904Y-141359580D02*
X229214285Y-141407200D01*
X229214285Y-141407200D02*
X229119047Y-141454819D01*
X229119047Y-141454819D02*
X228880952Y-141454819D01*
X228880952Y-141454819D02*
X228785714Y-141407200D01*
X228785714Y-141407200D02*
X228738095Y-141359580D01*
X223054819Y-101414285D02*
X222054819Y-101414285D01*
X222054819Y-101414285D02*
X222054819Y-101176190D01*
X222054819Y-101176190D02*
X222102438Y-101033333D01*
X222102438Y-101033333D02*
X222197676Y-100938095D01*
X222197676Y-100938095D02*
X222292914Y-100890476D01*
X222292914Y-100890476D02*
X222483390Y-100842857D01*
X222483390Y-100842857D02*
X222626247Y-100842857D01*
X222626247Y-100842857D02*
X222816723Y-100890476D01*
X222816723Y-100890476D02*
X222911961Y-100938095D01*
X222911961Y-100938095D02*
X223007200Y-101033333D01*
X223007200Y-101033333D02*
X223054819Y-101176190D01*
X223054819Y-101176190D02*
X223054819Y-101414285D01*
X223054819Y-99890476D02*
X223054819Y-100461904D01*
X223054819Y-100176190D02*
X222054819Y-100176190D01*
X222054819Y-100176190D02*
X222197676Y-100271428D01*
X222197676Y-100271428D02*
X222292914Y-100366666D01*
X222292914Y-100366666D02*
X222340533Y-100461904D01*
X223054819Y-98938095D02*
X223054819Y-99509523D01*
X223054819Y-99223809D02*
X222054819Y-99223809D01*
X222054819Y-99223809D02*
X222197676Y-99319047D01*
X222197676Y-99319047D02*
X222292914Y-99414285D01*
X222292914Y-99414285D02*
X222340533Y-99509523D01*
X250157142Y-109254819D02*
X249823809Y-108778628D01*
X249585714Y-109254819D02*
X249585714Y-108254819D01*
X249585714Y-108254819D02*
X249966666Y-108254819D01*
X249966666Y-108254819D02*
X250061904Y-108302438D01*
X250061904Y-108302438D02*
X250109523Y-108350057D01*
X250109523Y-108350057D02*
X250157142Y-108445295D01*
X250157142Y-108445295D02*
X250157142Y-108588152D01*
X250157142Y-108588152D02*
X250109523Y-108683390D01*
X250109523Y-108683390D02*
X250061904Y-108731009D01*
X250061904Y-108731009D02*
X249966666Y-108778628D01*
X249966666Y-108778628D02*
X249585714Y-108778628D01*
X251109523Y-109254819D02*
X250538095Y-109254819D01*
X250823809Y-109254819D02*
X250823809Y-108254819D01*
X250823809Y-108254819D02*
X250728571Y-108397676D01*
X250728571Y-108397676D02*
X250633333Y-108492914D01*
X250633333Y-108492914D02*
X250538095Y-108540533D01*
X251442857Y-108254819D02*
X252109523Y-108254819D01*
X252109523Y-108254819D02*
X251680952Y-109254819D01*
X251333333Y-118259580D02*
X251285714Y-118307200D01*
X251285714Y-118307200D02*
X251142857Y-118354819D01*
X251142857Y-118354819D02*
X251047619Y-118354819D01*
X251047619Y-118354819D02*
X250904762Y-118307200D01*
X250904762Y-118307200D02*
X250809524Y-118211961D01*
X250809524Y-118211961D02*
X250761905Y-118116723D01*
X250761905Y-118116723D02*
X250714286Y-117926247D01*
X250714286Y-117926247D02*
X250714286Y-117783390D01*
X250714286Y-117783390D02*
X250761905Y-117592914D01*
X250761905Y-117592914D02*
X250809524Y-117497676D01*
X250809524Y-117497676D02*
X250904762Y-117402438D01*
X250904762Y-117402438D02*
X251047619Y-117354819D01*
X251047619Y-117354819D02*
X251142857Y-117354819D01*
X251142857Y-117354819D02*
X251285714Y-117402438D01*
X251285714Y-117402438D02*
X251333333Y-117450057D01*
X251714286Y-117450057D02*
X251761905Y-117402438D01*
X251761905Y-117402438D02*
X251857143Y-117354819D01*
X251857143Y-117354819D02*
X252095238Y-117354819D01*
X252095238Y-117354819D02*
X252190476Y-117402438D01*
X252190476Y-117402438D02*
X252238095Y-117450057D01*
X252238095Y-117450057D02*
X252285714Y-117545295D01*
X252285714Y-117545295D02*
X252285714Y-117640533D01*
X252285714Y-117640533D02*
X252238095Y-117783390D01*
X252238095Y-117783390D02*
X251666667Y-118354819D01*
X251666667Y-118354819D02*
X252285714Y-118354819D01*
X232654819Y-134642857D02*
X232178628Y-134976190D01*
X232654819Y-135214285D02*
X231654819Y-135214285D01*
X231654819Y-135214285D02*
X231654819Y-134833333D01*
X231654819Y-134833333D02*
X231702438Y-134738095D01*
X231702438Y-134738095D02*
X231750057Y-134690476D01*
X231750057Y-134690476D02*
X231845295Y-134642857D01*
X231845295Y-134642857D02*
X231988152Y-134642857D01*
X231988152Y-134642857D02*
X232083390Y-134690476D01*
X232083390Y-134690476D02*
X232131009Y-134738095D01*
X232131009Y-134738095D02*
X232178628Y-134833333D01*
X232178628Y-134833333D02*
X232178628Y-135214285D01*
X232654819Y-133690476D02*
X232654819Y-134261904D01*
X232654819Y-133976190D02*
X231654819Y-133976190D01*
X231654819Y-133976190D02*
X231797676Y-134071428D01*
X231797676Y-134071428D02*
X231892914Y-134166666D01*
X231892914Y-134166666D02*
X231940533Y-134261904D01*
X231988152Y-132833333D02*
X232654819Y-132833333D01*
X231607200Y-133071428D02*
X232321485Y-133309523D01*
X232321485Y-133309523D02*
X232321485Y-132690476D01*
X219354819Y-122842857D02*
X218878628Y-123176190D01*
X219354819Y-123414285D02*
X218354819Y-123414285D01*
X218354819Y-123414285D02*
X218354819Y-123033333D01*
X218354819Y-123033333D02*
X218402438Y-122938095D01*
X218402438Y-122938095D02*
X218450057Y-122890476D01*
X218450057Y-122890476D02*
X218545295Y-122842857D01*
X218545295Y-122842857D02*
X218688152Y-122842857D01*
X218688152Y-122842857D02*
X218783390Y-122890476D01*
X218783390Y-122890476D02*
X218831009Y-122938095D01*
X218831009Y-122938095D02*
X218878628Y-123033333D01*
X218878628Y-123033333D02*
X218878628Y-123414285D01*
X219354819Y-121890476D02*
X219354819Y-122461904D01*
X219354819Y-122176190D02*
X218354819Y-122176190D01*
X218354819Y-122176190D02*
X218497676Y-122271428D01*
X218497676Y-122271428D02*
X218592914Y-122366666D01*
X218592914Y-122366666D02*
X218640533Y-122461904D01*
X218450057Y-121509523D02*
X218402438Y-121461904D01*
X218402438Y-121461904D02*
X218354819Y-121366666D01*
X218354819Y-121366666D02*
X218354819Y-121128571D01*
X218354819Y-121128571D02*
X218402438Y-121033333D01*
X218402438Y-121033333D02*
X218450057Y-120985714D01*
X218450057Y-120985714D02*
X218545295Y-120938095D01*
X218545295Y-120938095D02*
X218640533Y-120938095D01*
X218640533Y-120938095D02*
X218783390Y-120985714D01*
X218783390Y-120985714D02*
X219354819Y-121557142D01*
X219354819Y-121557142D02*
X219354819Y-120938095D01*
X258959580Y-142642857D02*
X259007200Y-142690476D01*
X259007200Y-142690476D02*
X259054819Y-142833333D01*
X259054819Y-142833333D02*
X259054819Y-142928571D01*
X259054819Y-142928571D02*
X259007200Y-143071428D01*
X259007200Y-143071428D02*
X258911961Y-143166666D01*
X258911961Y-143166666D02*
X258816723Y-143214285D01*
X258816723Y-143214285D02*
X258626247Y-143261904D01*
X258626247Y-143261904D02*
X258483390Y-143261904D01*
X258483390Y-143261904D02*
X258292914Y-143214285D01*
X258292914Y-143214285D02*
X258197676Y-143166666D01*
X258197676Y-143166666D02*
X258102438Y-143071428D01*
X258102438Y-143071428D02*
X258054819Y-142928571D01*
X258054819Y-142928571D02*
X258054819Y-142833333D01*
X258054819Y-142833333D02*
X258102438Y-142690476D01*
X258102438Y-142690476D02*
X258150057Y-142642857D01*
X259054819Y-141690476D02*
X259054819Y-142261904D01*
X259054819Y-141976190D02*
X258054819Y-141976190D01*
X258054819Y-141976190D02*
X258197676Y-142071428D01*
X258197676Y-142071428D02*
X258292914Y-142166666D01*
X258292914Y-142166666D02*
X258340533Y-142261904D01*
X259054819Y-140738095D02*
X259054819Y-141309523D01*
X259054819Y-141023809D02*
X258054819Y-141023809D01*
X258054819Y-141023809D02*
X258197676Y-141119047D01*
X258197676Y-141119047D02*
X258292914Y-141214285D01*
X258292914Y-141214285D02*
X258340533Y-141309523D01*
X223454819Y-143242857D02*
X222978628Y-143576190D01*
X223454819Y-143814285D02*
X222454819Y-143814285D01*
X222454819Y-143814285D02*
X222454819Y-143433333D01*
X222454819Y-143433333D02*
X222502438Y-143338095D01*
X222502438Y-143338095D02*
X222550057Y-143290476D01*
X222550057Y-143290476D02*
X222645295Y-143242857D01*
X222645295Y-143242857D02*
X222788152Y-143242857D01*
X222788152Y-143242857D02*
X222883390Y-143290476D01*
X222883390Y-143290476D02*
X222931009Y-143338095D01*
X222931009Y-143338095D02*
X222978628Y-143433333D01*
X222978628Y-143433333D02*
X222978628Y-143814285D01*
X222550057Y-142861904D02*
X222502438Y-142814285D01*
X222502438Y-142814285D02*
X222454819Y-142719047D01*
X222454819Y-142719047D02*
X222454819Y-142480952D01*
X222454819Y-142480952D02*
X222502438Y-142385714D01*
X222502438Y-142385714D02*
X222550057Y-142338095D01*
X222550057Y-142338095D02*
X222645295Y-142290476D01*
X222645295Y-142290476D02*
X222740533Y-142290476D01*
X222740533Y-142290476D02*
X222883390Y-142338095D01*
X222883390Y-142338095D02*
X223454819Y-142909523D01*
X223454819Y-142909523D02*
X223454819Y-142290476D01*
X222550057Y-141909523D02*
X222502438Y-141861904D01*
X222502438Y-141861904D02*
X222454819Y-141766666D01*
X222454819Y-141766666D02*
X222454819Y-141528571D01*
X222454819Y-141528571D02*
X222502438Y-141433333D01*
X222502438Y-141433333D02*
X222550057Y-141385714D01*
X222550057Y-141385714D02*
X222645295Y-141338095D01*
X222645295Y-141338095D02*
X222740533Y-141338095D01*
X222740533Y-141338095D02*
X222883390Y-141385714D01*
X222883390Y-141385714D02*
X223454819Y-141957142D01*
X223454819Y-141957142D02*
X223454819Y-141338095D01*
X260454819Y-136738094D02*
X259454819Y-136738094D01*
X259454819Y-136738094D02*
X259454819Y-136499999D01*
X259454819Y-136499999D02*
X259502438Y-136357142D01*
X259502438Y-136357142D02*
X259597676Y-136261904D01*
X259597676Y-136261904D02*
X259692914Y-136214285D01*
X259692914Y-136214285D02*
X259883390Y-136166666D01*
X259883390Y-136166666D02*
X260026247Y-136166666D01*
X260026247Y-136166666D02*
X260216723Y-136214285D01*
X260216723Y-136214285D02*
X260311961Y-136261904D01*
X260311961Y-136261904D02*
X260407200Y-136357142D01*
X260407200Y-136357142D02*
X260454819Y-136499999D01*
X260454819Y-136499999D02*
X260454819Y-136738094D01*
X259883390Y-135595237D02*
X259835771Y-135690475D01*
X259835771Y-135690475D02*
X259788152Y-135738094D01*
X259788152Y-135738094D02*
X259692914Y-135785713D01*
X259692914Y-135785713D02*
X259645295Y-135785713D01*
X259645295Y-135785713D02*
X259550057Y-135738094D01*
X259550057Y-135738094D02*
X259502438Y-135690475D01*
X259502438Y-135690475D02*
X259454819Y-135595237D01*
X259454819Y-135595237D02*
X259454819Y-135404761D01*
X259454819Y-135404761D02*
X259502438Y-135309523D01*
X259502438Y-135309523D02*
X259550057Y-135261904D01*
X259550057Y-135261904D02*
X259645295Y-135214285D01*
X259645295Y-135214285D02*
X259692914Y-135214285D01*
X259692914Y-135214285D02*
X259788152Y-135261904D01*
X259788152Y-135261904D02*
X259835771Y-135309523D01*
X259835771Y-135309523D02*
X259883390Y-135404761D01*
X259883390Y-135404761D02*
X259883390Y-135595237D01*
X259883390Y-135595237D02*
X259931009Y-135690475D01*
X259931009Y-135690475D02*
X259978628Y-135738094D01*
X259978628Y-135738094D02*
X260073866Y-135785713D01*
X260073866Y-135785713D02*
X260264342Y-135785713D01*
X260264342Y-135785713D02*
X260359580Y-135738094D01*
X260359580Y-135738094D02*
X260407200Y-135690475D01*
X260407200Y-135690475D02*
X260454819Y-135595237D01*
X260454819Y-135595237D02*
X260454819Y-135404761D01*
X260454819Y-135404761D02*
X260407200Y-135309523D01*
X260407200Y-135309523D02*
X260359580Y-135261904D01*
X260359580Y-135261904D02*
X260264342Y-135214285D01*
X260264342Y-135214285D02*
X260073866Y-135214285D01*
X260073866Y-135214285D02*
X259978628Y-135261904D01*
X259978628Y-135261904D02*
X259931009Y-135309523D01*
X259931009Y-135309523D02*
X259883390Y-135404761D01*
X250457142Y-122024819D02*
X250123809Y-121548628D01*
X249885714Y-122024819D02*
X249885714Y-121024819D01*
X249885714Y-121024819D02*
X250266666Y-121024819D01*
X250266666Y-121024819D02*
X250361904Y-121072438D01*
X250361904Y-121072438D02*
X250409523Y-121120057D01*
X250409523Y-121120057D02*
X250457142Y-121215295D01*
X250457142Y-121215295D02*
X250457142Y-121358152D01*
X250457142Y-121358152D02*
X250409523Y-121453390D01*
X250409523Y-121453390D02*
X250361904Y-121501009D01*
X250361904Y-121501009D02*
X250266666Y-121548628D01*
X250266666Y-121548628D02*
X249885714Y-121548628D01*
X250838095Y-121120057D02*
X250885714Y-121072438D01*
X250885714Y-121072438D02*
X250980952Y-121024819D01*
X250980952Y-121024819D02*
X251219047Y-121024819D01*
X251219047Y-121024819D02*
X251314285Y-121072438D01*
X251314285Y-121072438D02*
X251361904Y-121120057D01*
X251361904Y-121120057D02*
X251409523Y-121215295D01*
X251409523Y-121215295D02*
X251409523Y-121310533D01*
X251409523Y-121310533D02*
X251361904Y-121453390D01*
X251361904Y-121453390D02*
X250790476Y-122024819D01*
X250790476Y-122024819D02*
X251409523Y-122024819D01*
X252361904Y-122024819D02*
X251790476Y-122024819D01*
X252076190Y-122024819D02*
X252076190Y-121024819D01*
X252076190Y-121024819D02*
X251980952Y-121167676D01*
X251980952Y-121167676D02*
X251885714Y-121262914D01*
X251885714Y-121262914D02*
X251790476Y-121310533D01*
X241833333Y-124359580D02*
X241785714Y-124407200D01*
X241785714Y-124407200D02*
X241642857Y-124454819D01*
X241642857Y-124454819D02*
X241547619Y-124454819D01*
X241547619Y-124454819D02*
X241404762Y-124407200D01*
X241404762Y-124407200D02*
X241309524Y-124311961D01*
X241309524Y-124311961D02*
X241261905Y-124216723D01*
X241261905Y-124216723D02*
X241214286Y-124026247D01*
X241214286Y-124026247D02*
X241214286Y-123883390D01*
X241214286Y-123883390D02*
X241261905Y-123692914D01*
X241261905Y-123692914D02*
X241309524Y-123597676D01*
X241309524Y-123597676D02*
X241404762Y-123502438D01*
X241404762Y-123502438D02*
X241547619Y-123454819D01*
X241547619Y-123454819D02*
X241642857Y-123454819D01*
X241642857Y-123454819D02*
X241785714Y-123502438D01*
X241785714Y-123502438D02*
X241833333Y-123550057D01*
X242166667Y-123454819D02*
X242833333Y-123454819D01*
X242833333Y-123454819D02*
X242404762Y-124454819D01*
X239333333Y-111959580D02*
X239285714Y-112007200D01*
X239285714Y-112007200D02*
X239142857Y-112054819D01*
X239142857Y-112054819D02*
X239047619Y-112054819D01*
X239047619Y-112054819D02*
X238904762Y-112007200D01*
X238904762Y-112007200D02*
X238809524Y-111911961D01*
X238809524Y-111911961D02*
X238761905Y-111816723D01*
X238761905Y-111816723D02*
X238714286Y-111626247D01*
X238714286Y-111626247D02*
X238714286Y-111483390D01*
X238714286Y-111483390D02*
X238761905Y-111292914D01*
X238761905Y-111292914D02*
X238809524Y-111197676D01*
X238809524Y-111197676D02*
X238904762Y-111102438D01*
X238904762Y-111102438D02*
X239047619Y-111054819D01*
X239047619Y-111054819D02*
X239142857Y-111054819D01*
X239142857Y-111054819D02*
X239285714Y-111102438D01*
X239285714Y-111102438D02*
X239333333Y-111150057D01*
X240285714Y-112054819D02*
X239714286Y-112054819D01*
X240000000Y-112054819D02*
X240000000Y-111054819D01*
X240000000Y-111054819D02*
X239904762Y-111197676D01*
X239904762Y-111197676D02*
X239809524Y-111292914D01*
X239809524Y-111292914D02*
X239714286Y-111340533D01*
X221957142Y-140854819D02*
X221623809Y-140378628D01*
X221385714Y-140854819D02*
X221385714Y-139854819D01*
X221385714Y-139854819D02*
X221766666Y-139854819D01*
X221766666Y-139854819D02*
X221861904Y-139902438D01*
X221861904Y-139902438D02*
X221909523Y-139950057D01*
X221909523Y-139950057D02*
X221957142Y-140045295D01*
X221957142Y-140045295D02*
X221957142Y-140188152D01*
X221957142Y-140188152D02*
X221909523Y-140283390D01*
X221909523Y-140283390D02*
X221861904Y-140331009D01*
X221861904Y-140331009D02*
X221766666Y-140378628D01*
X221766666Y-140378628D02*
X221385714Y-140378628D01*
X222338095Y-139950057D02*
X222385714Y-139902438D01*
X222385714Y-139902438D02*
X222480952Y-139854819D01*
X222480952Y-139854819D02*
X222719047Y-139854819D01*
X222719047Y-139854819D02*
X222814285Y-139902438D01*
X222814285Y-139902438D02*
X222861904Y-139950057D01*
X222861904Y-139950057D02*
X222909523Y-140045295D01*
X222909523Y-140045295D02*
X222909523Y-140140533D01*
X222909523Y-140140533D02*
X222861904Y-140283390D01*
X222861904Y-140283390D02*
X222290476Y-140854819D01*
X222290476Y-140854819D02*
X222909523Y-140854819D01*
X223242857Y-139854819D02*
X223861904Y-139854819D01*
X223861904Y-139854819D02*
X223528571Y-140235771D01*
X223528571Y-140235771D02*
X223671428Y-140235771D01*
X223671428Y-140235771D02*
X223766666Y-140283390D01*
X223766666Y-140283390D02*
X223814285Y-140331009D01*
X223814285Y-140331009D02*
X223861904Y-140426247D01*
X223861904Y-140426247D02*
X223861904Y-140664342D01*
X223861904Y-140664342D02*
X223814285Y-140759580D01*
X223814285Y-140759580D02*
X223766666Y-140807200D01*
X223766666Y-140807200D02*
X223671428Y-140854819D01*
X223671428Y-140854819D02*
X223385714Y-140854819D01*
X223385714Y-140854819D02*
X223290476Y-140807200D01*
X223290476Y-140807200D02*
X223242857Y-140759580D01*
X224625057Y-128657738D02*
X224577438Y-128752976D01*
X224577438Y-128752976D02*
X224482200Y-128848214D01*
X224482200Y-128848214D02*
X224339342Y-128991071D01*
X224339342Y-128991071D02*
X224291723Y-129086309D01*
X224291723Y-129086309D02*
X224291723Y-129181547D01*
X224529819Y-129133928D02*
X224482200Y-129229166D01*
X224482200Y-129229166D02*
X224386961Y-129324404D01*
X224386961Y-129324404D02*
X224196485Y-129372023D01*
X224196485Y-129372023D02*
X223863152Y-129372023D01*
X223863152Y-129372023D02*
X223672676Y-129324404D01*
X223672676Y-129324404D02*
X223577438Y-129229166D01*
X223577438Y-129229166D02*
X223529819Y-129133928D01*
X223529819Y-129133928D02*
X223529819Y-128943452D01*
X223529819Y-128943452D02*
X223577438Y-128848214D01*
X223577438Y-128848214D02*
X223672676Y-128752976D01*
X223672676Y-128752976D02*
X223863152Y-128705357D01*
X223863152Y-128705357D02*
X224196485Y-128705357D01*
X224196485Y-128705357D02*
X224386961Y-128752976D01*
X224386961Y-128752976D02*
X224482200Y-128848214D01*
X224482200Y-128848214D02*
X224529819Y-128943452D01*
X224529819Y-128943452D02*
X224529819Y-129133928D01*
X223529819Y-128372023D02*
X223529819Y-127752976D01*
X223529819Y-127752976D02*
X223910771Y-128086309D01*
X223910771Y-128086309D02*
X223910771Y-127943452D01*
X223910771Y-127943452D02*
X223958390Y-127848214D01*
X223958390Y-127848214D02*
X224006009Y-127800595D01*
X224006009Y-127800595D02*
X224101247Y-127752976D01*
X224101247Y-127752976D02*
X224339342Y-127752976D01*
X224339342Y-127752976D02*
X224434580Y-127800595D01*
X224434580Y-127800595D02*
X224482200Y-127848214D01*
X224482200Y-127848214D02*
X224529819Y-127943452D01*
X224529819Y-127943452D02*
X224529819Y-128229166D01*
X224529819Y-128229166D02*
X224482200Y-128324404D01*
X224482200Y-128324404D02*
X224434580Y-128372023D01*
X254638095Y-103154819D02*
X254638095Y-103964342D01*
X254638095Y-103964342D02*
X254685714Y-104059580D01*
X254685714Y-104059580D02*
X254733333Y-104107200D01*
X254733333Y-104107200D02*
X254828571Y-104154819D01*
X254828571Y-104154819D02*
X255019047Y-104154819D01*
X255019047Y-104154819D02*
X255114285Y-104107200D01*
X255114285Y-104107200D02*
X255161904Y-104059580D01*
X255161904Y-104059580D02*
X255209523Y-103964342D01*
X255209523Y-103964342D02*
X255209523Y-103154819D01*
X256161904Y-103154819D02*
X255685714Y-103154819D01*
X255685714Y-103154819D02*
X255638095Y-103631009D01*
X255638095Y-103631009D02*
X255685714Y-103583390D01*
X255685714Y-103583390D02*
X255780952Y-103535771D01*
X255780952Y-103535771D02*
X256019047Y-103535771D01*
X256019047Y-103535771D02*
X256114285Y-103583390D01*
X256114285Y-103583390D02*
X256161904Y-103631009D01*
X256161904Y-103631009D02*
X256209523Y-103726247D01*
X256209523Y-103726247D02*
X256209523Y-103964342D01*
X256209523Y-103964342D02*
X256161904Y-104059580D01*
X256161904Y-104059580D02*
X256114285Y-104107200D01*
X256114285Y-104107200D02*
X256019047Y-104154819D01*
X256019047Y-104154819D02*
X255780952Y-104154819D01*
X255780952Y-104154819D02*
X255685714Y-104107200D01*
X255685714Y-104107200D02*
X255638095Y-104059580D01*
X258154819Y-121033333D02*
X258869104Y-121033333D01*
X258869104Y-121033333D02*
X259011961Y-121080952D01*
X259011961Y-121080952D02*
X259107200Y-121176190D01*
X259107200Y-121176190D02*
X259154819Y-121319047D01*
X259154819Y-121319047D02*
X259154819Y-121414285D01*
X258250057Y-120604761D02*
X258202438Y-120557142D01*
X258202438Y-120557142D02*
X258154819Y-120461904D01*
X258154819Y-120461904D02*
X258154819Y-120223809D01*
X258154819Y-120223809D02*
X258202438Y-120128571D01*
X258202438Y-120128571D02*
X258250057Y-120080952D01*
X258250057Y-120080952D02*
X258345295Y-120033333D01*
X258345295Y-120033333D02*
X258440533Y-120033333D01*
X258440533Y-120033333D02*
X258583390Y-120080952D01*
X258583390Y-120080952D02*
X259154819Y-120652380D01*
X259154819Y-120652380D02*
X259154819Y-120033333D01*
X246638095Y-118054819D02*
X246638095Y-118864342D01*
X246638095Y-118864342D02*
X246685714Y-118959580D01*
X246685714Y-118959580D02*
X246733333Y-119007200D01*
X246733333Y-119007200D02*
X246828571Y-119054819D01*
X246828571Y-119054819D02*
X247019047Y-119054819D01*
X247019047Y-119054819D02*
X247114285Y-119007200D01*
X247114285Y-119007200D02*
X247161904Y-118959580D01*
X247161904Y-118959580D02*
X247209523Y-118864342D01*
X247209523Y-118864342D02*
X247209523Y-118054819D01*
X247590476Y-118054819D02*
X248209523Y-118054819D01*
X248209523Y-118054819D02*
X247876190Y-118435771D01*
X247876190Y-118435771D02*
X248019047Y-118435771D01*
X248019047Y-118435771D02*
X248114285Y-118483390D01*
X248114285Y-118483390D02*
X248161904Y-118531009D01*
X248161904Y-118531009D02*
X248209523Y-118626247D01*
X248209523Y-118626247D02*
X248209523Y-118864342D01*
X248209523Y-118864342D02*
X248161904Y-118959580D01*
X248161904Y-118959580D02*
X248114285Y-119007200D01*
X248114285Y-119007200D02*
X248019047Y-119054819D01*
X248019047Y-119054819D02*
X247733333Y-119054819D01*
X247733333Y-119054819D02*
X247638095Y-119007200D01*
X247638095Y-119007200D02*
X247590476Y-118959580D01*
X219904761Y-117250057D02*
X219809523Y-117202438D01*
X219809523Y-117202438D02*
X219714285Y-117107200D01*
X219714285Y-117107200D02*
X219571428Y-116964342D01*
X219571428Y-116964342D02*
X219476190Y-116916723D01*
X219476190Y-116916723D02*
X219380952Y-116916723D01*
X219428571Y-117154819D02*
X219333333Y-117107200D01*
X219333333Y-117107200D02*
X219238095Y-117011961D01*
X219238095Y-117011961D02*
X219190476Y-116821485D01*
X219190476Y-116821485D02*
X219190476Y-116488152D01*
X219190476Y-116488152D02*
X219238095Y-116297676D01*
X219238095Y-116297676D02*
X219333333Y-116202438D01*
X219333333Y-116202438D02*
X219428571Y-116154819D01*
X219428571Y-116154819D02*
X219619047Y-116154819D01*
X219619047Y-116154819D02*
X219714285Y-116202438D01*
X219714285Y-116202438D02*
X219809523Y-116297676D01*
X219809523Y-116297676D02*
X219857142Y-116488152D01*
X219857142Y-116488152D02*
X219857142Y-116821485D01*
X219857142Y-116821485D02*
X219809523Y-117011961D01*
X219809523Y-117011961D02*
X219714285Y-117107200D01*
X219714285Y-117107200D02*
X219619047Y-117154819D01*
X219619047Y-117154819D02*
X219428571Y-117154819D01*
X220238095Y-116250057D02*
X220285714Y-116202438D01*
X220285714Y-116202438D02*
X220380952Y-116154819D01*
X220380952Y-116154819D02*
X220619047Y-116154819D01*
X220619047Y-116154819D02*
X220714285Y-116202438D01*
X220714285Y-116202438D02*
X220761904Y-116250057D01*
X220761904Y-116250057D02*
X220809523Y-116345295D01*
X220809523Y-116345295D02*
X220809523Y-116440533D01*
X220809523Y-116440533D02*
X220761904Y-116583390D01*
X220761904Y-116583390D02*
X220190476Y-117154819D01*
X220190476Y-117154819D02*
X220809523Y-117154819D01*
X235154819Y-118542857D02*
X234678628Y-118876190D01*
X235154819Y-119114285D02*
X234154819Y-119114285D01*
X234154819Y-119114285D02*
X234154819Y-118733333D01*
X234154819Y-118733333D02*
X234202438Y-118638095D01*
X234202438Y-118638095D02*
X234250057Y-118590476D01*
X234250057Y-118590476D02*
X234345295Y-118542857D01*
X234345295Y-118542857D02*
X234488152Y-118542857D01*
X234488152Y-118542857D02*
X234583390Y-118590476D01*
X234583390Y-118590476D02*
X234631009Y-118638095D01*
X234631009Y-118638095D02*
X234678628Y-118733333D01*
X234678628Y-118733333D02*
X234678628Y-119114285D01*
X235154819Y-117590476D02*
X235154819Y-118161904D01*
X235154819Y-117876190D02*
X234154819Y-117876190D01*
X234154819Y-117876190D02*
X234297676Y-117971428D01*
X234297676Y-117971428D02*
X234392914Y-118066666D01*
X234392914Y-118066666D02*
X234440533Y-118161904D01*
X234154819Y-116971428D02*
X234154819Y-116876190D01*
X234154819Y-116876190D02*
X234202438Y-116780952D01*
X234202438Y-116780952D02*
X234250057Y-116733333D01*
X234250057Y-116733333D02*
X234345295Y-116685714D01*
X234345295Y-116685714D02*
X234535771Y-116638095D01*
X234535771Y-116638095D02*
X234773866Y-116638095D01*
X234773866Y-116638095D02*
X234964342Y-116685714D01*
X234964342Y-116685714D02*
X235059580Y-116733333D01*
X235059580Y-116733333D02*
X235107200Y-116780952D01*
X235107200Y-116780952D02*
X235154819Y-116876190D01*
X235154819Y-116876190D02*
X235154819Y-116971428D01*
X235154819Y-116971428D02*
X235107200Y-117066666D01*
X235107200Y-117066666D02*
X235059580Y-117114285D01*
X235059580Y-117114285D02*
X234964342Y-117161904D01*
X234964342Y-117161904D02*
X234773866Y-117209523D01*
X234773866Y-117209523D02*
X234535771Y-117209523D01*
X234535771Y-117209523D02*
X234345295Y-117161904D01*
X234345295Y-117161904D02*
X234250057Y-117114285D01*
X234250057Y-117114285D02*
X234202438Y-117066666D01*
X234202438Y-117066666D02*
X234154819Y-116971428D01*
X258539580Y-114666666D02*
X258587200Y-114714285D01*
X258587200Y-114714285D02*
X258634819Y-114857142D01*
X258634819Y-114857142D02*
X258634819Y-114952380D01*
X258634819Y-114952380D02*
X258587200Y-115095237D01*
X258587200Y-115095237D02*
X258491961Y-115190475D01*
X258491961Y-115190475D02*
X258396723Y-115238094D01*
X258396723Y-115238094D02*
X258206247Y-115285713D01*
X258206247Y-115285713D02*
X258063390Y-115285713D01*
X258063390Y-115285713D02*
X257872914Y-115238094D01*
X257872914Y-115238094D02*
X257777676Y-115190475D01*
X257777676Y-115190475D02*
X257682438Y-115095237D01*
X257682438Y-115095237D02*
X257634819Y-114952380D01*
X257634819Y-114952380D02*
X257634819Y-114857142D01*
X257634819Y-114857142D02*
X257682438Y-114714285D01*
X257682438Y-114714285D02*
X257730057Y-114666666D01*
X257634819Y-114333332D02*
X257634819Y-113714285D01*
X257634819Y-113714285D02*
X258015771Y-114047618D01*
X258015771Y-114047618D02*
X258015771Y-113904761D01*
X258015771Y-113904761D02*
X258063390Y-113809523D01*
X258063390Y-113809523D02*
X258111009Y-113761904D01*
X258111009Y-113761904D02*
X258206247Y-113714285D01*
X258206247Y-113714285D02*
X258444342Y-113714285D01*
X258444342Y-113714285D02*
X258539580Y-113761904D01*
X258539580Y-113761904D02*
X258587200Y-113809523D01*
X258587200Y-113809523D02*
X258634819Y-113904761D01*
X258634819Y-113904761D02*
X258634819Y-114190475D01*
X258634819Y-114190475D02*
X258587200Y-114285713D01*
X258587200Y-114285713D02*
X258539580Y-114333332D01*
X249038095Y-112454819D02*
X249038095Y-113264342D01*
X249038095Y-113264342D02*
X249085714Y-113359580D01*
X249085714Y-113359580D02*
X249133333Y-113407200D01*
X249133333Y-113407200D02*
X249228571Y-113454819D01*
X249228571Y-113454819D02*
X249419047Y-113454819D01*
X249419047Y-113454819D02*
X249514285Y-113407200D01*
X249514285Y-113407200D02*
X249561904Y-113359580D01*
X249561904Y-113359580D02*
X249609523Y-113264342D01*
X249609523Y-113264342D02*
X249609523Y-112454819D01*
X250609523Y-113454819D02*
X250038095Y-113454819D01*
X250323809Y-113454819D02*
X250323809Y-112454819D01*
X250323809Y-112454819D02*
X250228571Y-112597676D01*
X250228571Y-112597676D02*
X250133333Y-112692914D01*
X250133333Y-112692914D02*
X250038095Y-112740533D01*
X225457142Y-130859580D02*
X225409523Y-130907200D01*
X225409523Y-130907200D02*
X225266666Y-130954819D01*
X225266666Y-130954819D02*
X225171428Y-130954819D01*
X225171428Y-130954819D02*
X225028571Y-130907200D01*
X225028571Y-130907200D02*
X224933333Y-130811961D01*
X224933333Y-130811961D02*
X224885714Y-130716723D01*
X224885714Y-130716723D02*
X224838095Y-130526247D01*
X224838095Y-130526247D02*
X224838095Y-130383390D01*
X224838095Y-130383390D02*
X224885714Y-130192914D01*
X224885714Y-130192914D02*
X224933333Y-130097676D01*
X224933333Y-130097676D02*
X225028571Y-130002438D01*
X225028571Y-130002438D02*
X225171428Y-129954819D01*
X225171428Y-129954819D02*
X225266666Y-129954819D01*
X225266666Y-129954819D02*
X225409523Y-130002438D01*
X225409523Y-130002438D02*
X225457142Y-130050057D01*
X226409523Y-130954819D02*
X225838095Y-130954819D01*
X226123809Y-130954819D02*
X226123809Y-129954819D01*
X226123809Y-129954819D02*
X226028571Y-130097676D01*
X226028571Y-130097676D02*
X225933333Y-130192914D01*
X225933333Y-130192914D02*
X225838095Y-130240533D01*
X227266666Y-130288152D02*
X227266666Y-130954819D01*
X227028571Y-129907200D02*
X226790476Y-130621485D01*
X226790476Y-130621485D02*
X227409523Y-130621485D01*
X259857142Y-105659580D02*
X259809523Y-105707200D01*
X259809523Y-105707200D02*
X259666666Y-105754819D01*
X259666666Y-105754819D02*
X259571428Y-105754819D01*
X259571428Y-105754819D02*
X259428571Y-105707200D01*
X259428571Y-105707200D02*
X259333333Y-105611961D01*
X259333333Y-105611961D02*
X259285714Y-105516723D01*
X259285714Y-105516723D02*
X259238095Y-105326247D01*
X259238095Y-105326247D02*
X259238095Y-105183390D01*
X259238095Y-105183390D02*
X259285714Y-104992914D01*
X259285714Y-104992914D02*
X259333333Y-104897676D01*
X259333333Y-104897676D02*
X259428571Y-104802438D01*
X259428571Y-104802438D02*
X259571428Y-104754819D01*
X259571428Y-104754819D02*
X259666666Y-104754819D01*
X259666666Y-104754819D02*
X259809523Y-104802438D01*
X259809523Y-104802438D02*
X259857142Y-104850057D01*
X260809523Y-105754819D02*
X260238095Y-105754819D01*
X260523809Y-105754819D02*
X260523809Y-104754819D01*
X260523809Y-104754819D02*
X260428571Y-104897676D01*
X260428571Y-104897676D02*
X260333333Y-104992914D01*
X260333333Y-104992914D02*
X260238095Y-105040533D01*
X261714285Y-104754819D02*
X261238095Y-104754819D01*
X261238095Y-104754819D02*
X261190476Y-105231009D01*
X261190476Y-105231009D02*
X261238095Y-105183390D01*
X261238095Y-105183390D02*
X261333333Y-105135771D01*
X261333333Y-105135771D02*
X261571428Y-105135771D01*
X261571428Y-105135771D02*
X261666666Y-105183390D01*
X261666666Y-105183390D02*
X261714285Y-105231009D01*
X261714285Y-105231009D02*
X261761904Y-105326247D01*
X261761904Y-105326247D02*
X261761904Y-105564342D01*
X261761904Y-105564342D02*
X261714285Y-105659580D01*
X261714285Y-105659580D02*
X261666666Y-105707200D01*
X261666666Y-105707200D02*
X261571428Y-105754819D01*
X261571428Y-105754819D02*
X261333333Y-105754819D01*
X261333333Y-105754819D02*
X261238095Y-105707200D01*
X261238095Y-105707200D02*
X261190476Y-105659580D01*
X236504761Y-99650057D02*
X236409523Y-99602438D01*
X236409523Y-99602438D02*
X236314285Y-99507200D01*
X236314285Y-99507200D02*
X236171428Y-99364342D01*
X236171428Y-99364342D02*
X236076190Y-99316723D01*
X236076190Y-99316723D02*
X235980952Y-99316723D01*
X236028571Y-99554819D02*
X235933333Y-99507200D01*
X235933333Y-99507200D02*
X235838095Y-99411961D01*
X235838095Y-99411961D02*
X235790476Y-99221485D01*
X235790476Y-99221485D02*
X235790476Y-98888152D01*
X235790476Y-98888152D02*
X235838095Y-98697676D01*
X235838095Y-98697676D02*
X235933333Y-98602438D01*
X235933333Y-98602438D02*
X236028571Y-98554819D01*
X236028571Y-98554819D02*
X236219047Y-98554819D01*
X236219047Y-98554819D02*
X236314285Y-98602438D01*
X236314285Y-98602438D02*
X236409523Y-98697676D01*
X236409523Y-98697676D02*
X236457142Y-98888152D01*
X236457142Y-98888152D02*
X236457142Y-99221485D01*
X236457142Y-99221485D02*
X236409523Y-99411961D01*
X236409523Y-99411961D02*
X236314285Y-99507200D01*
X236314285Y-99507200D02*
X236219047Y-99554819D01*
X236219047Y-99554819D02*
X236028571Y-99554819D01*
X236790476Y-98554819D02*
X237457142Y-98554819D01*
X237457142Y-98554819D02*
X237028571Y-99554819D01*
X231024819Y-140892857D02*
X230548628Y-141226190D01*
X231024819Y-141464285D02*
X230024819Y-141464285D01*
X230024819Y-141464285D02*
X230024819Y-141083333D01*
X230024819Y-141083333D02*
X230072438Y-140988095D01*
X230072438Y-140988095D02*
X230120057Y-140940476D01*
X230120057Y-140940476D02*
X230215295Y-140892857D01*
X230215295Y-140892857D02*
X230358152Y-140892857D01*
X230358152Y-140892857D02*
X230453390Y-140940476D01*
X230453390Y-140940476D02*
X230501009Y-140988095D01*
X230501009Y-140988095D02*
X230548628Y-141083333D01*
X230548628Y-141083333D02*
X230548628Y-141464285D01*
X231024819Y-139940476D02*
X231024819Y-140511904D01*
X231024819Y-140226190D02*
X230024819Y-140226190D01*
X230024819Y-140226190D02*
X230167676Y-140321428D01*
X230167676Y-140321428D02*
X230262914Y-140416666D01*
X230262914Y-140416666D02*
X230310533Y-140511904D01*
X230024819Y-139035714D02*
X230024819Y-139511904D01*
X230024819Y-139511904D02*
X230501009Y-139559523D01*
X230501009Y-139559523D02*
X230453390Y-139511904D01*
X230453390Y-139511904D02*
X230405771Y-139416666D01*
X230405771Y-139416666D02*
X230405771Y-139178571D01*
X230405771Y-139178571D02*
X230453390Y-139083333D01*
X230453390Y-139083333D02*
X230501009Y-139035714D01*
X230501009Y-139035714D02*
X230596247Y-138988095D01*
X230596247Y-138988095D02*
X230834342Y-138988095D01*
X230834342Y-138988095D02*
X230929580Y-139035714D01*
X230929580Y-139035714D02*
X230977200Y-139083333D01*
X230977200Y-139083333D02*
X231024819Y-139178571D01*
X231024819Y-139178571D02*
X231024819Y-139416666D01*
X231024819Y-139416666D02*
X230977200Y-139511904D01*
X230977200Y-139511904D02*
X230929580Y-139559523D01*
X266054819Y-107142857D02*
X265578628Y-107476190D01*
X266054819Y-107714285D02*
X265054819Y-107714285D01*
X265054819Y-107714285D02*
X265054819Y-107333333D01*
X265054819Y-107333333D02*
X265102438Y-107238095D01*
X265102438Y-107238095D02*
X265150057Y-107190476D01*
X265150057Y-107190476D02*
X265245295Y-107142857D01*
X265245295Y-107142857D02*
X265388152Y-107142857D01*
X265388152Y-107142857D02*
X265483390Y-107190476D01*
X265483390Y-107190476D02*
X265531009Y-107238095D01*
X265531009Y-107238095D02*
X265578628Y-107333333D01*
X265578628Y-107333333D02*
X265578628Y-107714285D01*
X265150057Y-106761904D02*
X265102438Y-106714285D01*
X265102438Y-106714285D02*
X265054819Y-106619047D01*
X265054819Y-106619047D02*
X265054819Y-106380952D01*
X265054819Y-106380952D02*
X265102438Y-106285714D01*
X265102438Y-106285714D02*
X265150057Y-106238095D01*
X265150057Y-106238095D02*
X265245295Y-106190476D01*
X265245295Y-106190476D02*
X265340533Y-106190476D01*
X265340533Y-106190476D02*
X265483390Y-106238095D01*
X265483390Y-106238095D02*
X266054819Y-106809523D01*
X266054819Y-106809523D02*
X266054819Y-106190476D01*
X265388152Y-105333333D02*
X266054819Y-105333333D01*
X265007200Y-105571428D02*
X265721485Y-105809523D01*
X265721485Y-105809523D02*
X265721485Y-105190476D01*
X232554819Y-129842857D02*
X232078628Y-130176190D01*
X232554819Y-130414285D02*
X231554819Y-130414285D01*
X231554819Y-130414285D02*
X231554819Y-130033333D01*
X231554819Y-130033333D02*
X231602438Y-129938095D01*
X231602438Y-129938095D02*
X231650057Y-129890476D01*
X231650057Y-129890476D02*
X231745295Y-129842857D01*
X231745295Y-129842857D02*
X231888152Y-129842857D01*
X231888152Y-129842857D02*
X231983390Y-129890476D01*
X231983390Y-129890476D02*
X232031009Y-129938095D01*
X232031009Y-129938095D02*
X232078628Y-130033333D01*
X232078628Y-130033333D02*
X232078628Y-130414285D01*
X231650057Y-129461904D02*
X231602438Y-129414285D01*
X231602438Y-129414285D02*
X231554819Y-129319047D01*
X231554819Y-129319047D02*
X231554819Y-129080952D01*
X231554819Y-129080952D02*
X231602438Y-128985714D01*
X231602438Y-128985714D02*
X231650057Y-128938095D01*
X231650057Y-128938095D02*
X231745295Y-128890476D01*
X231745295Y-128890476D02*
X231840533Y-128890476D01*
X231840533Y-128890476D02*
X231983390Y-128938095D01*
X231983390Y-128938095D02*
X232554819Y-129509523D01*
X232554819Y-129509523D02*
X232554819Y-128890476D01*
X232554819Y-128414285D02*
X232554819Y-128223809D01*
X232554819Y-128223809D02*
X232507200Y-128128571D01*
X232507200Y-128128571D02*
X232459580Y-128080952D01*
X232459580Y-128080952D02*
X232316723Y-127985714D01*
X232316723Y-127985714D02*
X232126247Y-127938095D01*
X232126247Y-127938095D02*
X231745295Y-127938095D01*
X231745295Y-127938095D02*
X231650057Y-127985714D01*
X231650057Y-127985714D02*
X231602438Y-128033333D01*
X231602438Y-128033333D02*
X231554819Y-128128571D01*
X231554819Y-128128571D02*
X231554819Y-128319047D01*
X231554819Y-128319047D02*
X231602438Y-128414285D01*
X231602438Y-128414285D02*
X231650057Y-128461904D01*
X231650057Y-128461904D02*
X231745295Y-128509523D01*
X231745295Y-128509523D02*
X231983390Y-128509523D01*
X231983390Y-128509523D02*
X232078628Y-128461904D01*
X232078628Y-128461904D02*
X232126247Y-128414285D01*
X232126247Y-128414285D02*
X232173866Y-128319047D01*
X232173866Y-128319047D02*
X232173866Y-128128571D01*
X232173866Y-128128571D02*
X232126247Y-128033333D01*
X232126247Y-128033333D02*
X232078628Y-127985714D01*
X232078628Y-127985714D02*
X231983390Y-127938095D01*
X237661905Y-108954819D02*
X237661905Y-107954819D01*
X237661905Y-107954819D02*
X237900000Y-107954819D01*
X237900000Y-107954819D02*
X238042857Y-108002438D01*
X238042857Y-108002438D02*
X238138095Y-108097676D01*
X238138095Y-108097676D02*
X238185714Y-108192914D01*
X238185714Y-108192914D02*
X238233333Y-108383390D01*
X238233333Y-108383390D02*
X238233333Y-108526247D01*
X238233333Y-108526247D02*
X238185714Y-108716723D01*
X238185714Y-108716723D02*
X238138095Y-108811961D01*
X238138095Y-108811961D02*
X238042857Y-108907200D01*
X238042857Y-108907200D02*
X237900000Y-108954819D01*
X237900000Y-108954819D02*
X237661905Y-108954819D01*
X239185714Y-108954819D02*
X238614286Y-108954819D01*
X238900000Y-108954819D02*
X238900000Y-107954819D01*
X238900000Y-107954819D02*
X238804762Y-108097676D01*
X238804762Y-108097676D02*
X238709524Y-108192914D01*
X238709524Y-108192914D02*
X238614286Y-108240533D01*
X260407200Y-115433332D02*
X260454819Y-115290475D01*
X260454819Y-115290475D02*
X260454819Y-115052380D01*
X260454819Y-115052380D02*
X260407200Y-114957142D01*
X260407200Y-114957142D02*
X260359580Y-114909523D01*
X260359580Y-114909523D02*
X260264342Y-114861904D01*
X260264342Y-114861904D02*
X260169104Y-114861904D01*
X260169104Y-114861904D02*
X260073866Y-114909523D01*
X260073866Y-114909523D02*
X260026247Y-114957142D01*
X260026247Y-114957142D02*
X259978628Y-115052380D01*
X259978628Y-115052380D02*
X259931009Y-115242856D01*
X259931009Y-115242856D02*
X259883390Y-115338094D01*
X259883390Y-115338094D02*
X259835771Y-115385713D01*
X259835771Y-115385713D02*
X259740533Y-115433332D01*
X259740533Y-115433332D02*
X259645295Y-115433332D01*
X259645295Y-115433332D02*
X259550057Y-115385713D01*
X259550057Y-115385713D02*
X259502438Y-115338094D01*
X259502438Y-115338094D02*
X259454819Y-115242856D01*
X259454819Y-115242856D02*
X259454819Y-115004761D01*
X259454819Y-115004761D02*
X259502438Y-114861904D01*
X259454819Y-114528570D02*
X260454819Y-114290475D01*
X260454819Y-114290475D02*
X259740533Y-114099999D01*
X259740533Y-114099999D02*
X260454819Y-113909523D01*
X260454819Y-113909523D02*
X259454819Y-113671428D01*
X260454819Y-112766666D02*
X260454819Y-113338094D01*
X260454819Y-113052380D02*
X259454819Y-113052380D01*
X259454819Y-113052380D02*
X259597676Y-113147618D01*
X259597676Y-113147618D02*
X259692914Y-113242856D01*
X259692914Y-113242856D02*
X259740533Y-113338094D01*
X223533333Y-108854819D02*
X223200000Y-108378628D01*
X222961905Y-108854819D02*
X222961905Y-107854819D01*
X222961905Y-107854819D02*
X223342857Y-107854819D01*
X223342857Y-107854819D02*
X223438095Y-107902438D01*
X223438095Y-107902438D02*
X223485714Y-107950057D01*
X223485714Y-107950057D02*
X223533333Y-108045295D01*
X223533333Y-108045295D02*
X223533333Y-108188152D01*
X223533333Y-108188152D02*
X223485714Y-108283390D01*
X223485714Y-108283390D02*
X223438095Y-108331009D01*
X223438095Y-108331009D02*
X223342857Y-108378628D01*
X223342857Y-108378628D02*
X222961905Y-108378628D01*
X223866667Y-107854819D02*
X224533333Y-107854819D01*
X224533333Y-107854819D02*
X224104762Y-108854819D01*
X248433333Y-111054819D02*
X248100000Y-110578628D01*
X247861905Y-111054819D02*
X247861905Y-110054819D01*
X247861905Y-110054819D02*
X248242857Y-110054819D01*
X248242857Y-110054819D02*
X248338095Y-110102438D01*
X248338095Y-110102438D02*
X248385714Y-110150057D01*
X248385714Y-110150057D02*
X248433333Y-110245295D01*
X248433333Y-110245295D02*
X248433333Y-110388152D01*
X248433333Y-110388152D02*
X248385714Y-110483390D01*
X248385714Y-110483390D02*
X248338095Y-110531009D01*
X248338095Y-110531009D02*
X248242857Y-110578628D01*
X248242857Y-110578628D02*
X247861905Y-110578628D01*
X248766667Y-110054819D02*
X249385714Y-110054819D01*
X249385714Y-110054819D02*
X249052381Y-110435771D01*
X249052381Y-110435771D02*
X249195238Y-110435771D01*
X249195238Y-110435771D02*
X249290476Y-110483390D01*
X249290476Y-110483390D02*
X249338095Y-110531009D01*
X249338095Y-110531009D02*
X249385714Y-110626247D01*
X249385714Y-110626247D02*
X249385714Y-110864342D01*
X249385714Y-110864342D02*
X249338095Y-110959580D01*
X249338095Y-110959580D02*
X249290476Y-111007200D01*
X249290476Y-111007200D02*
X249195238Y-111054819D01*
X249195238Y-111054819D02*
X248909524Y-111054819D01*
X248909524Y-111054819D02*
X248814286Y-111007200D01*
X248814286Y-111007200D02*
X248766667Y-110959580D01*
X256485714Y-103254819D02*
X256485714Y-102254819D01*
X256485714Y-102254819D02*
X256723809Y-102254819D01*
X256723809Y-102254819D02*
X256866666Y-102302438D01*
X256866666Y-102302438D02*
X256961904Y-102397676D01*
X256961904Y-102397676D02*
X257009523Y-102492914D01*
X257009523Y-102492914D02*
X257057142Y-102683390D01*
X257057142Y-102683390D02*
X257057142Y-102826247D01*
X257057142Y-102826247D02*
X257009523Y-103016723D01*
X257009523Y-103016723D02*
X256961904Y-103111961D01*
X256961904Y-103111961D02*
X256866666Y-103207200D01*
X256866666Y-103207200D02*
X256723809Y-103254819D01*
X256723809Y-103254819D02*
X256485714Y-103254819D01*
X258009523Y-103254819D02*
X257438095Y-103254819D01*
X257723809Y-103254819D02*
X257723809Y-102254819D01*
X257723809Y-102254819D02*
X257628571Y-102397676D01*
X257628571Y-102397676D02*
X257533333Y-102492914D01*
X257533333Y-102492914D02*
X257438095Y-102540533D01*
X258628571Y-102254819D02*
X258723809Y-102254819D01*
X258723809Y-102254819D02*
X258819047Y-102302438D01*
X258819047Y-102302438D02*
X258866666Y-102350057D01*
X258866666Y-102350057D02*
X258914285Y-102445295D01*
X258914285Y-102445295D02*
X258961904Y-102635771D01*
X258961904Y-102635771D02*
X258961904Y-102873866D01*
X258961904Y-102873866D02*
X258914285Y-103064342D01*
X258914285Y-103064342D02*
X258866666Y-103159580D01*
X258866666Y-103159580D02*
X258819047Y-103207200D01*
X258819047Y-103207200D02*
X258723809Y-103254819D01*
X258723809Y-103254819D02*
X258628571Y-103254819D01*
X258628571Y-103254819D02*
X258533333Y-103207200D01*
X258533333Y-103207200D02*
X258485714Y-103159580D01*
X258485714Y-103159580D02*
X258438095Y-103064342D01*
X258438095Y-103064342D02*
X258390476Y-102873866D01*
X258390476Y-102873866D02*
X258390476Y-102635771D01*
X258390476Y-102635771D02*
X258438095Y-102445295D01*
X258438095Y-102445295D02*
X258485714Y-102350057D01*
X258485714Y-102350057D02*
X258533333Y-102302438D01*
X258533333Y-102302438D02*
X258628571Y-102254819D01*
X229133333Y-108559580D02*
X229085714Y-108607200D01*
X229085714Y-108607200D02*
X228942857Y-108654819D01*
X228942857Y-108654819D02*
X228847619Y-108654819D01*
X228847619Y-108654819D02*
X228704762Y-108607200D01*
X228704762Y-108607200D02*
X228609524Y-108511961D01*
X228609524Y-108511961D02*
X228561905Y-108416723D01*
X228561905Y-108416723D02*
X228514286Y-108226247D01*
X228514286Y-108226247D02*
X228514286Y-108083390D01*
X228514286Y-108083390D02*
X228561905Y-107892914D01*
X228561905Y-107892914D02*
X228609524Y-107797676D01*
X228609524Y-107797676D02*
X228704762Y-107702438D01*
X228704762Y-107702438D02*
X228847619Y-107654819D01*
X228847619Y-107654819D02*
X228942857Y-107654819D01*
X228942857Y-107654819D02*
X229085714Y-107702438D01*
X229085714Y-107702438D02*
X229133333Y-107750057D01*
X230038095Y-107654819D02*
X229561905Y-107654819D01*
X229561905Y-107654819D02*
X229514286Y-108131009D01*
X229514286Y-108131009D02*
X229561905Y-108083390D01*
X229561905Y-108083390D02*
X229657143Y-108035771D01*
X229657143Y-108035771D02*
X229895238Y-108035771D01*
X229895238Y-108035771D02*
X229990476Y-108083390D01*
X229990476Y-108083390D02*
X230038095Y-108131009D01*
X230038095Y-108131009D02*
X230085714Y-108226247D01*
X230085714Y-108226247D02*
X230085714Y-108464342D01*
X230085714Y-108464342D02*
X230038095Y-108559580D01*
X230038095Y-108559580D02*
X229990476Y-108607200D01*
X229990476Y-108607200D02*
X229895238Y-108654819D01*
X229895238Y-108654819D02*
X229657143Y-108654819D01*
X229657143Y-108654819D02*
X229561905Y-108607200D01*
X229561905Y-108607200D02*
X229514286Y-108559580D01*
X253757142Y-123054819D02*
X253423809Y-122578628D01*
X253185714Y-123054819D02*
X253185714Y-122054819D01*
X253185714Y-122054819D02*
X253566666Y-122054819D01*
X253566666Y-122054819D02*
X253661904Y-122102438D01*
X253661904Y-122102438D02*
X253709523Y-122150057D01*
X253709523Y-122150057D02*
X253757142Y-122245295D01*
X253757142Y-122245295D02*
X253757142Y-122388152D01*
X253757142Y-122388152D02*
X253709523Y-122483390D01*
X253709523Y-122483390D02*
X253661904Y-122531009D01*
X253661904Y-122531009D02*
X253566666Y-122578628D01*
X253566666Y-122578628D02*
X253185714Y-122578628D01*
X254138095Y-122150057D02*
X254185714Y-122102438D01*
X254185714Y-122102438D02*
X254280952Y-122054819D01*
X254280952Y-122054819D02*
X254519047Y-122054819D01*
X254519047Y-122054819D02*
X254614285Y-122102438D01*
X254614285Y-122102438D02*
X254661904Y-122150057D01*
X254661904Y-122150057D02*
X254709523Y-122245295D01*
X254709523Y-122245295D02*
X254709523Y-122340533D01*
X254709523Y-122340533D02*
X254661904Y-122483390D01*
X254661904Y-122483390D02*
X254090476Y-123054819D01*
X254090476Y-123054819D02*
X254709523Y-123054819D01*
X255328571Y-122054819D02*
X255423809Y-122054819D01*
X255423809Y-122054819D02*
X255519047Y-122102438D01*
X255519047Y-122102438D02*
X255566666Y-122150057D01*
X255566666Y-122150057D02*
X255614285Y-122245295D01*
X255614285Y-122245295D02*
X255661904Y-122435771D01*
X255661904Y-122435771D02*
X255661904Y-122673866D01*
X255661904Y-122673866D02*
X255614285Y-122864342D01*
X255614285Y-122864342D02*
X255566666Y-122959580D01*
X255566666Y-122959580D02*
X255519047Y-123007200D01*
X255519047Y-123007200D02*
X255423809Y-123054819D01*
X255423809Y-123054819D02*
X255328571Y-123054819D01*
X255328571Y-123054819D02*
X255233333Y-123007200D01*
X255233333Y-123007200D02*
X255185714Y-122959580D01*
X255185714Y-122959580D02*
X255138095Y-122864342D01*
X255138095Y-122864342D02*
X255090476Y-122673866D01*
X255090476Y-122673866D02*
X255090476Y-122435771D01*
X255090476Y-122435771D02*
X255138095Y-122245295D01*
X255138095Y-122245295D02*
X255185714Y-122150057D01*
X255185714Y-122150057D02*
X255233333Y-122102438D01*
X255233333Y-122102438D02*
X255328571Y-122054819D01*
X248954819Y-109142857D02*
X248478628Y-109476190D01*
X248954819Y-109714285D02*
X247954819Y-109714285D01*
X247954819Y-109714285D02*
X247954819Y-109333333D01*
X247954819Y-109333333D02*
X248002438Y-109238095D01*
X248002438Y-109238095D02*
X248050057Y-109190476D01*
X248050057Y-109190476D02*
X248145295Y-109142857D01*
X248145295Y-109142857D02*
X248288152Y-109142857D01*
X248288152Y-109142857D02*
X248383390Y-109190476D01*
X248383390Y-109190476D02*
X248431009Y-109238095D01*
X248431009Y-109238095D02*
X248478628Y-109333333D01*
X248478628Y-109333333D02*
X248478628Y-109714285D01*
X247954819Y-108809523D02*
X247954819Y-108190476D01*
X247954819Y-108190476D02*
X248335771Y-108523809D01*
X248335771Y-108523809D02*
X248335771Y-108380952D01*
X248335771Y-108380952D02*
X248383390Y-108285714D01*
X248383390Y-108285714D02*
X248431009Y-108238095D01*
X248431009Y-108238095D02*
X248526247Y-108190476D01*
X248526247Y-108190476D02*
X248764342Y-108190476D01*
X248764342Y-108190476D02*
X248859580Y-108238095D01*
X248859580Y-108238095D02*
X248907200Y-108285714D01*
X248907200Y-108285714D02*
X248954819Y-108380952D01*
X248954819Y-108380952D02*
X248954819Y-108666666D01*
X248954819Y-108666666D02*
X248907200Y-108761904D01*
X248907200Y-108761904D02*
X248859580Y-108809523D01*
X247954819Y-107571428D02*
X247954819Y-107476190D01*
X247954819Y-107476190D02*
X248002438Y-107380952D01*
X248002438Y-107380952D02*
X248050057Y-107333333D01*
X248050057Y-107333333D02*
X248145295Y-107285714D01*
X248145295Y-107285714D02*
X248335771Y-107238095D01*
X248335771Y-107238095D02*
X248573866Y-107238095D01*
X248573866Y-107238095D02*
X248764342Y-107285714D01*
X248764342Y-107285714D02*
X248859580Y-107333333D01*
X248859580Y-107333333D02*
X248907200Y-107380952D01*
X248907200Y-107380952D02*
X248954819Y-107476190D01*
X248954819Y-107476190D02*
X248954819Y-107571428D01*
X248954819Y-107571428D02*
X248907200Y-107666666D01*
X248907200Y-107666666D02*
X248859580Y-107714285D01*
X248859580Y-107714285D02*
X248764342Y-107761904D01*
X248764342Y-107761904D02*
X248573866Y-107809523D01*
X248573866Y-107809523D02*
X248335771Y-107809523D01*
X248335771Y-107809523D02*
X248145295Y-107761904D01*
X248145295Y-107761904D02*
X248050057Y-107714285D01*
X248050057Y-107714285D02*
X248002438Y-107666666D01*
X248002438Y-107666666D02*
X247954819Y-107571428D01*
X255650057Y-106595238D02*
X255602438Y-106690476D01*
X255602438Y-106690476D02*
X255507200Y-106785714D01*
X255507200Y-106785714D02*
X255364342Y-106928571D01*
X255364342Y-106928571D02*
X255316723Y-107023809D01*
X255316723Y-107023809D02*
X255316723Y-107119047D01*
X255554819Y-107071428D02*
X255507200Y-107166666D01*
X255507200Y-107166666D02*
X255411961Y-107261904D01*
X255411961Y-107261904D02*
X255221485Y-107309523D01*
X255221485Y-107309523D02*
X254888152Y-107309523D01*
X254888152Y-107309523D02*
X254697676Y-107261904D01*
X254697676Y-107261904D02*
X254602438Y-107166666D01*
X254602438Y-107166666D02*
X254554819Y-107071428D01*
X254554819Y-107071428D02*
X254554819Y-106880952D01*
X254554819Y-106880952D02*
X254602438Y-106785714D01*
X254602438Y-106785714D02*
X254697676Y-106690476D01*
X254697676Y-106690476D02*
X254888152Y-106642857D01*
X254888152Y-106642857D02*
X255221485Y-106642857D01*
X255221485Y-106642857D02*
X255411961Y-106690476D01*
X255411961Y-106690476D02*
X255507200Y-106785714D01*
X255507200Y-106785714D02*
X255554819Y-106880952D01*
X255554819Y-106880952D02*
X255554819Y-107071428D01*
X255554819Y-105690476D02*
X255554819Y-106261904D01*
X255554819Y-105976190D02*
X254554819Y-105976190D01*
X254554819Y-105976190D02*
X254697676Y-106071428D01*
X254697676Y-106071428D02*
X254792914Y-106166666D01*
X254792914Y-106166666D02*
X254840533Y-106261904D01*
X236166666Y-100654819D02*
X236166666Y-101369104D01*
X236166666Y-101369104D02*
X236119047Y-101511961D01*
X236119047Y-101511961D02*
X236023809Y-101607200D01*
X236023809Y-101607200D02*
X235880952Y-101654819D01*
X235880952Y-101654819D02*
X235785714Y-101654819D01*
X237166666Y-101654819D02*
X236595238Y-101654819D01*
X236880952Y-101654819D02*
X236880952Y-100654819D01*
X236880952Y-100654819D02*
X236785714Y-100797676D01*
X236785714Y-100797676D02*
X236690476Y-100892914D01*
X236690476Y-100892914D02*
X236595238Y-100940533D01*
X257357142Y-130679580D02*
X257309523Y-130727200D01*
X257309523Y-130727200D02*
X257166666Y-130774819D01*
X257166666Y-130774819D02*
X257071428Y-130774819D01*
X257071428Y-130774819D02*
X256928571Y-130727200D01*
X256928571Y-130727200D02*
X256833333Y-130631961D01*
X256833333Y-130631961D02*
X256785714Y-130536723D01*
X256785714Y-130536723D02*
X256738095Y-130346247D01*
X256738095Y-130346247D02*
X256738095Y-130203390D01*
X256738095Y-130203390D02*
X256785714Y-130012914D01*
X256785714Y-130012914D02*
X256833333Y-129917676D01*
X256833333Y-129917676D02*
X256928571Y-129822438D01*
X256928571Y-129822438D02*
X257071428Y-129774819D01*
X257071428Y-129774819D02*
X257166666Y-129774819D01*
X257166666Y-129774819D02*
X257309523Y-129822438D01*
X257309523Y-129822438D02*
X257357142Y-129870057D01*
X258309523Y-130774819D02*
X257738095Y-130774819D01*
X258023809Y-130774819D02*
X258023809Y-129774819D01*
X258023809Y-129774819D02*
X257928571Y-129917676D01*
X257928571Y-129917676D02*
X257833333Y-130012914D01*
X257833333Y-130012914D02*
X257738095Y-130060533D01*
X258642857Y-129774819D02*
X259261904Y-129774819D01*
X259261904Y-129774819D02*
X258928571Y-130155771D01*
X258928571Y-130155771D02*
X259071428Y-130155771D01*
X259071428Y-130155771D02*
X259166666Y-130203390D01*
X259166666Y-130203390D02*
X259214285Y-130251009D01*
X259214285Y-130251009D02*
X259261904Y-130346247D01*
X259261904Y-130346247D02*
X259261904Y-130584342D01*
X259261904Y-130584342D02*
X259214285Y-130679580D01*
X259214285Y-130679580D02*
X259166666Y-130727200D01*
X259166666Y-130727200D02*
X259071428Y-130774819D01*
X259071428Y-130774819D02*
X258785714Y-130774819D01*
X258785714Y-130774819D02*
X258690476Y-130727200D01*
X258690476Y-130727200D02*
X258642857Y-130679580D01*
X230957142Y-99054819D02*
X230623809Y-98578628D01*
X230385714Y-99054819D02*
X230385714Y-98054819D01*
X230385714Y-98054819D02*
X230766666Y-98054819D01*
X230766666Y-98054819D02*
X230861904Y-98102438D01*
X230861904Y-98102438D02*
X230909523Y-98150057D01*
X230909523Y-98150057D02*
X230957142Y-98245295D01*
X230957142Y-98245295D02*
X230957142Y-98388152D01*
X230957142Y-98388152D02*
X230909523Y-98483390D01*
X230909523Y-98483390D02*
X230861904Y-98531009D01*
X230861904Y-98531009D02*
X230766666Y-98578628D01*
X230766666Y-98578628D02*
X230385714Y-98578628D01*
X231338095Y-98150057D02*
X231385714Y-98102438D01*
X231385714Y-98102438D02*
X231480952Y-98054819D01*
X231480952Y-98054819D02*
X231719047Y-98054819D01*
X231719047Y-98054819D02*
X231814285Y-98102438D01*
X231814285Y-98102438D02*
X231861904Y-98150057D01*
X231861904Y-98150057D02*
X231909523Y-98245295D01*
X231909523Y-98245295D02*
X231909523Y-98340533D01*
X231909523Y-98340533D02*
X231861904Y-98483390D01*
X231861904Y-98483390D02*
X231290476Y-99054819D01*
X231290476Y-99054819D02*
X231909523Y-99054819D01*
X232766666Y-98054819D02*
X232576190Y-98054819D01*
X232576190Y-98054819D02*
X232480952Y-98102438D01*
X232480952Y-98102438D02*
X232433333Y-98150057D01*
X232433333Y-98150057D02*
X232338095Y-98292914D01*
X232338095Y-98292914D02*
X232290476Y-98483390D01*
X232290476Y-98483390D02*
X232290476Y-98864342D01*
X232290476Y-98864342D02*
X232338095Y-98959580D01*
X232338095Y-98959580D02*
X232385714Y-99007200D01*
X232385714Y-99007200D02*
X232480952Y-99054819D01*
X232480952Y-99054819D02*
X232671428Y-99054819D01*
X232671428Y-99054819D02*
X232766666Y-99007200D01*
X232766666Y-99007200D02*
X232814285Y-98959580D01*
X232814285Y-98959580D02*
X232861904Y-98864342D01*
X232861904Y-98864342D02*
X232861904Y-98626247D01*
X232861904Y-98626247D02*
X232814285Y-98531009D01*
X232814285Y-98531009D02*
X232766666Y-98483390D01*
X232766666Y-98483390D02*
X232671428Y-98435771D01*
X232671428Y-98435771D02*
X232480952Y-98435771D01*
X232480952Y-98435771D02*
X232385714Y-98483390D01*
X232385714Y-98483390D02*
X232338095Y-98531009D01*
X232338095Y-98531009D02*
X232290476Y-98626247D01*
X224357142Y-105159580D02*
X224309523Y-105207200D01*
X224309523Y-105207200D02*
X224166666Y-105254819D01*
X224166666Y-105254819D02*
X224071428Y-105254819D01*
X224071428Y-105254819D02*
X223928571Y-105207200D01*
X223928571Y-105207200D02*
X223833333Y-105111961D01*
X223833333Y-105111961D02*
X223785714Y-105016723D01*
X223785714Y-105016723D02*
X223738095Y-104826247D01*
X223738095Y-104826247D02*
X223738095Y-104683390D01*
X223738095Y-104683390D02*
X223785714Y-104492914D01*
X223785714Y-104492914D02*
X223833333Y-104397676D01*
X223833333Y-104397676D02*
X223928571Y-104302438D01*
X223928571Y-104302438D02*
X224071428Y-104254819D01*
X224071428Y-104254819D02*
X224166666Y-104254819D01*
X224166666Y-104254819D02*
X224309523Y-104302438D01*
X224309523Y-104302438D02*
X224357142Y-104350057D01*
X225309523Y-105254819D02*
X224738095Y-105254819D01*
X225023809Y-105254819D02*
X225023809Y-104254819D01*
X225023809Y-104254819D02*
X224928571Y-104397676D01*
X224928571Y-104397676D02*
X224833333Y-104492914D01*
X224833333Y-104492914D02*
X224738095Y-104540533D01*
X226166666Y-104254819D02*
X225976190Y-104254819D01*
X225976190Y-104254819D02*
X225880952Y-104302438D01*
X225880952Y-104302438D02*
X225833333Y-104350057D01*
X225833333Y-104350057D02*
X225738095Y-104492914D01*
X225738095Y-104492914D02*
X225690476Y-104683390D01*
X225690476Y-104683390D02*
X225690476Y-105064342D01*
X225690476Y-105064342D02*
X225738095Y-105159580D01*
X225738095Y-105159580D02*
X225785714Y-105207200D01*
X225785714Y-105207200D02*
X225880952Y-105254819D01*
X225880952Y-105254819D02*
X226071428Y-105254819D01*
X226071428Y-105254819D02*
X226166666Y-105207200D01*
X226166666Y-105207200D02*
X226214285Y-105159580D01*
X226214285Y-105159580D02*
X226261904Y-105064342D01*
X226261904Y-105064342D02*
X226261904Y-104826247D01*
X226261904Y-104826247D02*
X226214285Y-104731009D01*
X226214285Y-104731009D02*
X226166666Y-104683390D01*
X226166666Y-104683390D02*
X226071428Y-104635771D01*
X226071428Y-104635771D02*
X225880952Y-104635771D01*
X225880952Y-104635771D02*
X225785714Y-104683390D01*
X225785714Y-104683390D02*
X225738095Y-104731009D01*
X225738095Y-104731009D02*
X225690476Y-104826247D01*
X259884819Y-139142857D02*
X259408628Y-139476190D01*
X259884819Y-139714285D02*
X258884819Y-139714285D01*
X258884819Y-139714285D02*
X258884819Y-139333333D01*
X258884819Y-139333333D02*
X258932438Y-139238095D01*
X258932438Y-139238095D02*
X258980057Y-139190476D01*
X258980057Y-139190476D02*
X259075295Y-139142857D01*
X259075295Y-139142857D02*
X259218152Y-139142857D01*
X259218152Y-139142857D02*
X259313390Y-139190476D01*
X259313390Y-139190476D02*
X259361009Y-139238095D01*
X259361009Y-139238095D02*
X259408628Y-139333333D01*
X259408628Y-139333333D02*
X259408628Y-139714285D01*
X258980057Y-138761904D02*
X258932438Y-138714285D01*
X258932438Y-138714285D02*
X258884819Y-138619047D01*
X258884819Y-138619047D02*
X258884819Y-138380952D01*
X258884819Y-138380952D02*
X258932438Y-138285714D01*
X258932438Y-138285714D02*
X258980057Y-138238095D01*
X258980057Y-138238095D02*
X259075295Y-138190476D01*
X259075295Y-138190476D02*
X259170533Y-138190476D01*
X259170533Y-138190476D02*
X259313390Y-138238095D01*
X259313390Y-138238095D02*
X259884819Y-138809523D01*
X259884819Y-138809523D02*
X259884819Y-138190476D01*
X259313390Y-137619047D02*
X259265771Y-137714285D01*
X259265771Y-137714285D02*
X259218152Y-137761904D01*
X259218152Y-137761904D02*
X259122914Y-137809523D01*
X259122914Y-137809523D02*
X259075295Y-137809523D01*
X259075295Y-137809523D02*
X258980057Y-137761904D01*
X258980057Y-137761904D02*
X258932438Y-137714285D01*
X258932438Y-137714285D02*
X258884819Y-137619047D01*
X258884819Y-137619047D02*
X258884819Y-137428571D01*
X258884819Y-137428571D02*
X258932438Y-137333333D01*
X258932438Y-137333333D02*
X258980057Y-137285714D01*
X258980057Y-137285714D02*
X259075295Y-137238095D01*
X259075295Y-137238095D02*
X259122914Y-137238095D01*
X259122914Y-137238095D02*
X259218152Y-137285714D01*
X259218152Y-137285714D02*
X259265771Y-137333333D01*
X259265771Y-137333333D02*
X259313390Y-137428571D01*
X259313390Y-137428571D02*
X259313390Y-137619047D01*
X259313390Y-137619047D02*
X259361009Y-137714285D01*
X259361009Y-137714285D02*
X259408628Y-137761904D01*
X259408628Y-137761904D02*
X259503866Y-137809523D01*
X259503866Y-137809523D02*
X259694342Y-137809523D01*
X259694342Y-137809523D02*
X259789580Y-137761904D01*
X259789580Y-137761904D02*
X259837200Y-137714285D01*
X259837200Y-137714285D02*
X259884819Y-137619047D01*
X259884819Y-137619047D02*
X259884819Y-137428571D01*
X259884819Y-137428571D02*
X259837200Y-137333333D01*
X259837200Y-137333333D02*
X259789580Y-137285714D01*
X259789580Y-137285714D02*
X259694342Y-137238095D01*
X259694342Y-137238095D02*
X259503866Y-137238095D01*
X259503866Y-137238095D02*
X259408628Y-137285714D01*
X259408628Y-137285714D02*
X259361009Y-137333333D01*
X259361009Y-137333333D02*
X259313390Y-137428571D01*
X264504761Y-129650057D02*
X264409523Y-129602438D01*
X264409523Y-129602438D02*
X264314285Y-129507200D01*
X264314285Y-129507200D02*
X264171428Y-129364342D01*
X264171428Y-129364342D02*
X264076190Y-129316723D01*
X264076190Y-129316723D02*
X263980952Y-129316723D01*
X264028571Y-129554819D02*
X263933333Y-129507200D01*
X263933333Y-129507200D02*
X263838095Y-129411961D01*
X263838095Y-129411961D02*
X263790476Y-129221485D01*
X263790476Y-129221485D02*
X263790476Y-128888152D01*
X263790476Y-128888152D02*
X263838095Y-128697676D01*
X263838095Y-128697676D02*
X263933333Y-128602438D01*
X263933333Y-128602438D02*
X264028571Y-128554819D01*
X264028571Y-128554819D02*
X264219047Y-128554819D01*
X264219047Y-128554819D02*
X264314285Y-128602438D01*
X264314285Y-128602438D02*
X264409523Y-128697676D01*
X264409523Y-128697676D02*
X264457142Y-128888152D01*
X264457142Y-128888152D02*
X264457142Y-129221485D01*
X264457142Y-129221485D02*
X264409523Y-129411961D01*
X264409523Y-129411961D02*
X264314285Y-129507200D01*
X264314285Y-129507200D02*
X264219047Y-129554819D01*
X264219047Y-129554819D02*
X264028571Y-129554819D01*
X265314285Y-128888152D02*
X265314285Y-129554819D01*
X265076190Y-128507200D02*
X264838095Y-129221485D01*
X264838095Y-129221485D02*
X265457142Y-129221485D01*
X223533333Y-110554819D02*
X223200000Y-110078628D01*
X222961905Y-110554819D02*
X222961905Y-109554819D01*
X222961905Y-109554819D02*
X223342857Y-109554819D01*
X223342857Y-109554819D02*
X223438095Y-109602438D01*
X223438095Y-109602438D02*
X223485714Y-109650057D01*
X223485714Y-109650057D02*
X223533333Y-109745295D01*
X223533333Y-109745295D02*
X223533333Y-109888152D01*
X223533333Y-109888152D02*
X223485714Y-109983390D01*
X223485714Y-109983390D02*
X223438095Y-110031009D01*
X223438095Y-110031009D02*
X223342857Y-110078628D01*
X223342857Y-110078628D02*
X222961905Y-110078628D01*
X224009524Y-110554819D02*
X224200000Y-110554819D01*
X224200000Y-110554819D02*
X224295238Y-110507200D01*
X224295238Y-110507200D02*
X224342857Y-110459580D01*
X224342857Y-110459580D02*
X224438095Y-110316723D01*
X224438095Y-110316723D02*
X224485714Y-110126247D01*
X224485714Y-110126247D02*
X224485714Y-109745295D01*
X224485714Y-109745295D02*
X224438095Y-109650057D01*
X224438095Y-109650057D02*
X224390476Y-109602438D01*
X224390476Y-109602438D02*
X224295238Y-109554819D01*
X224295238Y-109554819D02*
X224104762Y-109554819D01*
X224104762Y-109554819D02*
X224009524Y-109602438D01*
X224009524Y-109602438D02*
X223961905Y-109650057D01*
X223961905Y-109650057D02*
X223914286Y-109745295D01*
X223914286Y-109745295D02*
X223914286Y-109983390D01*
X223914286Y-109983390D02*
X223961905Y-110078628D01*
X223961905Y-110078628D02*
X224009524Y-110126247D01*
X224009524Y-110126247D02*
X224104762Y-110173866D01*
X224104762Y-110173866D02*
X224295238Y-110173866D01*
X224295238Y-110173866D02*
X224390476Y-110126247D01*
X224390476Y-110126247D02*
X224438095Y-110078628D01*
X224438095Y-110078628D02*
X224485714Y-109983390D01*
X263150057Y-102095238D02*
X263102438Y-102190476D01*
X263102438Y-102190476D02*
X263007200Y-102285714D01*
X263007200Y-102285714D02*
X262864342Y-102428571D01*
X262864342Y-102428571D02*
X262816723Y-102523809D01*
X262816723Y-102523809D02*
X262816723Y-102619047D01*
X263054819Y-102571428D02*
X263007200Y-102666666D01*
X263007200Y-102666666D02*
X262911961Y-102761904D01*
X262911961Y-102761904D02*
X262721485Y-102809523D01*
X262721485Y-102809523D02*
X262388152Y-102809523D01*
X262388152Y-102809523D02*
X262197676Y-102761904D01*
X262197676Y-102761904D02*
X262102438Y-102666666D01*
X262102438Y-102666666D02*
X262054819Y-102571428D01*
X262054819Y-102571428D02*
X262054819Y-102380952D01*
X262054819Y-102380952D02*
X262102438Y-102285714D01*
X262102438Y-102285714D02*
X262197676Y-102190476D01*
X262197676Y-102190476D02*
X262388152Y-102142857D01*
X262388152Y-102142857D02*
X262721485Y-102142857D01*
X262721485Y-102142857D02*
X262911961Y-102190476D01*
X262911961Y-102190476D02*
X263007200Y-102285714D01*
X263007200Y-102285714D02*
X263054819Y-102380952D01*
X263054819Y-102380952D02*
X263054819Y-102571428D01*
X262054819Y-101285714D02*
X262054819Y-101476190D01*
X262054819Y-101476190D02*
X262102438Y-101571428D01*
X262102438Y-101571428D02*
X262150057Y-101619047D01*
X262150057Y-101619047D02*
X262292914Y-101714285D01*
X262292914Y-101714285D02*
X262483390Y-101761904D01*
X262483390Y-101761904D02*
X262864342Y-101761904D01*
X262864342Y-101761904D02*
X262959580Y-101714285D01*
X262959580Y-101714285D02*
X263007200Y-101666666D01*
X263007200Y-101666666D02*
X263054819Y-101571428D01*
X263054819Y-101571428D02*
X263054819Y-101380952D01*
X263054819Y-101380952D02*
X263007200Y-101285714D01*
X263007200Y-101285714D02*
X262959580Y-101238095D01*
X262959580Y-101238095D02*
X262864342Y-101190476D01*
X262864342Y-101190476D02*
X262626247Y-101190476D01*
X262626247Y-101190476D02*
X262531009Y-101238095D01*
X262531009Y-101238095D02*
X262483390Y-101285714D01*
X262483390Y-101285714D02*
X262435771Y-101380952D01*
X262435771Y-101380952D02*
X262435771Y-101571428D01*
X262435771Y-101571428D02*
X262483390Y-101666666D01*
X262483390Y-101666666D02*
X262531009Y-101714285D01*
X262531009Y-101714285D02*
X262626247Y-101761904D01*
X257433333Y-134859580D02*
X257385714Y-134907200D01*
X257385714Y-134907200D02*
X257242857Y-134954819D01*
X257242857Y-134954819D02*
X257147619Y-134954819D01*
X257147619Y-134954819D02*
X257004762Y-134907200D01*
X257004762Y-134907200D02*
X256909524Y-134811961D01*
X256909524Y-134811961D02*
X256861905Y-134716723D01*
X256861905Y-134716723D02*
X256814286Y-134526247D01*
X256814286Y-134526247D02*
X256814286Y-134383390D01*
X256814286Y-134383390D02*
X256861905Y-134192914D01*
X256861905Y-134192914D02*
X256909524Y-134097676D01*
X256909524Y-134097676D02*
X257004762Y-134002438D01*
X257004762Y-134002438D02*
X257147619Y-133954819D01*
X257147619Y-133954819D02*
X257242857Y-133954819D01*
X257242857Y-133954819D02*
X257385714Y-134002438D01*
X257385714Y-134002438D02*
X257433333Y-134050057D01*
X257909524Y-134954819D02*
X258100000Y-134954819D01*
X258100000Y-134954819D02*
X258195238Y-134907200D01*
X258195238Y-134907200D02*
X258242857Y-134859580D01*
X258242857Y-134859580D02*
X258338095Y-134716723D01*
X258338095Y-134716723D02*
X258385714Y-134526247D01*
X258385714Y-134526247D02*
X258385714Y-134145295D01*
X258385714Y-134145295D02*
X258338095Y-134050057D01*
X258338095Y-134050057D02*
X258290476Y-134002438D01*
X258290476Y-134002438D02*
X258195238Y-133954819D01*
X258195238Y-133954819D02*
X258004762Y-133954819D01*
X258004762Y-133954819D02*
X257909524Y-134002438D01*
X257909524Y-134002438D02*
X257861905Y-134050057D01*
X257861905Y-134050057D02*
X257814286Y-134145295D01*
X257814286Y-134145295D02*
X257814286Y-134383390D01*
X257814286Y-134383390D02*
X257861905Y-134478628D01*
X257861905Y-134478628D02*
X257909524Y-134526247D01*
X257909524Y-134526247D02*
X258004762Y-134573866D01*
X258004762Y-134573866D02*
X258195238Y-134573866D01*
X258195238Y-134573866D02*
X258290476Y-134526247D01*
X258290476Y-134526247D02*
X258338095Y-134478628D01*
X258338095Y-134478628D02*
X258385714Y-134383390D01*
X263257142Y-109254819D02*
X262923809Y-108778628D01*
X262685714Y-109254819D02*
X262685714Y-108254819D01*
X262685714Y-108254819D02*
X263066666Y-108254819D01*
X263066666Y-108254819D02*
X263161904Y-108302438D01*
X263161904Y-108302438D02*
X263209523Y-108350057D01*
X263209523Y-108350057D02*
X263257142Y-108445295D01*
X263257142Y-108445295D02*
X263257142Y-108588152D01*
X263257142Y-108588152D02*
X263209523Y-108683390D01*
X263209523Y-108683390D02*
X263161904Y-108731009D01*
X263161904Y-108731009D02*
X263066666Y-108778628D01*
X263066666Y-108778628D02*
X262685714Y-108778628D01*
X263638095Y-108350057D02*
X263685714Y-108302438D01*
X263685714Y-108302438D02*
X263780952Y-108254819D01*
X263780952Y-108254819D02*
X264019047Y-108254819D01*
X264019047Y-108254819D02*
X264114285Y-108302438D01*
X264114285Y-108302438D02*
X264161904Y-108350057D01*
X264161904Y-108350057D02*
X264209523Y-108445295D01*
X264209523Y-108445295D02*
X264209523Y-108540533D01*
X264209523Y-108540533D02*
X264161904Y-108683390D01*
X264161904Y-108683390D02*
X263590476Y-109254819D01*
X263590476Y-109254819D02*
X264209523Y-109254819D01*
X265114285Y-108254819D02*
X264638095Y-108254819D01*
X264638095Y-108254819D02*
X264590476Y-108731009D01*
X264590476Y-108731009D02*
X264638095Y-108683390D01*
X264638095Y-108683390D02*
X264733333Y-108635771D01*
X264733333Y-108635771D02*
X264971428Y-108635771D01*
X264971428Y-108635771D02*
X265066666Y-108683390D01*
X265066666Y-108683390D02*
X265114285Y-108731009D01*
X265114285Y-108731009D02*
X265161904Y-108826247D01*
X265161904Y-108826247D02*
X265161904Y-109064342D01*
X265161904Y-109064342D02*
X265114285Y-109159580D01*
X265114285Y-109159580D02*
X265066666Y-109207200D01*
X265066666Y-109207200D02*
X264971428Y-109254819D01*
X264971428Y-109254819D02*
X264733333Y-109254819D01*
X264733333Y-109254819D02*
X264638095Y-109207200D01*
X264638095Y-109207200D02*
X264590476Y-109159580D01*
X224884819Y-125722024D02*
X224408628Y-126055357D01*
X224884819Y-126293452D02*
X223884819Y-126293452D01*
X223884819Y-126293452D02*
X223884819Y-125912500D01*
X223884819Y-125912500D02*
X223932438Y-125817262D01*
X223932438Y-125817262D02*
X223980057Y-125769643D01*
X223980057Y-125769643D02*
X224075295Y-125722024D01*
X224075295Y-125722024D02*
X224218152Y-125722024D01*
X224218152Y-125722024D02*
X224313390Y-125769643D01*
X224313390Y-125769643D02*
X224361009Y-125817262D01*
X224361009Y-125817262D02*
X224408628Y-125912500D01*
X224408628Y-125912500D02*
X224408628Y-126293452D01*
X224884819Y-124769643D02*
X224884819Y-125341071D01*
X224884819Y-125055357D02*
X223884819Y-125055357D01*
X223884819Y-125055357D02*
X224027676Y-125150595D01*
X224027676Y-125150595D02*
X224122914Y-125245833D01*
X224122914Y-125245833D02*
X224170533Y-125341071D01*
X223884819Y-124436309D02*
X223884819Y-123817262D01*
X223884819Y-123817262D02*
X224265771Y-124150595D01*
X224265771Y-124150595D02*
X224265771Y-124007738D01*
X224265771Y-124007738D02*
X224313390Y-123912500D01*
X224313390Y-123912500D02*
X224361009Y-123864881D01*
X224361009Y-123864881D02*
X224456247Y-123817262D01*
X224456247Y-123817262D02*
X224694342Y-123817262D01*
X224694342Y-123817262D02*
X224789580Y-123864881D01*
X224789580Y-123864881D02*
X224837200Y-123912500D01*
X224837200Y-123912500D02*
X224884819Y-124007738D01*
X224884819Y-124007738D02*
X224884819Y-124293452D01*
X224884819Y-124293452D02*
X224837200Y-124388690D01*
X224837200Y-124388690D02*
X224789580Y-124436309D01*
%TO.C,U4*%
D12*
X252120000Y-126050000D02*
X252120000Y-125270000D01*
X252120000Y-125270000D02*
X251120000Y-125270000D01*
X233880000Y-126050000D02*
X233880000Y-125270000D01*
X233880000Y-125270000D02*
X234880000Y-125270000D01*
%TO.C,C6*%
X242211252Y-114535000D02*
X241688748Y-114535000D01*
X242211252Y-113065000D02*
X241688748Y-113065000D01*
%TO.C,C10*%
X255765000Y-141688748D02*
X255765000Y-142211252D01*
X257235000Y-141688748D02*
X257235000Y-142211252D01*
%TO.C,C4*%
X235265000Y-107261252D02*
X235265000Y-106738748D01*
X236735000Y-107261252D02*
X236735000Y-106738748D01*
%TO.C,D9*%
X222350000Y-139510000D02*
X225650000Y-139510000D01*
X222350000Y-139510000D02*
X222350000Y-134000000D01*
X225650000Y-139510000D02*
X225650000Y-134000000D01*
%TO.C,U2*%
X229340000Y-109390000D02*
X230065000Y-109390000D01*
X229340000Y-110115000D02*
X229340000Y-109390000D01*
X229340000Y-114610000D02*
X229340000Y-113885000D01*
X230065000Y-114610000D02*
X229340000Y-114610000D01*
X233835000Y-109390000D02*
X234560000Y-109390000D01*
X234560000Y-109390000D02*
X234560000Y-110115000D01*
X234560000Y-113885000D02*
X234560000Y-114610000D01*
X234560000Y-114610000D02*
X233835000Y-114610000D01*
X235060000Y-113500000D02*
X235390000Y-113260000D01*
X235390000Y-113740000D01*
X235060000Y-113500000D01*
G36*
X235390000Y-113740000D02*
G01*
X235060000Y-113500000D01*
X235390000Y-113260000D01*
X235390000Y-113740000D01*
G37*
%TO.C,R11*%
X230477500Y-117762742D02*
X230477500Y-118237258D01*
X231522500Y-117762742D02*
X231522500Y-118237258D01*
%TO.C,R31*%
X237977500Y-105437742D02*
X237977500Y-105912258D01*
X239022500Y-105437742D02*
X239022500Y-105912258D01*
%TO.C,C12*%
X257761252Y-123765000D02*
X257238748Y-123765000D01*
X257761252Y-125235000D02*
X257238748Y-125235000D01*
%TO.C,R4*%
X255237258Y-133477500D02*
X254762742Y-133477500D01*
X255237258Y-134522500D02*
X254762742Y-134522500D01*
%TO.C,R8*%
X226262742Y-106477500D02*
X226737258Y-106477500D01*
X226262742Y-107522500D02*
X226737258Y-107522500D01*
%TO.C,R19*%
X253562258Y-95277500D02*
X253087742Y-95277500D01*
X253562258Y-96322500D02*
X253087742Y-96322500D01*
%TO.C,R16*%
X237762742Y-121977500D02*
X238237258Y-121977500D01*
X237762742Y-123022500D02*
X238237258Y-123022500D01*
%TO.C,R27*%
X233937742Y-101477500D02*
X234412258Y-101477500D01*
X233937742Y-102522500D02*
X234412258Y-102522500D01*
%TO.C,R6*%
X258977500Y-110737258D02*
X258977500Y-110262742D01*
X260022500Y-110737258D02*
X260022500Y-110262742D01*
%TO.C,R5*%
X254762742Y-136522500D02*
X255237258Y-136522500D01*
X254762742Y-135477500D02*
X255237258Y-135477500D01*
%TO.C,C8*%
X238765000Y-117688748D02*
X238765000Y-118211252D01*
X240235000Y-117688748D02*
X240235000Y-118211252D01*
%TO.C,D3*%
X248727500Y-94965000D02*
X248727500Y-96435000D01*
X248727500Y-96435000D02*
X251012500Y-96435000D01*
X251012500Y-94965000D02*
X248727500Y-94965000D01*
%TO.C,Q5*%
X229760000Y-139310000D02*
X228240000Y-139310000D01*
X229760000Y-138310000D02*
X229760000Y-139310000D01*
X229760000Y-136190000D02*
X229760000Y-137190000D01*
X228240000Y-139310000D02*
X228240000Y-139260000D01*
X228240000Y-138140000D02*
X228240000Y-137360000D01*
X228240000Y-136240000D02*
X228240000Y-136190000D01*
X228240000Y-136190000D02*
X229760000Y-136190000D01*
X227700000Y-137370000D02*
X227940000Y-137700000D01*
X227460000Y-137700000D01*
X227700000Y-137370000D01*
G36*
X227940000Y-137700000D02*
G01*
X227460000Y-137700000D01*
X227700000Y-137370000D01*
X227940000Y-137700000D01*
G37*
%TO.C,D11*%
X223490000Y-98350000D02*
X223490000Y-101650000D01*
X223490000Y-98350000D02*
X229000000Y-98350000D01*
X223490000Y-101650000D02*
X229000000Y-101650000D01*
%TO.C,R17*%
X250912258Y-106477500D02*
X250437742Y-106477500D01*
X250912258Y-107522500D02*
X250437742Y-107522500D01*
%TO.C,C2*%
X252238748Y-115265000D02*
X252761252Y-115265000D01*
X252238748Y-116735000D02*
X252761252Y-116735000D01*
%TO.C,R14*%
X231477500Y-136762742D02*
X231477500Y-137237258D01*
X232522500Y-136762742D02*
X232522500Y-137237258D01*
%TO.C,R12*%
X219977500Y-122283091D02*
X219977500Y-121808575D01*
X221022500Y-122283091D02*
X221022500Y-121808575D01*
%TO.C,C11*%
X253265000Y-141788748D02*
X253265000Y-142311252D01*
X254735000Y-141788748D02*
X254735000Y-142311252D01*
%TO.C,R22*%
X225737258Y-141977500D02*
X225262742Y-141977500D01*
X225737258Y-143022500D02*
X225262742Y-143022500D01*
%TO.C,D8*%
X260850000Y-139510000D02*
X264150000Y-139510000D01*
X260850000Y-139510000D02*
X260850000Y-134000000D01*
X264150000Y-139510000D02*
X264150000Y-134000000D01*
%TO.C,R21*%
X250862742Y-122477500D02*
X251337258Y-122477500D01*
X250862742Y-123522500D02*
X251337258Y-123522500D01*
%TO.C,C7*%
X242261252Y-121515000D02*
X241738748Y-121515000D01*
X242261252Y-122985000D02*
X241738748Y-122985000D01*
%TO.C,D2*%
X248727500Y-96565000D02*
X248727500Y-98035000D01*
X248727500Y-98035000D02*
X251012500Y-98035000D01*
X251012500Y-96565000D02*
X248727500Y-96565000D01*
%TO.C,C1*%
X241738748Y-109765000D02*
X242261252Y-109765000D01*
X241738748Y-111235000D02*
X242261252Y-111235000D01*
%TO.C,R23*%
X225737258Y-139977500D02*
X225262742Y-139977500D01*
X225737258Y-141022500D02*
X225262742Y-141022500D01*
%TO.C,Q3*%
X220115000Y-127802500D02*
X220165000Y-127802500D01*
X220115000Y-129322500D02*
X220115000Y-127802500D01*
X221115000Y-129322500D02*
X220115000Y-129322500D01*
X221285000Y-127802500D02*
X222065000Y-127802500D01*
X223185000Y-127802500D02*
X223235000Y-127802500D01*
X223235000Y-127802500D02*
X223235000Y-129322500D01*
X223235000Y-129322500D02*
X222235000Y-129322500D01*
X222055000Y-127262500D02*
X221725000Y-127502500D01*
X221725000Y-127022500D01*
X222055000Y-127262500D01*
G36*
X222055000Y-127262500D02*
G01*
X221725000Y-127502500D01*
X221725000Y-127022500D01*
X222055000Y-127262500D01*
G37*
%TO.C,U5*%
X249115000Y-100340000D02*
X249210000Y-100340000D01*
X249115000Y-104460000D02*
X249115000Y-100340000D01*
X249210000Y-104460000D02*
X249115000Y-104460000D01*
X254140000Y-100340000D02*
X254235000Y-100340000D01*
X254235000Y-100340000D02*
X254235000Y-104460000D01*
X254235000Y-104460000D02*
X254140000Y-104460000D01*
X249205000Y-105000000D02*
X248875000Y-105240000D01*
X248875000Y-104760000D01*
X249205000Y-105000000D01*
G36*
X249205000Y-105000000D02*
G01*
X248875000Y-105240000D01*
X248875000Y-104760000D01*
X249205000Y-105000000D01*
G37*
%TO.C,J2*%
X260090000Y-120440000D02*
X260090000Y-121360000D01*
X260090000Y-121360000D02*
X261690000Y-121360000D01*
X260090000Y-125640000D02*
X260090000Y-126560000D01*
X260090000Y-126560000D02*
X267910000Y-126560000D01*
X261690000Y-120440000D02*
X261690000Y-121360000D01*
X261690000Y-121360000D02*
X261690000Y-121640000D01*
X261690000Y-125360000D02*
X260475000Y-125360000D01*
X261690000Y-125360000D02*
X261690000Y-125640000D01*
X261690000Y-125640000D02*
X260090000Y-125640000D01*
X261690000Y-126560000D02*
X261690000Y-125640000D01*
X263550000Y-123000000D02*
X267910000Y-123000000D01*
X263550000Y-124000000D02*
X263550000Y-123000000D01*
X265650000Y-124800000D02*
X267910000Y-124800000D01*
X265650000Y-125300000D02*
X267910000Y-125300000D01*
X267910000Y-120440000D02*
X260090000Y-120440000D01*
X267910000Y-124000000D02*
X263550000Y-124000000D01*
X267910000Y-126560000D02*
X267910000Y-120440000D01*
X264050000Y-121200000D02*
X265650000Y-121200000D01*
X265650000Y-122200000D01*
X264050000Y-122200000D01*
X264050000Y-121200000D01*
X264050000Y-124800000D02*
X265650000Y-124800000D01*
X265650000Y-125800000D01*
X264050000Y-125800000D01*
X264050000Y-124800000D01*
%TO.C,U3*%
X241400000Y-116100000D02*
X241400000Y-116625000D01*
X241400000Y-116100000D02*
X241925000Y-116100000D01*
X241400000Y-120400000D02*
X241400000Y-119875000D01*
X241400000Y-120400000D02*
X241925000Y-120400000D01*
X245175000Y-120400000D02*
X245400000Y-120400000D01*
X245700000Y-116100000D02*
X245175000Y-116100000D01*
X245700000Y-116100000D02*
X245700000Y-116625000D01*
X245700000Y-119935000D02*
X245700000Y-120160000D01*
X245700000Y-120400000D02*
X245940000Y-120730000D01*
X245460000Y-120730000D01*
X245700000Y-120400000D01*
G36*
X245940000Y-120730000D02*
G01*
X245460000Y-120730000D01*
X245700000Y-120400000D01*
X245940000Y-120730000D01*
G37*
%TO.C,Q2*%
X220115000Y-117802500D02*
X221115000Y-117802500D01*
X220115000Y-119322500D02*
X220115000Y-117802500D01*
X220165000Y-119322500D02*
X220115000Y-119322500D01*
X222065000Y-119322500D02*
X221285000Y-119322500D01*
X222235000Y-117802500D02*
X223235000Y-117802500D01*
X223235000Y-117802500D02*
X223235000Y-119322500D01*
X223235000Y-119322500D02*
X223185000Y-119322500D01*
X221295000Y-119862500D02*
X221625000Y-119622500D01*
X221625000Y-120102500D01*
X221295000Y-119862500D01*
G36*
X221625000Y-120102500D02*
G01*
X221295000Y-119862500D01*
X221625000Y-119622500D01*
X221625000Y-120102500D01*
G37*
%TO.C,R10*%
X231977500Y-117762742D02*
X231977500Y-118237258D01*
X233022500Y-117762742D02*
X233022500Y-118237258D01*
%TO.C,C3*%
X257235000Y-114238748D02*
X257235000Y-114761252D01*
X255765000Y-114238748D02*
X255765000Y-114761252D01*
%TO.C,U1*%
X250940000Y-111590000D02*
X250990000Y-111590000D01*
X250940000Y-113410000D02*
X250940000Y-111590000D01*
X250990000Y-113410000D02*
X250940000Y-113410000D01*
X252890000Y-113410000D02*
X252110000Y-113410000D01*
X254010000Y-111590000D02*
X254060000Y-111590000D01*
X254060000Y-111590000D02*
X254060000Y-113410000D01*
X254060000Y-113410000D02*
X254010000Y-113410000D01*
X254010000Y-111050000D02*
X254340000Y-110810000D01*
X254340000Y-111290000D01*
X254010000Y-111050000D01*
G36*
X254340000Y-111290000D02*
G01*
X254010000Y-111050000D01*
X254340000Y-110810000D01*
X254340000Y-111290000D01*
G37*
%TO.C,C14*%
X226265000Y-133261252D02*
X226265000Y-132738748D01*
X227735000Y-133261252D02*
X227735000Y-132738748D01*
%TO.C,C15*%
X260288748Y-102765000D02*
X260811252Y-102765000D01*
X260288748Y-104235000D02*
X260811252Y-104235000D01*
%TO.C,Q7*%
X233302500Y-95490000D02*
X234822500Y-95490000D01*
X233302500Y-96490000D02*
X233302500Y-95490000D01*
X233302500Y-98610000D02*
X233302500Y-97610000D01*
X234822500Y-95490000D02*
X234822500Y-95540000D01*
X234822500Y-96660000D02*
X234822500Y-97440000D01*
X234822500Y-98560000D02*
X234822500Y-98610000D01*
X234822500Y-98610000D02*
X233302500Y-98610000D01*
X235362500Y-97430000D02*
X235122500Y-97100000D01*
X235602500Y-97100000D01*
X235362500Y-97430000D01*
G36*
X235362500Y-97430000D02*
G01*
X235122500Y-97100000D01*
X235602500Y-97100000D01*
X235362500Y-97430000D01*
G37*
%TO.C,R15*%
X231477500Y-140487258D02*
X231477500Y-140012742D01*
X232522500Y-140487258D02*
X232522500Y-140012742D01*
%TO.C,R24*%
X264522500Y-106737258D02*
X264522500Y-106262742D01*
X263477500Y-106737258D02*
X263477500Y-106262742D01*
%TO.C,R29*%
X231477500Y-126237258D02*
X231477500Y-125762742D01*
X232522500Y-126237258D02*
X232522500Y-125762742D01*
%TO.C,D1*%
X239362500Y-104350000D02*
X239362500Y-108650000D01*
X239362500Y-104350000D02*
X245172500Y-104350000D01*
X239362500Y-108650000D02*
X245172500Y-108650000D01*
%TO.C,SW1*%
X265900000Y-119100000D02*
X263600000Y-119100000D01*
X263600000Y-119100000D02*
X263600000Y-117900000D01*
X263600000Y-115400000D02*
X263600000Y-116100000D01*
X263600000Y-112900000D02*
X263600000Y-113600000D01*
X263600000Y-111100000D02*
X263600000Y-109900000D01*
X263600000Y-109900000D02*
X265900000Y-109900000D01*
%TO.C,R7*%
X226262742Y-109522500D02*
X226737258Y-109522500D01*
X226262742Y-108477500D02*
X226737258Y-108477500D01*
%TO.C,R3*%
X245762742Y-109977500D02*
X246237258Y-109977500D01*
X245762742Y-111022500D02*
X246237258Y-111022500D01*
%TO.C,D10*%
X255390000Y-98350000D02*
X255390000Y-101650000D01*
X255390000Y-98350000D02*
X260900000Y-98350000D01*
X255390000Y-101650000D02*
X260900000Y-101650000D01*
%TO.C,C5*%
X232261252Y-107735000D02*
X231738748Y-107735000D01*
X232261252Y-106265000D02*
X231738748Y-106265000D01*
%TO.C,R20*%
X253477500Y-125537258D02*
X253477500Y-125062742D01*
X254522500Y-125537258D02*
X254522500Y-125062742D01*
%TO.C,R30*%
X247477500Y-105262742D02*
X247477500Y-105737258D01*
X248522500Y-105262742D02*
X248522500Y-105737258D01*
%TO.C,Q1*%
X255940000Y-105740000D02*
X256940000Y-105740000D01*
X255940000Y-107260000D02*
X255940000Y-105740000D01*
X255990000Y-107260000D02*
X255940000Y-107260000D01*
X257890000Y-107260000D02*
X257110000Y-107260000D01*
X258060000Y-105740000D02*
X259060000Y-105740000D01*
X259060000Y-105740000D02*
X259060000Y-107260000D01*
X259060000Y-107260000D02*
X259010000Y-107260000D01*
X257120000Y-107800000D02*
X257450000Y-107560000D01*
X257450000Y-108040000D01*
X257120000Y-107800000D01*
G36*
X257450000Y-108040000D02*
G01*
X257120000Y-107800000D01*
X257450000Y-107560000D01*
X257450000Y-108040000D01*
G37*
%TO.C,J1*%
X238300000Y-96650000D02*
X238300000Y-94750000D01*
X238300000Y-100550000D02*
X238300000Y-98550000D01*
X247700000Y-94750000D02*
X238300000Y-94750000D01*
X247700000Y-96650000D02*
X247700000Y-94750000D01*
X247700000Y-100550000D02*
X247700000Y-98550000D01*
%TO.C,C13*%
X257738748Y-131265000D02*
X258261252Y-131265000D01*
X257738748Y-132735000D02*
X258261252Y-132735000D01*
%TO.C,R26*%
X233937742Y-99477500D02*
X234412258Y-99477500D01*
X233937742Y-100522500D02*
X234412258Y-100522500D01*
%TO.C,C16*%
X225738748Y-102265000D02*
X226261252Y-102265000D01*
X225738748Y-103735000D02*
X226261252Y-103735000D01*
%TO.C,R28*%
X258522500Y-138262742D02*
X258522500Y-138737258D01*
X257477500Y-138262742D02*
X257477500Y-138737258D01*
%TO.C,R18*%
X253087742Y-96777500D02*
X253562258Y-96777500D01*
X253087742Y-97822500D02*
X253562258Y-97822500D01*
%TO.C,Q4*%
X261002500Y-131060000D02*
X261002500Y-131010000D01*
X262522500Y-131060000D02*
X261002500Y-131060000D01*
X262522500Y-130060000D02*
X262522500Y-131060000D01*
X261002500Y-129890000D02*
X261002500Y-129110000D01*
X261002500Y-127990000D02*
X261002500Y-127940000D01*
X261002500Y-127940000D02*
X262522500Y-127940000D01*
X262522500Y-127940000D02*
X262522500Y-128940000D01*
X260462500Y-129120000D02*
X260702500Y-129450000D01*
X260222500Y-129450000D01*
X260462500Y-129120000D01*
G36*
X260702500Y-129450000D02*
G01*
X260222500Y-129450000D01*
X260462500Y-129120000D01*
X260702500Y-129450000D01*
G37*
%TO.C,R9*%
X226737258Y-110477500D02*
X226262742Y-110477500D01*
X226737258Y-111522500D02*
X226262742Y-111522500D01*
%TO.C,Q6*%
X263440000Y-101240000D02*
X264440000Y-101240000D01*
X263440000Y-102760000D02*
X263440000Y-101240000D01*
X263490000Y-102760000D02*
X263440000Y-102760000D01*
X265390000Y-102760000D02*
X264610000Y-102760000D01*
X265560000Y-101240000D02*
X266560000Y-101240000D01*
X266560000Y-101240000D02*
X266560000Y-102760000D01*
X266560000Y-102760000D02*
X266510000Y-102760000D01*
X264620000Y-103300000D02*
X264950000Y-103060000D01*
X264950000Y-103540000D01*
X264620000Y-103300000D01*
G36*
X264950000Y-103540000D02*
G01*
X264620000Y-103300000D01*
X264950000Y-103060000D01*
X264950000Y-103540000D01*
G37*
%TO.C,C9*%
X254788748Y-137765000D02*
X255311252Y-137765000D01*
X254788748Y-139235000D02*
X255311252Y-139235000D01*
%TO.C,R25*%
X260977500Y-109062258D02*
X260977500Y-108587742D01*
X262022500Y-109062258D02*
X262022500Y-108587742D01*
%TO.C,R13*%
X222477500Y-124841909D02*
X222477500Y-125316425D01*
X223522500Y-124841909D02*
X223522500Y-125316425D01*
%TD*%
M02*
