M48
; DRILL file KiCad 10.0.2 date 2026-05-13T22:38:31
; FORMAT={-:-/ absolute / metric / decimal}
; #@! TF.CreationDate,2026-05-13T22:38:31+02:00
; #@! TF.GenerationSoftware,Kicad,Pcbnew,10.0.2
; #@! TF.FileFunction,Plated,1,2,PTH
FMAT,2
METRIC
; #@! TA.AperFunction,Plated,PTH,ViaDrill
T1C0.300
; #@! TA.AperFunction,Plated,PTH,ComponentDrill
T2C0.300
; #@! TA.AperFunction,Plated,PTH,ComponentDrill
T3C0.600
; #@! TA.AperFunction,Plated,PTH,ComponentDrill
T4C0.750
; #@! TA.AperFunction,Plated,PTH,ComponentDrill
T5C0.850
%
G90
G05
T1
X221.2Y-113.9
X222.375Y-123.0
X223.0Y-117.0
X223.625Y-123.0
X224.5Y-111.0
X225.0Y-109.0
X227.2Y-113.4
X227.5Y-142.5
X228.3Y-135.0
X228.9Y-139.7
X229.0Y-106.5
X230.0Y-107.0
X230.5Y-126.0
X230.5Y-127.75
X231.0Y-123.625
X231.4Y-121.7
X232.0Y-100.0
X232.0Y-112.0
X232.5Y-120.0
X233.5Y-103.0
X233.5Y-107.0
X234.9Y-122.4
X235.2Y-107.0
X235.4Y-137.1
X235.5Y-143.5
X235.675Y-127.6
X235.9Y-125.4
X237.9Y-137.2
X238.5Y-107.5
X238.5Y-119.0
X238.5Y-124.5
X239.4Y-120.9
X240.0Y-108.5
X240.0Y-109.5
X240.15Y-114.3
X240.47Y-103.97
X241.602Y-109.333
X243.0Y-109.0
X243.0Y-127.2
X243.5Y-108.0
X244.1Y-114.0
X244.3Y-124.2
X244.3Y-127.3
X244.5Y-104.0
X245.1Y-121.8
X246.1Y-121.0
X246.55Y-119.75
X247.0Y-109.5
X247.0Y-123.8
X247.44Y-141.625
X248.0Y-107.0
X248.5Y-124.5
X249.1Y-127.9
X250.5Y-141.0
X252.5Y-110.0
X253.5Y-117.5
X255.2Y-125.9
X255.5Y-124.5
X256.0Y-139.5
X256.3Y-127.125
X256.5Y-116.5
X256.5Y-136.0
X257.5Y-143.0
X258.3Y-128.3
X258.4Y-122.1
X259.5Y-130.4
X260.5Y-106.3
X262.5Y-109.5
X266.0Y-104.4
T2
X243.1Y-134.98
X243.1Y-136.38
X243.8Y-134.28
X243.8Y-135.68
X243.8Y-137.08
X244.525Y-134.98
X244.525Y-136.38
X245.2Y-134.28
X245.2Y-135.68
X245.2Y-137.08
X245.9Y-134.98
X245.9Y-136.38
X250.475Y-101.7
X250.475Y-103.1
X251.675Y-101.7
X251.675Y-103.1
X252.875Y-101.7
X252.875Y-103.1
T4
X261.55Y-122.5
X261.55Y-124.5
T5
X220.0Y-133.6
X220.0Y-137.8
X224.8Y-96.5
X229.0Y-96.5
X256.8Y-96.5
X261.0Y-96.5
X265.9Y-133.6
X265.9Y-137.8
T3
G00X238.68Y-97.9
M15
G01X238.68Y-97.3
M16
G05
G00X238.68Y-102.33
M15
G01X238.68Y-101.23
M16
G05
G00X247.32Y-97.9
M15
G01X247.32Y-97.3
M16
G05
G00X247.32Y-102.33
M15
G01X247.32Y-101.23
M16
G05
M30
