%TF.GenerationSoftware,KiCad,Pcbnew,10.0.2*%
%TF.CreationDate,2026-05-13T22:37:29+02:00*%
%TF.ProjectId,ESP32_Drone,45535033-325f-4447-926f-6e652e6b6963,rev?*%
%TF.SameCoordinates,Original*%
%TF.FileFunction,Soldermask,Top*%
%TF.FilePolarity,Negative*%
%FSLAX46Y46*%
G04 Gerber Fmt 4.6, Leading zero omitted, Abs format (unit mm)*
G04 Created by KiCad (PCBNEW 10.0.2) date 2026-05-13 22:37:29*
%MOMM*%
%LPD*%
G01*
G04 APERTURE LIST*
G04 Aperture macros list*
%AMRoundRect*
0 Rectangle with rounded corners*
0 $1 Rounding radius*
0 $2 $3 $4 $5 $6 $7 $8 $9 X,Y pos of 4 corners*
0 Add a 4 corners polygon primitive as box body*
4,1,4,$2,$3,$4,$5,$6,$7,$8,$9,$2,$3,0*
0 Add four circle primitives for the rounded corners*
1,1,$1+$1,$2,$3*
1,1,$1+$1,$4,$5*
1,1,$1+$1,$6,$7*
1,1,$1+$1,$8,$9*
0 Add four rect primitives between the rounded corners*
20,1,$1+$1,$2,$3,$4,$5,0*
20,1,$1+$1,$4,$5,$6,$7,0*
20,1,$1+$1,$6,$7,$8,$9,0*
20,1,$1+$1,$8,$9,$2,$3,0*%
G04 Aperture macros list end*
%ADD10C,0.600000*%
%ADD11R,3.800000X3.800000*%
%ADD12R,1.500000X0.900000*%
%ADD13R,0.900000X1.500000*%
%ADD14RoundRect,0.250000X0.250000X0.475000X-0.250000X0.475000X-0.250000X-0.475000X0.250000X-0.475000X0*%
%ADD15RoundRect,0.250000X-0.475000X0.250000X-0.475000X-0.250000X0.475000X-0.250000X0.475000X0.250000X0*%
%ADD16RoundRect,0.250000X0.475000X-0.250000X0.475000X0.250000X-0.475000X0.250000X-0.475000X-0.250000X0*%
%ADD17RoundRect,0.250000X0.650000X-1.000000X0.650000X1.000000X-0.650000X1.000000X-0.650000X-1.000000X0*%
%ADD18RoundRect,0.062500X0.337500X0.062500X-0.337500X0.062500X-0.337500X-0.062500X0.337500X-0.062500X0*%
%ADD19RoundRect,0.062500X0.062500X0.337500X-0.062500X0.337500X-0.062500X-0.337500X0.062500X-0.337500X0*%
%ADD20R,3.350000X3.350000*%
%ADD21RoundRect,0.200000X-0.275000X0.200000X-0.275000X-0.200000X0.275000X-0.200000X0.275000X0.200000X0*%
%ADD22C,2.200000*%
%ADD23RoundRect,0.200000X0.200000X0.275000X-0.200000X0.275000X-0.200000X-0.275000X0.200000X-0.275000X0*%
%ADD24RoundRect,0.200000X-0.200000X-0.275000X0.200000X-0.275000X0.200000X0.275000X-0.200000X0.275000X0*%
%ADD25RoundRect,0.200000X0.275000X-0.200000X0.275000X0.200000X-0.275000X0.200000X-0.275000X-0.200000X0*%
%ADD26RoundRect,0.218750X-0.218750X-0.256250X0.218750X-0.256250X0.218750X0.256250X-0.218750X0.256250X0*%
%ADD27RoundRect,0.150000X-0.587500X-0.150000X0.587500X-0.150000X0.587500X0.150000X-0.587500X0.150000X0*%
%ADD28RoundRect,0.250000X-1.000000X-0.650000X1.000000X-0.650000X1.000000X0.650000X-1.000000X0.650000X0*%
%ADD29RoundRect,0.250000X0.675000X-0.675000X0.675000X0.675000X-0.675000X0.675000X-0.675000X-0.675000X0*%
%ADD30C,1.850000*%
%ADD31RoundRect,0.250000X-0.250000X-0.475000X0.250000X-0.475000X0.250000X0.475000X-0.250000X0.475000X0*%
%ADD32RoundRect,0.250000X-0.675000X-0.675000X0.675000X-0.675000X0.675000X0.675000X-0.675000X0.675000X0*%
%ADD33RoundRect,0.150000X-0.150000X0.587500X-0.150000X-0.587500X0.150000X-0.587500X0.150000X0.587500X0*%
%ADD34RoundRect,0.150000X0.150000X-0.825000X0.150000X0.825000X-0.150000X0.825000X-0.150000X-0.825000X0*%
%ADD35R,3.300000X2.410000*%
%ADD36RoundRect,0.250000X0.625000X-0.350000X0.625000X0.350000X-0.625000X0.350000X-0.625000X-0.350000X0*%
%ADD37O,1.750000X1.200000*%
%ADD38RoundRect,0.075000X0.350000X0.075000X-0.350000X0.075000X-0.350000X-0.075000X0.350000X-0.075000X0*%
%ADD39RoundRect,0.075000X-0.075000X0.350000X-0.075000X-0.350000X0.075000X-0.350000X0.075000X0.350000X0*%
%ADD40RoundRect,0.150000X0.150000X-0.587500X0.150000X0.587500X-0.150000X0.587500X-0.150000X-0.587500X0*%
%ADD41RoundRect,0.150000X-0.150000X0.512500X-0.150000X-0.512500X0.150000X-0.512500X0.150000X0.512500X0*%
%ADD42RoundRect,0.150000X0.587500X0.150000X-0.587500X0.150000X-0.587500X-0.150000X0.587500X-0.150000X0*%
%ADD43RoundRect,0.250000X-1.000000X-0.900000X1.000000X-0.900000X1.000000X0.900000X-1.000000X0.900000X0*%
%ADD44C,0.900000*%
%ADD45RoundRect,0.250000X1.000000X-0.375000X1.000000X0.375000X-1.000000X0.375000X-1.000000X-0.375000X0*%
%ADD46C,0.650000*%
%ADD47RoundRect,0.150000X0.150000X0.575000X-0.150000X0.575000X-0.150000X-0.575000X0.150000X-0.575000X0*%
%ADD48RoundRect,0.075000X0.075000X0.650000X-0.075000X0.650000X-0.075000X-0.650000X0.075000X-0.650000X0*%
%ADD49O,1.000000X2.100000*%
%ADD50O,1.000000X1.600000*%
G04 APERTURE END LIST*
D10*
%TO.C,U4*%
X243100000Y-134980000D03*
X243100000Y-136380000D03*
X243800000Y-134280000D03*
X243800000Y-135680000D03*
X243800000Y-137080000D03*
D11*
X244500000Y-135680000D03*
D10*
X244525000Y-134980000D03*
X244525000Y-136380000D03*
X245200000Y-134280000D03*
X245200000Y-135680000D03*
X245200000Y-137080000D03*
X245900000Y-134980000D03*
X245900000Y-136380000D03*
D12*
X234250000Y-143400000D03*
X234250000Y-142130000D03*
X234250000Y-140860000D03*
X234250000Y-139590000D03*
X234250000Y-138320000D03*
X234250000Y-137050000D03*
X234250000Y-135780000D03*
X234250000Y-134510000D03*
X234250000Y-133240000D03*
X234250000Y-131970000D03*
X234250000Y-130700000D03*
X234250000Y-129430000D03*
X234250000Y-128160000D03*
X234250000Y-126890000D03*
D13*
X237280000Y-125640000D03*
X238550000Y-125640000D03*
X239820000Y-125640000D03*
X241090000Y-125640000D03*
X242360000Y-125640000D03*
X243630000Y-125640000D03*
X244900000Y-125640000D03*
X246170000Y-125640000D03*
X247440000Y-125640000D03*
X248710000Y-125640000D03*
D12*
X251750000Y-126890000D03*
X251750000Y-128160000D03*
X251750000Y-129430000D03*
X251750000Y-130700000D03*
X251750000Y-131970000D03*
X251750000Y-133240000D03*
X251750000Y-134510000D03*
X251750000Y-135780000D03*
X251750000Y-137050000D03*
X251750000Y-138320000D03*
X251750000Y-139590000D03*
X251750000Y-140860000D03*
X251750000Y-142130000D03*
X251750000Y-143400000D03*
%TD*%
D14*
%TO.C,C6*%
X241000000Y-113800000D03*
X242900000Y-113800000D03*
%TD*%
D15*
%TO.C,C10*%
X256500000Y-141000000D03*
X256500000Y-142900000D03*
%TD*%
D16*
%TO.C,C4*%
X236000000Y-107950000D03*
X236000000Y-106050000D03*
%TD*%
D17*
%TO.C,D9*%
X224000000Y-138000000D03*
X224000000Y-134000000D03*
%TD*%
D18*
%TO.C,U2*%
X234400000Y-113500000D03*
X234400000Y-113000000D03*
X234400000Y-112500000D03*
X234400000Y-112000000D03*
X234400000Y-111500000D03*
X234400000Y-111000000D03*
X234400000Y-110500000D03*
D19*
X233450000Y-109550000D03*
X232950000Y-109550000D03*
X232450000Y-109550000D03*
X231950000Y-109550000D03*
X231450000Y-109550000D03*
X230950000Y-109550000D03*
X230450000Y-109550000D03*
D18*
X229500000Y-110500000D03*
X229500000Y-111000000D03*
X229500000Y-111500000D03*
X229500000Y-112000000D03*
X229500000Y-112500000D03*
X229500000Y-113000000D03*
X229500000Y-113500000D03*
D19*
X230450000Y-114450000D03*
X230950000Y-114450000D03*
X231450000Y-114450000D03*
X231950000Y-114450000D03*
X232450000Y-114450000D03*
X232950000Y-114450000D03*
X233450000Y-114450000D03*
D20*
X231950000Y-112000000D03*
%TD*%
D21*
%TO.C,R11*%
X231000000Y-117175000D03*
X231000000Y-118825000D03*
%TD*%
%TO.C,R31*%
X238500000Y-104850000D03*
X238500000Y-106500000D03*
%TD*%
D14*
%TO.C,C12*%
X258450000Y-124500000D03*
X256550000Y-124500000D03*
%TD*%
D22*
%TO.C,REF\u002A\u002A*%
X265500000Y-141900000D03*
%TD*%
D23*
%TO.C,R4*%
X255825000Y-134000000D03*
X254175000Y-134000000D03*
%TD*%
D24*
%TO.C,R8*%
X225675000Y-107000000D03*
X227325000Y-107000000D03*
%TD*%
D23*
%TO.C,R19*%
X254150000Y-95800000D03*
X252500000Y-95800000D03*
%TD*%
D24*
%TO.C,R16*%
X237175000Y-122500000D03*
X238825000Y-122500000D03*
%TD*%
%TO.C,R27*%
X233350000Y-102000000D03*
X235000000Y-102000000D03*
%TD*%
D25*
%TO.C,R6*%
X259500000Y-111325000D03*
X259500000Y-109675000D03*
%TD*%
D24*
%TO.C,R5*%
X254175000Y-136000000D03*
X255825000Y-136000000D03*
%TD*%
D15*
%TO.C,C8*%
X239500000Y-117000000D03*
X239500000Y-118900000D03*
%TD*%
D26*
%TO.C,D3*%
X249425000Y-95700000D03*
X251000000Y-95700000D03*
%TD*%
D27*
%TO.C,Q5*%
X228062500Y-136800000D03*
X228062500Y-138700000D03*
X229937500Y-137750000D03*
%TD*%
D28*
%TO.C,D11*%
X225000000Y-100000000D03*
X229000000Y-100000000D03*
%TD*%
D29*
%TO.C,J4*%
X220000000Y-137800000D03*
D30*
X220000000Y-133600000D03*
%TD*%
D23*
%TO.C,R17*%
X251500000Y-107000000D03*
X249850000Y-107000000D03*
%TD*%
D22*
%TO.C,REF\u002A\u002A*%
X265500000Y-97000000D03*
%TD*%
D31*
%TO.C,C2*%
X251550000Y-116000000D03*
X253450000Y-116000000D03*
%TD*%
D21*
%TO.C,R14*%
X232000000Y-136175000D03*
X232000000Y-137825000D03*
%TD*%
D25*
%TO.C,R12*%
X220500000Y-122870833D03*
X220500000Y-121220833D03*
%TD*%
D15*
%TO.C,C11*%
X254000000Y-141100000D03*
X254000000Y-143000000D03*
%TD*%
D23*
%TO.C,R22*%
X226325000Y-142500000D03*
X224675000Y-142500000D03*
%TD*%
D17*
%TO.C,D8*%
X262500000Y-138000000D03*
X262500000Y-134000000D03*
%TD*%
D24*
%TO.C,R21*%
X250275000Y-123000000D03*
X251925000Y-123000000D03*
%TD*%
D14*
%TO.C,C7*%
X242950000Y-122250000D03*
X241050000Y-122250000D03*
%TD*%
D26*
%TO.C,D2*%
X249425000Y-97300000D03*
X251000000Y-97300000D03*
%TD*%
D32*
%TO.C,J6*%
X224800000Y-96500000D03*
D30*
X229000000Y-96500000D03*
%TD*%
D31*
%TO.C,C1*%
X241050000Y-110500000D03*
X242950000Y-110500000D03*
%TD*%
D23*
%TO.C,R23*%
X226325000Y-140500000D03*
X224675000Y-140500000D03*
%TD*%
D33*
%TO.C,Q3*%
X222625000Y-127625000D03*
X220725000Y-127625000D03*
X221675000Y-129500000D03*
%TD*%
D34*
%TO.C,U5*%
X249770000Y-104875000D03*
X251040000Y-104875000D03*
X252310000Y-104875000D03*
X253580000Y-104875000D03*
X253580000Y-99925000D03*
X252310000Y-99925000D03*
X251040000Y-99925000D03*
X249770000Y-99925000D03*
D35*
X251675000Y-102400000D03*
%TD*%
D36*
%TO.C,J2*%
X261550000Y-124500000D03*
D37*
X261550000Y-122500000D03*
%TD*%
D32*
%TO.C,J5*%
X256800000Y-96500000D03*
D30*
X261000000Y-96500000D03*
%TD*%
D38*
%TO.C,U3*%
X245500000Y-119500000D03*
X245500000Y-119000000D03*
X245500000Y-118500000D03*
X245500000Y-118000000D03*
X245500000Y-117500000D03*
X245500000Y-117000000D03*
D39*
X244800000Y-116300000D03*
X244300000Y-116300000D03*
X243800000Y-116300000D03*
X243300000Y-116300000D03*
X242800000Y-116300000D03*
X242300000Y-116300000D03*
D38*
X241600000Y-117000000D03*
X241600000Y-117500000D03*
X241600000Y-118000000D03*
X241600000Y-118500000D03*
X241600000Y-119000000D03*
X241600000Y-119500000D03*
D39*
X242300000Y-120200000D03*
X242800000Y-120200000D03*
X243300000Y-120200000D03*
X243800000Y-120200000D03*
X244300000Y-120200000D03*
X244800000Y-120200000D03*
%TD*%
D40*
%TO.C,Q2*%
X220725000Y-119500000D03*
X222625000Y-119500000D03*
X221675000Y-117625000D03*
%TD*%
D21*
%TO.C,R10*%
X232500000Y-117175000D03*
X232500000Y-118825000D03*
%TD*%
D15*
%TO.C,C3*%
X256500000Y-113550000D03*
X256500000Y-115450000D03*
%TD*%
D41*
%TO.C,U1*%
X253450000Y-111362500D03*
X252500000Y-111362500D03*
X251550000Y-111362500D03*
X251550000Y-113637500D03*
X253450000Y-113637500D03*
%TD*%
D16*
%TO.C,C14*%
X227000000Y-133950000D03*
X227000000Y-132050000D03*
%TD*%
D31*
%TO.C,C15*%
X259600000Y-103500000D03*
X261500000Y-103500000D03*
%TD*%
D42*
%TO.C,Q7*%
X235000000Y-98000000D03*
X235000000Y-96100000D03*
X233125000Y-97050000D03*
%TD*%
D25*
%TO.C,R15*%
X232000000Y-141075000D03*
X232000000Y-139425000D03*
%TD*%
%TO.C,R24*%
X264000000Y-107325000D03*
X264000000Y-105675000D03*
%TD*%
%TO.C,R29*%
X232000000Y-126825000D03*
X232000000Y-125175000D03*
%TD*%
D43*
%TO.C,D1*%
X240872500Y-106500000D03*
X245172500Y-106500000D03*
%TD*%
D44*
%TO.C,SW1*%
X265500000Y-117900000D03*
X265500000Y-111100000D03*
D45*
X262750000Y-117000000D03*
X262750000Y-114500000D03*
X262750000Y-112000000D03*
%TD*%
D24*
%TO.C,R7*%
X225675000Y-109000000D03*
X227325000Y-109000000D03*
%TD*%
%TO.C,R3*%
X245175000Y-110500000D03*
X246825000Y-110500000D03*
%TD*%
D28*
%TO.C,D10*%
X256900000Y-100000000D03*
X260900000Y-100000000D03*
%TD*%
D14*
%TO.C,C5*%
X232950000Y-107000000D03*
X231050000Y-107000000D03*
%TD*%
D25*
%TO.C,R20*%
X254000000Y-126125000D03*
X254000000Y-124475000D03*
%TD*%
D21*
%TO.C,R30*%
X248000000Y-104675000D03*
X248000000Y-106325000D03*
%TD*%
D40*
%TO.C,Q1*%
X256550000Y-107437500D03*
X258450000Y-107437500D03*
X257500000Y-105562500D03*
%TD*%
D46*
%TO.C,J1*%
X245890000Y-101250000D03*
X240110000Y-101250000D03*
D47*
X246250000Y-102695000D03*
X245450000Y-102695000D03*
D48*
X244250000Y-102695000D03*
X243250000Y-102695000D03*
X242750000Y-102695000D03*
X241750000Y-102695000D03*
D47*
X240550000Y-102695000D03*
X239750000Y-102695000D03*
X239750000Y-102695000D03*
X240550000Y-102695000D03*
D48*
X241250000Y-102695000D03*
X242250000Y-102695000D03*
X243750000Y-102695000D03*
X244750000Y-102695000D03*
D47*
X245450000Y-102695000D03*
X246250000Y-102695000D03*
D49*
X247320000Y-101780000D03*
D50*
X247320000Y-97600000D03*
D49*
X238680000Y-101780000D03*
D50*
X238680000Y-97600000D03*
%TD*%
D31*
%TO.C,C13*%
X257050000Y-132000000D03*
X258950000Y-132000000D03*
%TD*%
D24*
%TO.C,R26*%
X233350000Y-100000000D03*
X235000000Y-100000000D03*
%TD*%
D22*
%TO.C,REF\u002A\u002A*%
X220500000Y-97000000D03*
%TD*%
D31*
%TO.C,C16*%
X225050000Y-103000000D03*
X226950000Y-103000000D03*
%TD*%
D21*
%TO.C,R28*%
X258000000Y-137675000D03*
X258000000Y-139325000D03*
%TD*%
D24*
%TO.C,R18*%
X252500000Y-97300000D03*
X254150000Y-97300000D03*
%TD*%
D27*
%TO.C,Q4*%
X260825000Y-128550000D03*
X260825000Y-130450000D03*
X262700000Y-129500000D03*
%TD*%
D22*
%TO.C,REF\u002A\u002A*%
X220500000Y-141900000D03*
%TD*%
D23*
%TO.C,R9*%
X227325000Y-111000000D03*
X225675000Y-111000000D03*
%TD*%
D40*
%TO.C,Q6*%
X264050000Y-102937500D03*
X265950000Y-102937500D03*
X265000000Y-101062500D03*
%TD*%
D31*
%TO.C,C9*%
X254100000Y-138500000D03*
X256000000Y-138500000D03*
%TD*%
D29*
%TO.C,J3*%
X265900000Y-137800000D03*
D30*
X265900000Y-133600000D03*
%TD*%
D25*
%TO.C,R25*%
X261500000Y-109650000D03*
X261500000Y-108000000D03*
%TD*%
D21*
%TO.C,R13*%
X223000000Y-124254167D03*
X223000000Y-125904167D03*
%TD*%
M02*
